<?xml version="1.0" standalone="no"?>
<!DOCTYPE svg PUBLIC "-//W3C//DTD SVG 1.1//EN" "http://www.w3.org/Graphics/SVG/1.1/DTD/svg11.dtd" >
<svg xmlns="http://www.w3.org/2000/svg" xmlns:xlink="http://www.w3.org/1999/xlink" version="1.1">
<metadata>
Created by FontForge 20170924 at Wed Jun  6 20:24:29 2018
 By www-data
\(c\) 2017, Forgotten Shapes GbR. All rights reserved.
</metadata>
<defs>
<font id="GerstnerProgrammFSL-Regular" horiz-adv-x="644" >
  <font-face 
    font-family="Gerstner Programm FSL"
    font-weight="400"
    font-stretch="normal"
    units-per-em="1000"
    panose-1="2 1 5 4 1 1 1 1 1 4"
    ascent="741"
    descent="-259"
    x-height="482"
    cap-height="706"
    bbox="-377 -258 1291 1038"
    underline-thickness="50"
    underline-position="-125"
    stemh="57"
    stemv="89"
    unicode-range="U+000D-FEFF"
  />
<missing-glyph horiz-adv-x="523" 
d="M61 0v706h401v-706h-401zM114 53h295v600h-295v-600z" />
    <glyph glyph-name="f_f" unicode="ff" horiz-adv-x="587" 
d="M390 0v411h-196v-411h-89v411h-96v71h96v91c0 85 35 144 128 144c23 0 44 0 63 -5v-72c-13 1 -28 3 -40 3c-37 0 -62 -17 -62 -80v-81h196v91c0 85 35 144 128 144c21 0 43 0 62 -5v-72c-12 1 -28 3 -39 3c-39 0 -63 -17 -63 -80v-81h100v-71h-100v-411h-88z" />
    <glyph glyph-name="f_f_i" unicode="ffi" horiz-adv-x="800" 
d="M390 0v411h-196v-411h-89v411h-96v71h96v91c0 85 35 144 128 144c23 0 44 0 63 -5v-72c-13 1 -28 3 -40 3c-37 0 -62 -17 -62 -80v-81h196v91c0 85 35 144 128 144c21 0 43 0 62 -5v-72c-12 1 -28 3 -39 3c-39 0 -63 -17 -63 -80v-81h100v-71h-100v-411h-88zM651 0v482
h88v-482h-88zM651 607v99h88v-99h-88z" />
    <glyph glyph-name="f_f_l" unicode="ffl" horiz-adv-x="800" 
d="M390 0v411h-196v-411h-89v411h-96v71h96v91c0 85 35 144 128 144c23 0 44 0 63 -5v-72c-13 1 -28 3 -40 3c-37 0 -62 -17 -62 -80v-81h196v91c0 85 35 144 128 144c21 0 43 0 62 -5v-72c-12 1 -28 3 -39 3c-39 0 -63 -17 -63 -80v-81h100v-71h-100v-411h-88zM651 0v706
h88v-706h-88z" />
    <glyph glyph-name="f_i" unicode="fi" horiz-adv-x="516" 
d="M105 0v411h-96v71h96v91c0 85 35 144 128 144c23 0 44 0 63 -5v-72c-13 1 -28 3 -40 3c-37 0 -62 -17 -62 -80v-81h100v-71h-100v-411h-89zM367 0v482h88v-482h-88zM367 607v99h88v-99h-88z" />
    <glyph glyph-name="f_l" unicode="fl" horiz-adv-x="516" 
d="M105 0v411h-96v71h96v91c0 85 35 144 128 144c23 0 44 0 63 -5v-72c-13 1 -28 3 -40 3c-37 0 -62 -17 -62 -80v-81h100v-71h-100v-411h-89zM367 0v706h88v-706h-88z" />
    <glyph glyph-name=".notdef" horiz-adv-x="523" 
d="M61 0v706h401v-706h-401zM114 53h295v600h-295v-600z" />
    <glyph glyph-name="null" horiz-adv-x="0" 
 />
    <glyph glyph-name="null" horiz-adv-x="0" 
 />
    <glyph glyph-name="nonmarkingreturn" unicode="&#xd;" horiz-adv-x="214" 
 />
    <glyph glyph-name="space" unicode=" " horiz-adv-x="214" 
 />
    <glyph glyph-name="exclam" unicode="!" horiz-adv-x="246" 
d="M67 0v112h112v-112h-112zM80 174l-11 532h108l-11 -532h-86z" />
    <glyph glyph-name="quotedbl" unicode="&#x22;" horiz-adv-x="333" 
d="M57 420v286h72v-286h-72zM204 420v286h72v-286h-72z" />
    <glyph glyph-name="numbersign" unicode="#" 
d="M147 0l33 234h-154v71h164l14 97h-151v72h161l33 232h76l-33 -232h97l33 232h76l-33 -232h154v-72h-165l-14 -97h152v-71h-162l-33 -234h-75l33 234h-98l-33 -234h-75zM265 305h98l14 97h-98z" />
    <glyph glyph-name="dollar" unicode="$" 
d="M295 -95v79c-128 8 -238 87 -254 232l99 16c5 -103 74 -158 155 -166v257c-124 29 -236 61 -236 197c0 114 95 194 236 202v79h54v-79c145 -11 216 -98 237 -201l-99 -18c-17 88 -71 129 -138 137v-236l40 -9c107 -24 214 -64 214 -198c0 -120 -103 -202 -254 -213v-79
h-54zM349 311v-246c96 8 154 60 154 127c0 81 -65 98 -145 117zM295 417v224c-76 -8 -137 -45 -137 -121c0 -63 64 -87 137 -103z" />
    <glyph glyph-name="percent" unicode="%" horiz-adv-x="850" 
d="M230 380c56 0 83 72 83 139s-27 139 -83 139s-83 -72 -83 -139s27 -139 83 -139zM230 323c-103 0 -156 101 -156 196c0 93 53 196 156 196s156 -103 156 -196c0 -95 -53 -196 -156 -196zM146 0l477 706h81l-477 -706h-81zM620 48c56 0 83 72 83 139s-27 139 -83 139
s-83 -72 -83 -139s27 -139 83 -139zM620 -9c-103 0 -156 101 -156 196c0 93 53 196 156 196s156 -103 156 -196c0 -95 -53 -196 -156 -196z" />
    <glyph glyph-name="ampersand" unicode="&#x26;" horiz-adv-x="657" 
d="M393 0v369h-115c-82 0 -147 -55 -147 -147c0 -98 65 -154 153 -154c23 0 35 1 52 4v-72c-24 -8 -48 -12 -73 -12c-131 0 -227 85 -227 234c0 96 54 165 139 194c-59 23 -97 64 -97 132c0 103 87 176 206 176c127 0 200 -73 200 -176v-95h165v-84h-165v-369h-91zM393 453
v95c0 57 -36 97 -109 97c-69 0 -113 -41 -113 -97c0 -57 45 -95 110 -95h112z" />
    <glyph glyph-name="quotesingle" unicode="'" horiz-adv-x="185" 
d="M57 420v286h71v-286h-71z" />
    <glyph glyph-name="parenleft" unicode="(" horiz-adv-x="273" 
d="M34 241c0 149 66 312 157 465h66c-69 -144 -130 -294 -130 -465c0 -172 60 -319 130 -464h-66c-91 153 -157 315 -157 464z" />
    <glyph glyph-name="parenright" unicode=")" horiz-adv-x="273" 
d="M240 241c0 -149 -66 -311 -157 -464h-66c70 145 130 292 130 464c0 171 -61 321 -130 465h66c91 -153 157 -316 157 -465z" />
    <glyph glyph-name="asterisk" unicode="*" horiz-adv-x="425" 
d="M75 404l90 105l-136 34l24 76l128 -53l-10 140h81l-11 -139l130 53l24 -76l-135 -33l91 -107l-65 -47l-73 117l-73 -118z" />
    <glyph glyph-name="plus" unicode="+" 
d="M286 0v273h-265v75h265v273h74v-273h263v-75h-263v-273h-74z" />
    <glyph glyph-name="comma" unicode="," horiz-adv-x="214" 
d="M-5 -174l73 286h98l-97 -286h-74z" />
    <glyph glyph-name="hyphen" unicode="-" horiz-adv-x="409" 
d="M54 287v85h301v-85h-301z" />
    <glyph glyph-name="period" unicode="." horiz-adv-x="220" 
d="M54 0v112h112v-112h-112z" />
    <glyph glyph-name="slash" unicode="/" horiz-adv-x="384" 
d="M23 0l248 706h91l-247 -706h-92z" />
    <glyph glyph-name="zero" unicode="0" horiz-adv-x="621" 
d="M310 64c116 0 171 147 171 288s-55 290 -171 290c-117 0 -170 -149 -170 -290s53 -288 170 -288zM310 -17c-180 0 -267 190 -267 369s87 371 267 371c181 0 268 -192 268 -371s-87 -369 -268 -369z" />
    <glyph glyph-name="one" unicode="1" horiz-adv-x="318" 
d="M146 0v533h-127v77h32c72 0 107 17 107 96h81v-706h-93z" />
    <glyph glyph-name="two" unicode="2" horiz-adv-x="563" 
d="M35 0v98c101 57 380 235 380 411c0 79 -48 133 -128 133c-76 0 -135 -43 -138 -171l-99 22c3 156 116 230 237 230c138 0 225 -90 225 -214c0 -180 -213 -346 -358 -432h372v-77h-491z" />
    <glyph glyph-name="three" unicode="3" horiz-adv-x="570" 
d="M34 217l100 19c7 -117 65 -172 145 -172c96 0 151 64 151 135s-52 130 -158 130h-86v81h84c88 0 143 62 143 121c0 71 -56 111 -132 111c-104 0 -132 -84 -135 -148l-98 22c3 74 64 207 233 207c131 0 229 -68 229 -192c0 -59 -44 -140 -143 -159
c111 -19 160 -96 160 -174c0 -108 -83 -215 -248 -215c-123 0 -234 77 -245 234z" />
    <glyph glyph-name="four" unicode="4" horiz-adv-x="574" 
d="M20 185v86l278 435h130v-444h127v-77h-127v-185h-94v185h-314zM117 262h217v353z" />
    <glyph glyph-name="five" unicode="5" horiz-adv-x="554" 
d="M38 171l96 21c17 -77 61 -128 138 -128c92 0 150 71 150 171c0 82 -49 160 -137 160c-85 0 -129 -64 -140 -101l-99 19l48 393h397v-81h-318l-29 -223c16 29 77 74 157 74c139 0 215 -114 215 -241c0 -148 -95 -252 -244 -252c-131 0 -208 80 -234 188z" />
    <glyph glyph-name="six" unicode="6" horiz-adv-x="570" 
d="M519 559l-99 -20c-21 76 -56 103 -111 103c-132 0 -166 -181 -169 -281c19 53 81 105 169 105c129 0 221 -100 221 -234c0 -160 -114 -249 -229 -249c-212 0 -257 199 -257 354c0 176 65 386 268 386c84 0 172 -49 207 -164zM298 64c72 0 139 59 139 167
c0 96 -66 155 -140 155c-105 0 -143 -101 -143 -157c0 -101 62 -165 144 -165z" />
    <glyph glyph-name="seven" unicode="7" horiz-adv-x="523" 
d="M192 0h-101c72 185 252 513 316 625h-391v81h490v-83c-89 -141 -246 -456 -314 -623z" />
    <glyph glyph-name="eight" unicode="8" horiz-adv-x="577" 
d="M189 377c-76 24 -124 88 -124 161c0 77 68 185 223 185s223 -108 223 -185c0 -73 -44 -137 -124 -161c88 -19 148 -82 148 -189c0 -102 -90 -205 -247 -205c-168 0 -247 117 -247 206c0 105 63 167 148 188zM134 191c0 -59 50 -127 154 -127s153 68 153 127
c0 69 -32 143 -153 143s-154 -80 -154 -143zM159 533c0 -47 34 -116 129 -116s129 69 129 116c0 50 -42 111 -129 111s-129 -61 -129 -111z" />
    <glyph glyph-name="nine" unicode="9" horiz-adv-x="568" 
d="M47 150l100 21c19 -79 57 -107 112 -107c143 0 161 192 169 297c-18 -52 -82 -104 -168 -104c-136 0 -222 103 -222 231c0 141 113 235 230 235c208 0 255 -195 255 -354c0 -173 -60 -386 -267 -386c-81 0 -177 52 -209 167zM271 337c92 0 141 85 141 148
c0 82 -55 157 -143 157c-77 0 -137 -70 -137 -157c0 -86 66 -148 139 -148z" />
    <glyph glyph-name="colon" unicode=":" horiz-adv-x="220" 
d="M54 0v112h112v-112h-112zM54 370v112h112v-112h-112z" />
    <glyph glyph-name="semicolon" unicode=";" horiz-adv-x="246" 
d="M15 -174l73 286h98l-97 -286h-74zM71 370v112h112v-112h-112z" />
    <glyph glyph-name="less" unicode="&#x3c;" 
d="M8 298v75l601 258v-76l-509 -219l509 -220v-76z" />
    <glyph glyph-name="equal" unicode="=" 
d="M21 197v73h602v-73h-602zM21 360v74h602v-74h-602z" />
    <glyph glyph-name="greater" unicode="&#x3e;" 
d="M35 40v76l508 220l-508 219v76l601 -258v-75z" />
    <glyph glyph-name="question" unicode="?" horiz-adv-x="527" 
d="M211 174v234c5 0 39 -2 47 -2c71 0 141 37 141 121c0 77 -64 115 -135 115c-76 0 -132 -43 -144 -138l-97 20c19 115 109 199 241 199c124 0 230 -67 230 -196c0 -111 -78 -185 -186 -193v-160h-97zM204 0v112h112v-112h-112z" />
    <glyph glyph-name="at" unicode="@" horiz-adv-x="777" 
d="M338 196c85 0 150 126 150 206c0 48 -32 90 -77 90c-95 0 -153 -119 -153 -202c0 -56 33 -94 80 -94zM404 668c-177 0 -304 -143 -304 -319c0 -185 133 -311 306 -311c89 0 183 41 238 109l38 -33c-64 -83 -169 -131 -276 -131c-210 0 -370 147 -370 366
c0 216 165 374 367 374c196 0 339 -128 339 -307c0 -157 -109 -286 -231 -286c-36 0 -65 23 -68 64c-28 -35 -74 -63 -122 -63c-85 0 -138 68 -138 156c0 132 92 271 228 271c43 0 89 -24 108 -79l22 61h62l-85 -279c-5 -17 -10 -35 -10 -50s5 -26 22 -26
c80 0 149 117 149 233c0 152 -118 250 -275 250z" />
    <glyph glyph-name="A" unicode="A" horiz-adv-x="671" 
d="M1 0l273 706h124l271 -706h-104l-78 210h-304l-78 -210h-104zM212 289h246l-123 334z" />
    <glyph glyph-name="B" unicode="B" horiz-adv-x="666" 
d="M76 0v706h304c131 0 223 -67 223 -187c0 -93 -74 -148 -126 -153c96 -15 153 -71 153 -167c0 -147 -115 -199 -263 -199h-291zM172 81h206c93 0 153 34 153 117s-52 125 -175 125h-184v-242zM172 404h178c75 0 154 25 154 113c0 74 -61 108 -131 108h-201v-221z" />
    <glyph glyph-name="C" unicode="C" horiz-adv-x="702" 
d="M586 252l96 -19c-27 -128 -132 -250 -308 -250c-220 0 -337 170 -337 370c0 197 124 370 337 370c163 0 264 -103 302 -227l-96 -20c-29 88 -93 166 -206 166c-152 0 -238 -136 -238 -289c0 -155 81 -289 238 -289c123 0 194 96 212 188z" />
    <glyph glyph-name="D" unicode="D" horiz-adv-x="713" 
d="M172 81h128c207 0 276 126 276 272s-69 272 -276 272h-128v-544zM76 0v706h231c179 0 368 -87 368 -353c0 -267 -189 -353 -368 -353h-231z" />
    <glyph glyph-name="E" unicode="E" horiz-adv-x="595" 
d="M76 0v706h469v-81h-373v-220h360v-81h-360v-243h382v-81h-478z" />
    <glyph glyph-name="F" unicode="F" horiz-adv-x="567" 
d="M76 0v706h470v-81h-374v-217h352v-81h-352v-327h-96z" />
    <glyph glyph-name="G" unicode="G" horiz-adv-x="724" 
d="M586 0v102c-38 -68 -104 -119 -218 -119c-213 0 -332 168 -332 370c0 197 123 370 336 370c148 0 246 -84 291 -195l-96 -21c-33 76 -96 135 -195 135c-151 0 -237 -136 -237 -289c0 -155 80 -289 237 -289c97 0 207 59 212 240h-225v81h317v-385h-90z" />
    <glyph glyph-name="H" unicode="H" horiz-adv-x="722" 
d="M76 0v706h96v-300h376v300h98v-706h-98v325h-376v-325h-96z" />
    <glyph glyph-name="I" unicode="I" horiz-adv-x="248" 
d="M76 0v706h96v-706h-96z" />
    <glyph glyph-name="J" unicode="J" horiz-adv-x="560" 
d="M12 218l99 18c0 -107 46 -174 142 -174c93 0 141 65 141 151v493h96v-489c0 -147 -93 -234 -236 -234c-140 0 -235 84 -242 235z" />
    <glyph glyph-name="K" unicode="K" horiz-adv-x="629" 
d="M76 0v706h96v-315l314 315h124l-336 -329l382 -377h-130l-354 352v-352h-96z" />
    <glyph glyph-name="L" unicode="L" horiz-adv-x="543" 
d="M76 0v706h96v-625h360v-81h-456z" />
    <glyph glyph-name="M" unicode="M" horiz-adv-x="881" 
d="M76 0v706h147l219 -605l214 605h149v-706h-92v603l-213 -603h-116l-216 603v-603h-92z" />
    <glyph glyph-name="N" unicode="N" horiz-adv-x="755" 
d="M76 0v706h132l381 -610v610h90v-706h-139l-374 609v-609h-90z" />
    <glyph glyph-name="O" unicode="O" horiz-adv-x="745" 
d="M374 64c164 0 235 143 235 286c0 145 -71 292 -235 292c-165 0 -238 -147 -238 -292c0 -143 73 -286 238 -286zM374 -17c-235 0 -337 183 -337 367s102 373 337 373c233 0 334 -189 334 -373s-101 -367 -334 -367z" />
    <glyph glyph-name="P" unicode="P" horiz-adv-x="621" 
d="M76 0v706h295c143 0 229 -63 229 -199c0 -133 -84 -200 -229 -200h-199v-307h-96zM172 388h190c88 0 141 30 141 119c0 72 -40 118 -141 118h-190v-237z" />
    <glyph glyph-name="Q" unicode="Q" horiz-adv-x="752" 
d="M680 -32l-88 92c-53 -48 -125 -77 -218 -77c-235 0 -337 183 -337 367s102 373 337 373c233 0 334 -189 334 -373c0 -80 -19 -158 -59 -222l96 -100zM374 64c164 0 235 143 235 286c0 145 -71 292 -235 292c-165 0 -238 -147 -238 -292c0 -143 73 -286 238 -286z" />
    <glyph glyph-name="R" unicode="R" horiz-adv-x="668" 
d="M76 0v706h293c153 0 234 -68 234 -185c0 -118 -79 -158 -116 -166c64 -13 112 -46 112 -135v-109c0 -36 5 -72 42 -111h-109c-27 32 -30 67 -30 98v106c0 83 -46 104 -123 104h-208v-308h-95zM171 389h201c120 0 134 85 134 126c0 65 -41 110 -141 110h-194v-236z" />
    <glyph glyph-name="S" unicode="S" horiz-adv-x="626" 
d="M28 216l99 16c5 -115 92 -168 186 -168c115 0 184 56 184 128c0 80 -65 100 -140 116l-68 15c-123 27 -242 57 -242 197c0 123 106 203 267 203c167 0 244 -93 265 -202l-99 -18c-19 99 -86 139 -166 139c-91 0 -169 -37 -169 -122c0 -71 79 -89 160 -108l76 -17
c108 -24 215 -65 215 -198c0 -126 -114 -214 -285 -214c-143 0 -264 77 -283 233z" />
    <glyph glyph-name="T" unicode="T" horiz-adv-x="566" 
d="M234 0v625h-224v81h546v-81h-225v-625h-97z" />
    <glyph glyph-name="U" unicode="U" horiz-adv-x="700" 
d="M70 247v459h96v-459c0 -112 69 -183 184 -183c116 0 183 66 183 183v459h97v-459c0 -176 -118 -264 -280 -264c-184 0 -280 113 -280 264z" />
    <glyph glyph-name="V" unicode="V" horiz-adv-x="650" 
d="M266 0l-262 706h100l221 -602l228 602h98l-271 -706h-114z" />
    <glyph glyph-name="W" unicode="W" horiz-adv-x="969" 
d="M202 0l-194 706h96l164 -611l150 611h134l150 -611l163 611h97l-195 -706h-133l-149 620l-149 -620h-134z" />
    <glyph glyph-name="X" unicode="X" horiz-adv-x="626" 
d="M-17 0l273 379l-234 327h112l181 -258l179 258h111l-235 -327l271 -379h-113l-217 309l-215 -309h-113z" />
    <glyph glyph-name="Y" unicode="Y" horiz-adv-x="634" 
d="M268 0v328l-262 378h112l200 -301l205 301h108l-267 -378v-328h-96z" />
    <glyph glyph-name="Z" unicode="Z" horiz-adv-x="599" 
d="M25 0v93l412 531h-396v82h515v-82l-424 -542h448v-82h-555z" />
    <glyph glyph-name="bracketleft" unicode="[" horiz-adv-x="289" 
d="M73 -223v929h201v-67h-118v-795h118v-67h-201z" />
    <glyph glyph-name="backslash" unicode="\" horiz-adv-x="384" 
d="M269 0l-247 706h91l248 -706h-92z" />
    <glyph glyph-name="bracketright" unicode="]" horiz-adv-x="288" 
d="M14 -223v67h118v795h-117v67h200v-929h-201z" />
    <glyph glyph-name="asciicircum" unicode="^" 
d="M104 342l185 364h72l178 -364h-89l-127 264l-130 -264h-89z" />
    <glyph glyph-name="underscore" unicode="_" horiz-adv-x="520" 
d="M0 -125v53h520v-53h-520z" />
    <glyph glyph-name="grave" unicode="`" horiz-adv-x="262" 
d="M139 540l-89 171h93l69 -171h-73z" />
    <glyph glyph-name="a" unicode="a" horiz-adv-x="493" 
d="M442 0h-89c-1 5 -7 37 -7 70c-28 -60 -86 -82 -150 -82c-104 0 -164 65 -164 140c0 115 90 139 196 158c13 3 48 7 63 10c55 10 58 29 58 56c0 26 -18 73 -101 73c-64 0 -107 -31 -112 -102l-90 17c8 45 28 80 60 107c37 31 85 47 142 47c105 0 187 -39 187 -159v-220
c0 -67 6 -110 7 -115zM123 132c0 -44 41 -75 86 -75s137 21 137 126v63c-13 -7 -44 -11 -73 -18l-33 -6c-62 -14 -117 -24 -117 -90z" />
    <glyph glyph-name="b" unicode="b" horiz-adv-x="552" 
d="M61 0v706h89v-294c22 44 82 82 149 82c160 0 220 -139 220 -253c0 -90 -48 -253 -227 -253c-59 0 -127 39 -145 86v-74h-86zM285 59c104 0 144 97 144 181c0 110 -56 183 -144 183c-52 0 -137 -35 -137 -182s88 -182 137 -182z" />
    <glyph glyph-name="c" unicode="c" horiz-adv-x="503" 
d="M390 179l89 -18c-11 -67 -76 -173 -216 -173c-160 0 -230 125 -230 252c0 128 78 254 230 254c138 0 201 -96 214 -167l-89 -16c-5 35 -34 112 -125 112c-96 0 -140 -93 -140 -183c0 -88 39 -181 140 -181c86 0 119 72 127 120z" />
    <glyph glyph-name="d" unicode="d" horiz-adv-x="553" 
d="M406 0v73c-19 -48 -87 -85 -151 -85c-170 0 -222 155 -222 252c0 106 58 254 226 254c62 0 123 -39 145 -83v295h88v-706h-86zM268 59c52 0 137 34 137 181s-85 183 -133 183c-103 0 -149 -93 -149 -182c0 -77 40 -182 145 -182z" />
    <glyph glyph-name="e" unicode="e" horiz-adv-x="508" 
d="M383 160l85 -18c-13 -66 -88 -154 -202 -154c-162 0 -232 121 -232 252c0 132 76 254 221 254c140 0 220 -110 220 -256c0 -7 0 -15 -1 -19h-350c0 -80 42 -162 138 -162c77 0 110 57 121 103zM125 288h257c0 64 -42 137 -127 137c-84 0 -130 -62 -130 -137z" />
    <glyph glyph-name="f" unicode="f" horiz-adv-x="303" 
d="M105 0v411h-96v71h96v91c0 85 35 144 128 144c23 0 44 0 63 -5v-72c-13 1 -28 3 -40 3c-37 0 -62 -17 -62 -80v-81h100v-71h-100v-411h-89z" />
    <glyph glyph-name="g" unicode="g" horiz-adv-x="548" 
d="M54 -65l94 17c5 -67 52 -116 120 -116c96 0 131 69 131 152v85c-21 -44 -87 -81 -148 -81c-153 0 -218 123 -218 249c0 96 49 253 225 253c60 0 123 -41 144 -86v74h85v-496c0 -136 -71 -221 -219 -221c-115 0 -201 67 -214 170zM263 63c53 0 137 36 137 179
c0 144 -81 181 -130 181c-110 0 -147 -104 -147 -179c0 -99 48 -181 140 -181z" />
    <glyph glyph-name="h" unicode="h" horiz-adv-x="523" 
d="M61 0v706h87v-304c10 39 68 92 152 92c48 0 97 -18 132 -65c31 -39 35 -79 35 -161v-268h-89v268c0 66 -3 96 -19 117c-12 17 -39 38 -84 38c-41 0 -70 -16 -93 -44c-27 -32 -33 -64 -33 -149v-230h-88z" />
    <glyph glyph-name="i" unicode="i" horiz-adv-x="211" 
d="M61 0v482h89v-482h-89zM61 607v99h89v-99h-89z" />
    <glyph glyph-name="j" unicode="j" horiz-adv-x="216" 
d="M-39 -229v75c13 -3 26 -4 37 -4c63 0 69 41 69 74v566h88v-569c0 -88 -20 -147 -132 -147c-25 0 -42 1 -62 5zM67 607v99h88v-99h-88z" />
    <glyph glyph-name="k" unicode="k" horiz-adv-x="493" 
d="M61 0v706h89v-426l210 202h115l-232 -216l272 -266h-115l-250 239v-239h-89z" />
    <glyph glyph-name="l" unicode="l" horiz-adv-x="211" 
d="M61 0v706h89v-706h-89z" />
    <glyph glyph-name="m" unicode="m" horiz-adv-x="788" 
d="M61 0v482h87v-78c10 39 60 90 137 90c36 0 80 -10 116 -54c10 -12 18 -27 25 -44c16 48 68 98 145 98c45 0 91 -14 126 -61c30 -40 35 -78 35 -165v-268h-88v287c0 59 -7 136 -94 136c-39 0 -66 -20 -85 -49s-24 -57 -24 -108v-266h-88v287c0 59 -8 136 -93 136
c-40 0 -67 -20 -86 -49c-22 -33 -24 -63 -24 -132v-242h-89z" />
    <glyph glyph-name="n" unicode="n" horiz-adv-x="521" 
d="M61 0v482h87v-78c10 39 66 90 150 90c47 0 98 -16 133 -63c31 -42 34 -80 34 -163v-268h-88v268c0 67 -4 95 -20 117c-11 17 -39 38 -84 38c-41 0 -69 -16 -92 -44c-27 -32 -31 -72 -31 -149v-230h-89z" />
    <glyph glyph-name="o" unicode="o" horiz-adv-x="531" 
d="M266 59c96 0 141 94 141 181s-45 183 -141 183c-97 0 -143 -96 -143 -183s46 -181 143 -181zM266 -12c-152 0 -233 129 -233 252s81 254 233 254c150 0 232 -131 232 -254s-82 -252 -232 -252z" />
    <glyph glyph-name="p" unicode="p" horiz-adv-x="554" 
d="M61 -223v705h86v-73c19 46 89 85 152 85c160 0 222 -139 222 -253c0 -90 -50 -253 -229 -253c-64 0 -119 38 -142 83v-294h-89zM285 59c114 0 146 112 146 181c0 96 -49 183 -145 183c-53 0 -138 -35 -138 -182c0 -146 88 -182 137 -182z" />
    <glyph glyph-name="q" unicode="q" horiz-adv-x="550" 
d="M401 -223v293c-21 -45 -80 -82 -148 -82c-170 0 -220 156 -220 253c0 104 56 253 224 253c59 0 128 -41 147 -86v74h85v-705h-88zM267 59c51 0 136 35 136 182s-85 182 -133 182c-93 0 -147 -78 -147 -182c0 -92 48 -182 144 -182z" />
    <glyph glyph-name="r" unicode="r" horiz-adv-x="333" 
d="M61 0v482h87v-81c16 45 68 93 143 93c15 0 29 -2 34 -3v-89c-11 3 -22 4 -46 4c-52 0 -82 -24 -103 -55c-25 -33 -26 -81 -26 -133v-218h-89z" />
    <glyph glyph-name="s" unicode="s" horiz-adv-x="470" 
d="M25 151l92 20c4 -68 42 -114 117 -114c60 0 114 24 114 79s-57 63 -93 71l-57 11c-60 11 -156 32 -156 138c0 68 63 138 193 138c92 0 173 -51 192 -151l-86 -17c-8 57 -33 99 -110 99c-73 0 -102 -39 -102 -68c0 -46 60 -61 100 -69l38 -7c77 -13 173 -36 173 -142
c0 -96 -94 -151 -206 -151c-139 0 -201 95 -209 163z" />
    <glyph glyph-name="t" unicode="t" horiz-adv-x="311" 
d="M101 107v304h-93v71h93v159h89v-159h102v-71h-102v-283c0 -47 19 -61 54 -61c15 0 31 2 48 5v-71c-15 -3 -38 -8 -69 -8c-76 0 -122 35 -122 114z" />
    <glyph glyph-name="u" unicode="u" horiz-adv-x="519" 
d="M56 214v268h89v-268c0 -68 4 -96 20 -117c11 -17 37 -38 84 -38c41 0 66 16 89 44c27 33 32 64 32 149v230h88v-482h-87v78c-10 -39 -64 -90 -147 -90c-47 0 -98 16 -133 63c-31 41 -35 80 -35 163z" />
    <glyph glyph-name="v" unicode="v" horiz-adv-x="475" 
d="M185 0l-176 482h91l138 -381l142 381h89l-181 -482h-103z" />
    <glyph glyph-name="w" unicode="w" horiz-adv-x="745" 
d="M160 0l-152 482h89l116 -380l105 380h109l107 -380l116 380h88l-153 -482h-105l-108 382l-106 -382h-106z" />
    <glyph glyph-name="x" unicode="x" horiz-adv-x="439" 
d="M3 0l164 251l-149 231h100l104 -165l107 165h98l-155 -232l159 -250h-99l-112 182l-116 -182h-101z" />
    <glyph glyph-name="y" unicode="y" horiz-adv-x="464" 
d="M32 -229v77c15 -4 27 -6 38 -6c43 0 71 13 84 50l36 98l-180 492h92l134 -377l133 377h89l-226 -624c-23 -61 -69 -92 -140 -92c-16 0 -44 2 -60 5z" />
    <glyph glyph-name="z" unicode="z" horiz-adv-x="441" 
d="M21 0v80l278 331h-254v71h364v-68l-286 -342h292v-72h-394z" />
    <glyph glyph-name="braceleft" unicode="{" horiz-adv-x="284" 
d="M274 -183v-40c-71 3 -114 7 -148 46c-33 37 -34 85 -34 149v78c0 65 -1 86 -9 110c-13 37 -36 53 -63 62v38c27 9 50 25 63 62c8 24 9 45 9 110v79c0 64 1 112 34 149c35 40 76 40 148 46v-40c-48 -15 -75 -30 -88 -66c-11 -25 -11 -51 -11 -96v-63
c0 -97 -2 -119 -21 -151c-20 -33 -47 -42 -68 -49c21 -7 48 -16 68 -49c19 -32 21 -54 21 -151v-62c0 -45 0 -71 11 -96c13 -36 40 -51 88 -66z" />
    <glyph glyph-name="bar" unicode="|" horiz-adv-x="226" 
d="M73 -223v929h80v-929h-80z" />
    <glyph glyph-name="braceright" unicode="}" horiz-adv-x="284" 
d="M10 -223v40c48 15 75 30 88 66c11 25 11 51 11 96v62c0 97 2 119 21 151c20 33 47 42 68 49c-21 7 -48 16 -68 49c-19 32 -21 54 -21 151v63c0 45 0 71 -11 96c-13 36 -40 51 -88 66v40c70 -5 113 -5 148 -46c33 -37 34 -85 34 -149v-79c0 -65 1 -86 9 -110
c13 -37 36 -53 63 -62v-38c-27 -9 -50 -25 -63 -62c-8 -24 -9 -45 -9 -110v-78c0 -64 -1 -112 -34 -149c-34 -39 -79 -43 -148 -46z" />
    <glyph glyph-name="asciitilde" unicode="~" 
d="M67 251l-43 8c29 115 102 161 173 161c124 0 196 -96 280 -96c59 0 91 25 111 94l43 -9c-31 -113 -101 -160 -173 -160c-124 0 -196 96 -280 96c-60 0 -92 -25 -111 -94z" />
    <glyph glyph-name="uni00A0" unicode="&#xa0;" horiz-adv-x="214" 
 />
    <glyph glyph-name="exclamdown" unicode="&#xa1;" horiz-adv-x="244" 
d="M66 594v112h112v-112h-112zM68 0l11 532h86l11 -532h-108z" />
    <glyph glyph-name="cent" unicode="&#xa2;" 
d="M257 -95v87c-163 35 -243 182 -243 361c0 170 87 324 243 361v87h56v-78c8 0 17 1 26 1c8 0 16 -1 25 -1v78h55v-87c116 -30 186 -117 210 -218l-89 -20c-16 60 -54 125 -121 152v-548c77 32 114 107 125 172l90 -18c-16 -102 -86 -209 -215 -241v-88h-55v79
c-8 0 -17 -1 -25 -1c-11 0 -18 1 -26 1v-79h-56zM364 64v579c-9 1 -17 1 -25 1c-9 0 -18 1 -26 -2v-578c8 -1 15 -1 26 -1c8 0 17 0 25 1zM257 80v545c-95 -40 -145 -150 -145 -272c0 -126 45 -236 145 -273z" />
    <glyph glyph-name="sterling" unicode="&#xa3;" 
d="M80 0l120 350h-132v82h161l52 150c26 77 79 135 185 135c32 0 54 -5 69 -9v-83c-11 3 -43 9 -66 9c-52 0 -81 -32 -96 -72l-44 -130h175v-82h-204l-91 -268h368v-82h-497z" />
    <glyph glyph-name="currency" unicode="&#xa4;" 
d="M34 95l73 75c-24 37 -50 77 -50 156c0 82 31 130 50 154l-72 76l60 61l73 -76c32 22 74 52 154 52c79 0 127 -33 152 -51l74 75l61 -61l-74 -76c17 -25 50 -71 50 -155s-35 -130 -51 -155l74 -77l-61 -61l-74 77c-34 -23 -75 -50 -152 -50c-78 0 -118 26 -153 50l-74 -75
zM322 139c96 0 182 75 182 187c0 116 -90 187 -181 187c-96 0 -185 -71 -185 -188c0 -108 83 -186 184 -186z" />
    <glyph glyph-name="yen" unicode="&#xa5;" 
d="M270 0v221h-208v55h208v52h-208v55h171l-211 323h111l187 -301l194 301h108l-218 -323h177v-55h-214v-52h214v-55h-214v-221h-97z" />
    <glyph glyph-name="brokenbar" unicode="&#xa6;" horiz-adv-x="232" 
d="M76 -223v389h80v-389h-80zM76 317v389h80v-389h-80z" />
    <glyph glyph-name="section" unicode="&#xa7;" horiz-adv-x="437" 
d="M147 -201v70c15 -3 33 -4 49 -4c37 0 75 17 75 68c0 44 -49 87 -70 111l-100 112c-44 48 -74 102 -74 166c0 72 55 116 102 137c-24 29 -53 80 -53 124c0 94 72 140 151 140c23 0 46 -1 63 -5v-70c-15 3 -33 4 -49 4c-39 0 -75 -19 -75 -68c0 -45 49 -87 70 -111
l100 -112c44 -48 74 -102 74 -166c0 -72 -56 -116 -103 -137c24 -29 54 -81 54 -124c0 -94 -72 -140 -151 -140c-23 0 -46 1 -63 5zM166 212l91 -99c37 8 67 35 67 82c0 43 -20 74 -53 110l-91 99c-37 -8 -67 -35 -67 -82c0 -43 20 -74 53 -110z" />
    <glyph glyph-name="dieresis" unicode="&#xa8;" horiz-adv-x="401" 
d="M50 571v105h101v-105h-101zM250 571v105h101v-105h-101z" />
    <glyph glyph-name="copyright" unicode="&#xa9;" horiz-adv-x="810" 
d="M533 291l77 -14c-11 -68 -69 -161 -205 -161c-125 0 -225 106 -225 238c0 133 102 238 225 238c124 0 183 -79 202 -147l-78 -15c-14 44 -47 88 -124 88c-83 0 -145 -69 -145 -164s62 -164 145 -164c88 0 120 53 128 101zM67 353c0 -187 151 -338 338 -338
s338 151 338 338s-151 338 -338 338s-338 -151 -338 -338zM35 353c0 204 166 370 370 370s370 -166 370 -370s-166 -370 -370 -370s-370 166 -370 370z" />
    <glyph glyph-name="ordfeminine" unicode="&#xaa;" horiz-adv-x="361" 
d="M309 390h-60c-1 3 -5 17 -5 40c-19 -35 -57 -48 -97 -48c-71 0 -109 51 -109 95c0 77 63 92 139 105c7 1 31 5 32 5c35 7 37 18 37 35s-12 47 -65 47c-41 0 -69 -20 -72 -67l-62 11c4 26 14 47 31 64c23 27 62 40 103 40c32 0 80 -4 105 -48c12 -16 19 -38 19 -75v-127
c0 -47 4 -74 4 -77zM244 511v39c-16 -4 -27 -6 -42 -9l-32 -7c-28 -5 -70 -17 -70 -54c0 -27 24 -50 53 -50s91 13 91 81z" />
    <glyph glyph-name="guillemotleft" unicode="&#xab;" horiz-adv-x="433" 
d="M38 294v75l168 127v-84l-111 -81l111 -81v-84zM207 294v75l168 127v-84l-111 -81l111 -81v-84z" />
    <glyph glyph-name="logicalnot" unicode="&#xac;" 
d="M39 281v75h548v-307h-75v232h-473z" />
    <glyph glyph-name="uni00AD" unicode="&#xad;" horiz-adv-x="409" 
d="M54 287v85h301v-85h-301z" />
    <glyph glyph-name="registered" unicode="&#xae;" horiz-adv-x="492" 
d="M152 461v259h96c31 0 44 1 61 -6c27 -11 39 -34 39 -59c0 -36 -26 -55 -58 -62c27 -11 35 -25 42 -57c5 -38 9 -51 19 -75h-44c-11 21 -12 52 -16 77c-7 39 -29 43 -66 43h-35v-120h-38zM191 612h61c19 0 58 1 58 41c0 11 -4 21 -13 28c-11 9 -24 10 -55 10h-51v-79z
M63 589c0 -101 82 -183 183 -183s183 82 183 183s-82 183 -183 183s-183 -82 -183 -183zM31 589c0 119 96 215 215 215s215 -96 215 -215s-96 -215 -215 -215s-215 96 -215 215z" />
    <glyph glyph-name="overscore" unicode="&#xaf;" horiz-adv-x="401" 
d="M50 592v73h301v-73h-301z" />
    <glyph glyph-name="degree" unicode="&#xb0;" horiz-adv-x="400" 
d="M200 438c57 0 104 46 104 103c0 59 -47 104 -104 104c-59 0 -104 -45 -104 -104c0 -57 45 -103 104 -103zM200 372c-93 0 -170 77 -170 169c0 93 77 170 170 170s170 -77 170 -170c0 -92 -77 -169 -170 -169z" />
    <glyph glyph-name="plusminus" unicode="&#xb1;" 
d="M40 351v75h246v211h74v-211h244v-75h-244v-212h-74v212h-246zM40 0v75h564v-75h-564z" />
    <glyph glyph-name="twosuperior" unicode="&#xb2;" horiz-adv-x="360" 
d="M41 502v64c23 10 95 53 143 101c32 31 56 64 56 103c0 35 -23 58 -55 58c-37 0 -63 -20 -63 -85l-74 16c0 91 73 126 137 126c73 0 127 -46 127 -115c0 -62 -42 -108 -77 -143c-25 -25 -78 -56 -98 -68h182v-57h-278z" />
    <glyph glyph-name="threesuperior" unicode="&#xb3;" horiz-adv-x="360" 
d="M38 620l72 16c3 -53 27 -86 68 -86c45 0 67 30 67 61c0 27 -16 59 -76 59h-43v55h41c44 0 69 26 69 51c0 31 -24 52 -57 52c-48 0 -62 -34 -63 -73l-72 17c3 48 44 113 135 113c69 0 130 -36 130 -110c0 -18 -16 -69 -72 -77c64 -8 80 -60 80 -94
c0 -56 -51 -111 -139 -111c-67 0 -132 35 -140 127z" />
    <glyph glyph-name="acute" unicode="&#xb4;" horiz-adv-x="262" 
d="M50 540l69 171h93l-89 -171h-73z" />
    <glyph glyph-name="mu" unicode="&#xb5;" horiz-adv-x="541" 
d="M70 -223v705h88v-281c0 -76 13 -142 104 -142c92 0 121 81 121 165v258h88v-482h-87v77c-11 -38 -65 -89 -140 -89c-25 0 -58 6 -86 26v-237h-88z" />
    <glyph glyph-name="paragraph" unicode="&#xb6;" horiz-adv-x="531" 
d="M181 -223v534c-90 18 -157 100 -157 195c0 109 88 200 200 200h253v-55h-35v-874h-58v874h-145v-874h-58z" />
    <glyph glyph-name="middot" unicode="&#xb7;" horiz-adv-x="232" 
d="M47 326c0 39 30 69 69 69s69 -30 69 -69s-30 -68 -69 -68s-69 29 -69 68z" />
    <glyph glyph-name="cedilla" unicode="&#xb8;" horiz-adv-x="239" 
d="M50 -231v49h32c29 0 51 15 51 44c0 27 -22 41 -51 41h-32v103h52v-55c51 -4 87 -36 87 -89c0 -60 -47 -93 -104 -93h-35z" />
    <glyph glyph-name="onesuperior" unicode="&#xb9;" horiz-adv-x="360" 
d="M162 502v266h-70v58h27c36 0 49 10 49 50h66v-374h-72z" />
    <glyph glyph-name="ordmasculine" unicode="&#xba;" horiz-adv-x="374" 
d="M188 432c61 0 90 59 90 116s-29 119 -90 119c-63 0 -92 -62 -92 -119s29 -116 92 -116zM188 381c-101 0 -155 86 -155 167c0 84 54 169 155 169c99 0 153 -85 153 -169c0 -81 -54 -167 -153 -167z" />
    <glyph glyph-name="guillemotright" unicode="&#xbb;" horiz-adv-x="433" 
d="M58 166v84l111 81l-111 81v84l168 -127v-75zM228 166v84l111 81l-111 81v84l167 -127v-75z" />
    <glyph glyph-name="onequarter" unicode="&#xbc;" horiz-adv-x="850" 
d="M152 332v266h-70v58h27c36 0 49 10 49 50h66v-374h-72zM117 0l477 706h81l-477 -706h-81zM468 92v56l149 226h87v-225h69v-57h-69v-92h-68v92h-168zM542 149h94v151z" />
    <glyph glyph-name="onehalf" unicode="&#xbd;" horiz-adv-x="850" 
d="M157 332v266h-70v58h27c36 0 49 10 49 50h66v-374h-72zM122 0l477 706h81l-477 -706h-81zM481 0v64c23 10 95 53 143 101c32 31 56 64 56 103c0 35 -23 58 -55 58c-37 0 -63 -20 -63 -85l-74 16c0 91 73 126 137 126c73 0 127 -46 127 -115c0 -62 -42 -108 -77 -143
c-25 -25 -78 -56 -98 -68h182v-57h-278z" />
    <glyph glyph-name="threequarters" unicode="&#xbe;" horiz-adv-x="850" 
d="M57 450l72 16c3 -53 27 -86 68 -86c45 0 67 30 67 61c0 27 -16 59 -76 59h-43v55h41c44 0 69 26 69 51c0 31 -24 52 -57 52c-48 0 -62 -34 -63 -73l-72 17c3 48 44 113 135 113c69 0 130 -36 130 -110c0 -18 -16 -69 -72 -77c64 -8 80 -60 80 -94
c0 -56 -51 -111 -139 -111c-67 0 -132 35 -140 127zM143 0l477 706h81l-477 -706h-81zM494 92v56l149 226h87v-225h69v-57h-69v-92h-68v92h-168zM568 149h94v151z" />
    <glyph glyph-name="questiondown" unicode="&#xbf;" horiz-adv-x="529" 
d="M221 372v160h96v-234c-5 0 -39 2 -47 2c-71 0 -141 -37 -141 -121c0 -77 64 -115 135 -115c76 0 133 43 145 138l97 -20c-19 -115 -110 -199 -242 -199c-122 0 -230 67 -230 196c0 111 79 185 187 193zM213 594v112h112v-112h-112z" />
    <glyph glyph-name="Agrave" unicode="&#xc0;" horiz-adv-x="671" 
d="M1 0l273 706h124l271 -706h-104l-78 210h-304l-78 -210h-104zM212 289h246l-123 334zM301 764l-89 171h93l69 -171h-73z" />
    <glyph glyph-name="Aacute" unicode="&#xc1;" horiz-adv-x="671" 
d="M1 0l273 706h124l271 -706h-104l-78 210h-304l-78 -210h-104zM212 289h246l-123 334zM300 764l69 171h93l-89 -171h-73z" />
    <glyph glyph-name="Acircumflex" unicode="&#xc2;" horiz-adv-x="671" 
d="M1 0l273 706h124l271 -706h-104l-78 210h-304l-78 -210h-104zM212 289h246l-123 334zM167 764l130 171h75l130 -171h-80l-87 119l-88 -119h-80z" />
    <glyph glyph-name="Atilde" unicode="&#xc3;" horiz-adv-x="671" 
d="M1 0l273 706h124l271 -706h-104l-78 210h-304l-78 -210h-104zM212 289h246l-123 334zM180 785v85c21 19 52 36 83 36c27 0 51 -10 76 -19c21 -7 41 -16 60 -16c33 0 61 22 82 50v-85c-21 -20 -53 -37 -84 -37c-25 0 -48 9 -71 17s-43 18 -66 18c-32 0 -59 -21 -80 -49z
" />
    <glyph glyph-name="Adieresis" unicode="&#xc4;" horiz-adv-x="671" 
d="M1 0l273 706h124l271 -706h-104l-78 210h-304l-78 -210h-104zM212 289h246l-123 334zM186 795v105h101v-105h-101zM386 795v105h101v-105h-101z" />
    <glyph glyph-name="Aring" unicode="&#xc5;" horiz-adv-x="671" 
d="M1 0l272 703c-23 16 -36 42 -36 73c0 54 44 98 97 98s97 -44 97 -98c0 -28 -13 -54 -33 -71l271 -705h-104l-78 210h-304l-78 -210h-104zM212 289h246l-123 334zM334 723c31 0 54 24 54 53c0 31 -23 54 -54 54s-54 -23 -54 -54c0 -29 23 -53 54 -53z" />
    <glyph glyph-name="AE" unicode="&#xc6;" horiz-adv-x="936" 
d="M-14 0l435 706h465v-81h-321v-220h308v-81h-308v-243h330v-81h-427v250h-219l-150 -250h-113zM300 333h168v281z" />
    <glyph glyph-name="Ccedilla" unicode="&#xc7;" horiz-adv-x="701" 
d="M331 -231v49h32c29 0 51 15 51 44c0 27 -22 41 -51 41h-32v82c-38 4 -73 13 -104 27c-125 60 -191 190 -191 341c0 197 124 370 337 370c163 0 264 -103 302 -227l-96 -20c-29 88 -93 166 -206 166c-152 0 -238 -136 -238 -289c0 -155 81 -289 238 -289
c123 0 194 96 212 188l96 -19c-20 -97 -84 -187 -190 -229c-32 -13 -68 -20 -108 -21v-32c51 -4 87 -36 87 -89c0 -60 -47 -93 -104 -93h-35z" />
    <glyph glyph-name="Egrave" unicode="&#xc8;" horiz-adv-x="595" 
d="M76 0v706h469v-81h-373v-220h360v-81h-360v-243h382v-81h-478zM285 764l-89 171h93l69 -171h-73z" />
    <glyph glyph-name="Eacute" unicode="&#xc9;" horiz-adv-x="595" 
d="M76 0v706h469v-81h-373v-220h360v-81h-360v-243h382v-81h-478zM284 764l69 171h93l-89 -171h-73z" />
    <glyph glyph-name="Ecircumflex" unicode="&#xca;" horiz-adv-x="595" 
d="M76 0v706h469v-81h-373v-220h360v-81h-360v-243h382v-81h-478zM151 764l130 171h75l130 -171h-80l-87 119l-88 -119h-80z" />
    <glyph glyph-name="Edieresis" unicode="&#xcb;" horiz-adv-x="595" 
d="M76 0v706h469v-81h-373v-220h360v-81h-360v-243h382v-81h-478zM170 795v105h101v-105h-101zM370 795v105h101v-105h-101z" />
    <glyph glyph-name="Igrave" unicode="&#xcc;" horiz-adv-x="248" 
d="M76 0v706h96v-706h-96zM89 764l-89 171h93l69 -171h-73z" />
    <glyph glyph-name="Iacute" unicode="&#xcd;" horiz-adv-x="248" 
d="M76 0v706h96v-706h-96zM88 764l69 171h93l-89 -171h-73z" />
    <glyph glyph-name="Icircumflex" unicode="&#xce;" horiz-adv-x="248" 
d="M-22 764l104 171h80l104 -171h-74l-69 119l-71 -119h-74zM76 0v706h96v-706h-96z" />
    <glyph glyph-name="Idieresis" unicode="&#xcf;" horiz-adv-x="248" 
d="M76 0v706h96v-706h-96zM-26 795v105h101v-105h-101zM174 795v105h101v-105h-101z" />
    <glyph glyph-name="Eth" unicode="&#xd0;" horiz-adv-x="731" 
d="M94 0v348h-76v62h76v296h231c179 0 368 -87 368 -353c0 -267 -189 -353 -368 -353h-231zM191 81h128c205 0 275 126 275 272s-70 272 -275 272h-128v-215h213v-62h-213v-267z" />
    <glyph glyph-name="Ntilde" unicode="&#xd1;" horiz-adv-x="755" 
d="M76 0v706h132l381 -610v610h90v-706h-139l-374 609v-609h-90zM221 785v85c21 19 52 36 83 36c27 0 51 -10 76 -19c21 -7 41 -16 60 -16c33 0 61 22 82 50v-85c-21 -20 -53 -37 -84 -37c-25 0 -48 9 -71 17s-43 18 -66 18c-32 0 -59 -21 -80 -49z" />
    <glyph glyph-name="Ograve" unicode="&#xd2;" horiz-adv-x="745" 
d="M374 64c164 0 235 143 235 286c0 145 -71 292 -235 292c-165 0 -238 -147 -238 -292c0 -143 73 -286 238 -286zM374 -17c-235 0 -337 183 -337 367s102 373 337 373c233 0 334 -189 334 -373s-101 -367 -334 -367zM339 764l-89 171h93l69 -171h-73z" />
    <glyph glyph-name="Oacute" unicode="&#xd3;" horiz-adv-x="745" 
d="M374 64c164 0 235 143 235 286c0 145 -71 292 -235 292c-165 0 -238 -147 -238 -292c0 -143 73 -286 238 -286zM374 -17c-235 0 -337 183 -337 367s102 373 337 373c233 0 334 -189 334 -373s-101 -367 -334 -367zM338 764l69 171h93l-89 -171h-73z" />
    <glyph glyph-name="Ocircumflex" unicode="&#xd4;" horiz-adv-x="745" 
d="M374 64c164 0 235 143 235 286c0 145 -71 292 -235 292c-165 0 -238 -147 -238 -292c0 -143 73 -286 238 -286zM374 -17c-235 0 -337 183 -337 367s102 373 337 373c233 0 334 -189 334 -373s-101 -367 -334 -367zM205 764l130 171h75l130 -171h-80l-87 119l-88 -119h-80
z" />
    <glyph glyph-name="Otilde" unicode="&#xd5;" horiz-adv-x="745" 
d="M374 64c164 0 235 143 235 286c0 145 -71 292 -235 292c-165 0 -238 -147 -238 -292c0 -143 73 -286 238 -286zM374 -17c-235 0 -337 183 -337 367s102 373 337 373c233 0 334 -189 334 -373s-101 -367 -334 -367zM218 785v85c21 19 52 36 83 36c27 0 51 -10 76 -19
c21 -7 41 -16 60 -16c33 0 61 22 82 50v-85c-21 -20 -53 -37 -84 -37c-25 0 -48 9 -71 17s-43 18 -66 18c-32 0 -59 -21 -80 -49z" />
    <glyph glyph-name="Odieresis" unicode="&#xd6;" horiz-adv-x="745" 
d="M374 64c164 0 235 143 235 286c0 145 -71 292 -235 292c-165 0 -238 -147 -238 -292c0 -143 73 -286 238 -286zM374 -17c-235 0 -337 183 -337 367s102 373 337 373c233 0 334 -189 334 -373s-101 -367 -334 -367zM224 795v105h101v-105h-101zM424 795v105h101v-105h-101
z" />
    <glyph glyph-name="multiply" unicode="&#xd7;" 
d="M45 87l224 225l-227 228l52 52l228 -228l224 224l53 -53l-224 -224l229 -229l-53 -53l-229 229l-224 -224z" />
    <glyph glyph-name="Oslash" unicode="&#xd8;" horiz-adv-x="751" 
d="M40 0l81 97c-56 69 -81 161 -81 253c0 184 102 373 337 373c88 0 158 -27 210 -71l45 54h79l-82 -98c56 -71 82 -165 82 -258c0 -184 -101 -367 -334 -367c-92 0 -161 27 -214 71l-45 -54h-78zM377 64c164 0 235 143 235 286c0 65 -15 131 -46 184l-345 -411
c39 -36 88 -59 156 -59zM139 350c0 -64 13 -128 44 -179l345 412c-37 36 -87 59 -151 59c-165 0 -238 -147 -238 -292z" />
    <glyph glyph-name="Ugrave" unicode="&#xd9;" horiz-adv-x="700" 
d="M70 247v459h96v-459c0 -112 69 -183 184 -183c116 0 183 66 183 183v459h97v-459c0 -176 -118 -264 -280 -264c-184 0 -280 113 -280 264zM315 764l-89 171h93l69 -171h-73z" />
    <glyph glyph-name="Uacute" unicode="&#xda;" horiz-adv-x="700" 
d="M70 247v459h96v-459c0 -112 69 -183 184 -183c116 0 183 66 183 183v459h97v-459c0 -176 -118 -264 -280 -264c-184 0 -280 113 -280 264zM314 764l69 171h93l-89 -171h-73z" />
    <glyph glyph-name="Ucircumflex" unicode="&#xdb;" horiz-adv-x="700" 
d="M70 247v459h96v-459c0 -112 69 -183 184 -183c116 0 183 66 183 183v459h97v-459c0 -176 -118 -264 -280 -264c-184 0 -280 113 -280 264zM181 764l130 171h75l130 -171h-80l-87 119l-88 -119h-80z" />
    <glyph glyph-name="Udieresis" unicode="&#xdc;" horiz-adv-x="700" 
d="M70 247v459h96v-459c0 -112 69 -183 184 -183c116 0 183 66 183 183v459h97v-459c0 -176 -118 -264 -280 -264c-184 0 -280 113 -280 264zM200 795v105h101v-105h-101zM400 795v105h101v-105h-101z" />
    <glyph glyph-name="Yacute" unicode="&#xdd;" horiz-adv-x="634" 
d="M268 0v328l-262 378h112l200 -301l205 301h108l-267 -378v-328h-96zM283 764l69 171h93l-89 -171h-73z" />
    <glyph glyph-name="Thorn" unicode="&#xde;" horiz-adv-x="622" 
d="M76 0v706h96v-104h199c143 0 229 -64 229 -199c0 -133 -84 -200 -229 -200h-199v-203h-96zM172 283h190c88 0 141 31 141 120c0 72 -40 118 -141 118h-190v-238z" />
    <glyph glyph-name="germandbls" unicode="&#xdf;" horiz-adv-x="541" 
d="M61 0v516c0 133 71 207 203 207c140 0 200 -85 200 -165c0 -64 -37 -115 -98 -134c101 -24 142 -108 142 -198c0 -141 -99 -234 -233 -234c-19 0 -41 3 -66 8v78c20 -5 38 -8 55 -8c87 0 152 58 152 157c0 96 -66 154 -167 154h-40v75h36c68 0 127 38 127 102
c0 45 -37 91 -108 91c-75 0 -114 -54 -114 -125v-524h-89z" />
    <glyph glyph-name="agrave" unicode="&#xe0;" horiz-adv-x="493" 
d="M442 0h-89c-1 5 -7 37 -7 70c-28 -60 -86 -82 -150 -82c-104 0 -164 65 -164 140c0 115 90 139 196 158c13 3 48 7 63 10c55 10 58 29 58 56c0 26 -18 73 -101 73c-64 0 -107 -31 -112 -102l-90 17c8 45 28 80 60 107c37 31 85 47 142 47c105 0 187 -39 187 -159v-220
c0 -67 6 -110 7 -115zM123 132c0 -44 41 -75 86 -75s137 21 137 126v63c-13 -7 -44 -11 -73 -18l-33 -6c-62 -14 -117 -24 -117 -90zM213 540l-89 171h93l69 -171h-73z" />
    <glyph glyph-name="aacute" unicode="&#xe1;" horiz-adv-x="493" 
d="M442 0h-89c-1 5 -7 37 -7 70c-28 -60 -86 -82 -150 -82c-104 0 -164 65 -164 140c0 115 90 139 196 158c13 3 48 7 63 10c55 10 58 29 58 56c0 26 -18 73 -101 73c-64 0 -107 -31 -112 -102l-90 17c8 45 28 80 60 107c37 31 85 47 142 47c105 0 187 -39 187 -159v-220
c0 -67 6 -110 7 -115zM123 132c0 -44 41 -75 86 -75s137 21 137 126v63c-13 -7 -44 -11 -73 -18l-33 -6c-62 -14 -117 -24 -117 -90zM210 540l69 171h93l-89 -171h-73z" />
    <glyph glyph-name="acircumflex" unicode="&#xe2;" horiz-adv-x="493" 
d="M442 0h-89c-1 5 -7 37 -7 70c-28 -60 -86 -82 -150 -82c-104 0 -164 65 -164 140c0 115 90 139 196 158c13 3 48 7 63 10c55 10 58 29 58 56c0 26 -18 73 -101 73c-64 0 -107 -31 -112 -102l-90 17c8 45 28 80 60 107c37 31 85 47 142 47c105 0 187 -39 187 -159v-220
c0 -67 6 -110 7 -115zM123 132c0 -44 41 -75 86 -75s137 21 137 126v63c-13 -7 -44 -11 -73 -18l-33 -6c-62 -14 -117 -24 -117 -90zM80 540l130 171h75l130 -171h-80l-87 119l-88 -119h-80z" />
    <glyph glyph-name="atilde" unicode="&#xe3;" horiz-adv-x="493" 
d="M442 0h-89c-1 5 -7 37 -7 70c-28 -60 -86 -82 -150 -82c-104 0 -164 65 -164 140c0 115 90 139 196 158c13 3 48 7 63 10c55 10 58 29 58 56c0 26 -18 73 -101 73c-64 0 -107 -31 -112 -102l-90 17c8 45 28 80 60 107c37 31 85 47 142 47c105 0 187 -39 187 -159v-220
c0 -67 6 -110 7 -115zM123 132c0 -44 41 -75 86 -75s137 21 137 126v63c-13 -7 -44 -11 -73 -18l-33 -6c-62 -14 -117 -24 -117 -90zM97 561v85c21 19 52 36 83 36c27 0 51 -10 76 -19c21 -7 41 -16 60 -16c33 0 61 22 82 50v-85c-21 -20 -53 -37 -84 -37
c-25 0 -48 9 -71 17s-43 18 -66 18c-32 0 -59 -21 -80 -49z" />
    <glyph glyph-name="adieresis" unicode="&#xe4;" horiz-adv-x="493" 
d="M442 0h-89c-1 5 -7 37 -7 70c-28 -60 -86 -82 -150 -82c-104 0 -164 65 -164 140c0 115 90 139 196 158c13 3 48 7 63 10c55 10 58 29 58 56c0 26 -18 73 -101 73c-64 0 -107 -31 -112 -102l-90 17c8 45 28 80 60 107c37 31 85 47 142 47c105 0 187 -39 187 -159v-220
c0 -67 6 -110 7 -115zM123 132c0 -44 41 -75 86 -75s137 21 137 126v63c-13 -7 -44 -11 -73 -18l-33 -6c-62 -14 -117 -24 -117 -90zM97 571v105h101v-105h-101zM297 571v105h101v-105h-101z" />
    <glyph glyph-name="aring" unicode="&#xe5;" horiz-adv-x="493" 
d="M442 0h-89c-1 5 -7 37 -7 70c-28 -60 -86 -82 -150 -82c-104 0 -164 65 -164 140c0 115 90 139 196 158c13 3 48 7 63 10c55 10 58 29 58 56c0 26 -18 73 -101 73c-64 0 -107 -31 -112 -102l-90 17c8 45 28 80 60 107c37 31 85 47 142 47c105 0 187 -39 187 -159v-220
c0 -67 6 -110 7 -115zM123 132c0 -44 41 -75 86 -75s137 21 137 126v63c-13 -7 -44 -11 -73 -18l-33 -6c-62 -14 -117 -24 -117 -90zM248 578c29 0 53 24 53 53c0 31 -24 54 -53 54c-31 0 -54 -23 -54 -54c0 -29 23 -53 54 -53zM248 534c-54 0 -98 44 -98 97
c0 55 43 97 98 97c53 0 97 -43 97 -97c0 -53 -44 -97 -97 -97z" />
    <glyph glyph-name="ae" unicode="&#xe6;" horiz-adv-x="812" 
d="M136 323l-90 17c7 37 22 66 47 94c36 39 92 60 153 60c79 0 130 -29 158 -72c37 44 89 72 157 72c141 0 218 -117 218 -254c0 -8 -1 -16 -1 -21h-345c0 -91 37 -162 135 -162c76 0 108 57 119 103l85 -18c-16 -72 -94 -154 -203 -154c-84 0 -146 41 -182 102
c-35 -69 -95 -102 -191 -102c-104 0 -164 74 -164 147c0 100 81 153 254 153h59v40c0 46 -29 97 -99 97c-63 0 -105 -31 -110 -102zM342 183v36h-63c-115 0 -156 -28 -156 -80c0 -51 39 -81 88 -81c50 0 131 26 131 125zM434 288h252c0 64 -43 137 -125 137
c-81 0 -127 -63 -127 -137z" />
    <glyph glyph-name="ccedilla" unicode="&#xe7;" horiz-adv-x="503" 
d="M229 -231v49h32c29 0 51 15 51 44c0 27 -22 41 -51 41h-32v87c-26 3 -49 10 -70 19c-86 44 -126 134 -126 231c0 128 78 254 230 254c138 0 201 -96 214 -167l-89 -16c-5 35 -34 112 -125 112c-96 0 -140 -93 -140 -183c0 -88 39 -181 140 -181c86 0 119 72 127 120
l89 -18c-8 -51 -47 -120 -125 -156c-21 -9 -46 -15 -73 -16v-38c51 -4 87 -36 87 -89c0 -60 -47 -93 -104 -93h-35z" />
    <glyph glyph-name="egrave" unicode="&#xe8;" horiz-adv-x="508" 
d="M383 160l85 -18c-13 -66 -88 -154 -202 -154c-162 0 -232 121 -232 252c0 132 76 254 221 254c140 0 220 -110 220 -256c0 -7 0 -15 -1 -19h-350c0 -80 42 -162 138 -162c77 0 110 57 121 103zM125 288h257c0 64 -42 137 -127 137c-84 0 -130 -62 -130 -137zM221 540
l-89 171h93l69 -171h-73z" />
    <glyph glyph-name="eacute" unicode="&#xe9;" horiz-adv-x="508" 
d="M383 160l85 -18c-13 -66 -88 -154 -202 -154c-162 0 -232 121 -232 252c0 132 76 254 221 254c140 0 220 -110 220 -256c0 -7 0 -15 -1 -19h-350c0 -80 42 -162 138 -162c77 0 110 57 121 103zM125 288h257c0 64 -42 137 -127 137c-84 0 -130 -62 -130 -137zM218 540
l69 171h93l-89 -171h-73z" />
    <glyph glyph-name="ecircumflex" unicode="&#xea;" horiz-adv-x="508" 
d="M383 160l85 -18c-13 -66 -88 -154 -202 -154c-162 0 -232 121 -232 252c0 132 76 254 221 254c140 0 220 -110 220 -256c0 -7 0 -15 -1 -19h-350c0 -80 42 -162 138 -162c77 0 110 57 121 103zM125 288h257c0 64 -42 137 -127 137c-84 0 -130 -62 -130 -137zM88 540
l130 171h75l130 -171h-80l-87 119l-88 -119h-80z" />
    <glyph glyph-name="edieresis" unicode="&#xeb;" horiz-adv-x="508" 
d="M383 160l85 -18c-13 -66 -88 -154 -202 -154c-162 0 -232 121 -232 252c0 132 76 254 221 254c140 0 220 -110 220 -256c0 -7 0 -15 -1 -19h-350c0 -80 42 -162 138 -162c77 0 110 57 121 103zM125 288h257c0 64 -42 137 -127 137c-84 0 -130 -62 -130 -137zM105 571v105
h101v-105h-101zM305 571v105h101v-105h-101z" />
    <glyph glyph-name="igrave" unicode="&#xec;" horiz-adv-x="211" 
d="M61 0v482h89v-482h-89zM70 540l-89 171h93l69 -171h-73z" />
    <glyph glyph-name="iacute" unicode="&#xed;" horiz-adv-x="211" 
d="M61 0v482h89v-482h-89zM67 540l69 171h93l-89 -171h-73z" />
    <glyph glyph-name="icircumflex" unicode="&#xee;" horiz-adv-x="211" 
d="M-40 540l104 171h80l104 -171h-74l-69 119l-71 -119h-74zM61 0v482h89v-482h-89z" />
    <glyph glyph-name="idieresis" unicode="&#xef;" horiz-adv-x="211" 
d="M61 0v482h89v-482h-89zM-46 571v105h101v-105h-101zM154 571v105h101v-105h-101z" />
    <glyph glyph-name="eth" unicode="&#xf0;" horiz-adv-x="532" 
d="M165 523l-13 42l134 43c-27 35 -49 60 -69 80l72 36c43 -48 50 -57 77 -92l97 31l13 -43l-84 -26c68 -104 101 -220 101 -333c0 -155 -67 -273 -231 -273c-199 0 -229 188 -229 252c0 67 34 254 226 254c49 0 97 -23 126 -58c-14 41 -28 71 -70 134zM269 59
c51 0 136 34 136 181s-85 183 -133 183c-128 0 -149 -134 -149 -182s21 -182 146 -182z" />
    <glyph glyph-name="ntilde" unicode="&#xf1;" horiz-adv-x="521" 
d="M61 0v482h87v-78c10 39 66 90 150 90c47 0 98 -16 133 -63c31 -42 34 -80 34 -163v-268h-88v268c0 67 -4 95 -20 117c-11 17 -39 38 -84 38c-41 0 -69 -16 -92 -44c-27 -32 -31 -72 -31 -149v-230h-89zM112 561v85c21 19 52 36 83 36c27 0 51 -10 76 -19
c21 -7 41 -16 60 -16c33 0 61 22 82 50v-85c-21 -20 -53 -37 -84 -37c-25 0 -48 9 -71 17s-43 18 -66 18c-32 0 -59 -21 -80 -49z" />
    <glyph glyph-name="ograve" unicode="&#xf2;" horiz-adv-x="531" 
d="M266 59c96 0 141 94 141 181s-45 183 -141 183c-97 0 -143 -96 -143 -183s46 -181 143 -181zM266 -12c-152 0 -233 129 -233 252s81 254 233 254c150 0 232 -131 232 -254s-82 -252 -232 -252zM232 540l-89 171h93l69 -171h-73z" />
    <glyph glyph-name="oacute" unicode="&#xf3;" horiz-adv-x="531" 
d="M266 59c96 0 141 94 141 181s-45 183 -141 183c-97 0 -143 -96 -143 -183s46 -181 143 -181zM266 -12c-152 0 -233 129 -233 252s81 254 233 254c150 0 232 -131 232 -254s-82 -252 -232 -252zM229 540l69 171h93l-89 -171h-73z" />
    <glyph glyph-name="ocircumflex" unicode="&#xf4;" horiz-adv-x="531" 
d="M266 59c96 0 141 94 141 181s-45 183 -141 183c-97 0 -143 -96 -143 -183s46 -181 143 -181zM266 -12c-152 0 -233 129 -233 252s81 254 233 254c150 0 232 -131 232 -254s-82 -252 -232 -252zM99 540l130 171h75l130 -171h-80l-87 119l-88 -119h-80z" />
    <glyph glyph-name="otilde" unicode="&#xf5;" horiz-adv-x="531" 
d="M266 59c96 0 141 94 141 181s-45 183 -141 183c-97 0 -143 -96 -143 -183s46 -181 143 -181zM266 -12c-152 0 -233 129 -233 252s81 254 233 254c150 0 232 -131 232 -254s-82 -252 -232 -252zM116 561v85c21 19 52 36 83 36c27 0 51 -10 76 -19c21 -7 41 -16 60 -16
c33 0 61 22 82 50v-85c-21 -20 -53 -37 -84 -37c-25 0 -48 9 -71 17s-43 18 -66 18c-32 0 -59 -21 -80 -49z" />
    <glyph glyph-name="odieresis" unicode="&#xf6;" horiz-adv-x="531" 
d="M266 59c96 0 141 94 141 181s-45 183 -141 183c-97 0 -143 -96 -143 -183s46 -181 143 -181zM266 -12c-152 0 -233 129 -233 252s81 254 233 254c150 0 232 -131 232 -254s-82 -252 -232 -252zM116 571v105h101v-105h-101zM316 571v105h101v-105h-101z" />
    <glyph glyph-name="divide" unicode="&#xf7;" 
d="M256 99c0 39 27 67 66 67s67 -28 67 -67c0 -37 -28 -66 -67 -66s-66 29 -66 66zM21 273v75h602v-75h-602zM256 525c0 39 27 67 66 67s67 -28 67 -67c0 -37 -28 -66 -67 -66s-66 29 -66 66z" />
    <glyph glyph-name="oslash" unicode="&#xf8;" horiz-adv-x="536" 
d="M23 0l66 75c-36 47 -53 106 -53 165c0 123 81 254 233 254c56 0 104 -18 140 -49l32 37h71l-65 -76c35 -47 54 -107 54 -166c0 -123 -82 -252 -232 -252c-60 0 -106 18 -143 49l-32 -37h-71zM147 142l211 244c-23 23 -53 37 -89 37c-97 0 -143 -96 -143 -183
c0 -35 6 -69 21 -98zM388 339l-211 -243c23 -23 53 -37 92 -37c96 0 141 94 141 181c0 35 -7 68 -22 99z" />
    <glyph glyph-name="ugrave" unicode="&#xf9;" horiz-adv-x="519" 
d="M56 214v268h89v-268c0 -68 4 -96 20 -117c11 -17 37 -38 84 -38c41 0 66 16 89 44c27 33 32 64 32 149v230h88v-482h-87v78c-10 -39 -64 -90 -147 -90c-47 0 -98 16 -133 63c-31 41 -35 80 -35 163zM223 540l-89 171h93l69 -171h-73z" />
    <glyph glyph-name="uacute" unicode="&#xfa;" horiz-adv-x="519" 
d="M56 214v268h89v-268c0 -68 4 -96 20 -117c11 -17 37 -38 84 -38c41 0 66 16 89 44c27 33 32 64 32 149v230h88v-482h-87v78c-10 -39 -64 -90 -147 -90c-47 0 -98 16 -133 63c-31 41 -35 80 -35 163zM220 540l69 171h93l-89 -171h-73z" />
    <glyph glyph-name="ucircumflex" unicode="&#xfb;" horiz-adv-x="519" 
d="M56 214v268h89v-268c0 -68 4 -96 20 -117c11 -17 37 -38 84 -38c41 0 66 16 89 44c27 33 32 64 32 149v230h88v-482h-87v78c-10 -39 -64 -90 -147 -90c-47 0 -98 16 -133 63c-31 41 -35 80 -35 163zM90 540l130 171h75l130 -171h-80l-87 119l-88 -119h-80z" />
    <glyph glyph-name="udieresis" unicode="&#xfc;" horiz-adv-x="519" 
d="M56 214v268h89v-268c0 -68 4 -96 20 -117c11 -17 37 -38 84 -38c41 0 66 16 89 44c27 33 32 64 32 149v230h88v-482h-87v78c-10 -39 -64 -90 -147 -90c-47 0 -98 16 -133 63c-31 41 -35 80 -35 163zM107 571v105h101v-105h-101zM307 571v105h101v-105h-101z" />
    <glyph glyph-name="yacute" unicode="&#xfd;" horiz-adv-x="464" 
d="M32 -229v77c15 -4 27 -6 38 -6c43 0 71 13 84 50l36 98l-180 492h92l134 -377l133 377h89l-226 -624c-23 -61 -69 -92 -140 -92c-16 0 -44 2 -60 5zM198 540l69 171h93l-89 -171h-73z" />
    <glyph glyph-name="thorn" unicode="&#xfe;" horiz-adv-x="554" 
d="M61 -223v930h86v-298c19 46 89 85 152 85c160 0 222 -139 222 -253c0 -90 -50 -253 -229 -253c-64 0 -119 38 -142 83v-294h-89zM285 59c114 0 146 112 146 181c0 96 -49 183 -145 183c-53 0 -138 -35 -138 -182c0 -146 88 -182 137 -182z" />
    <glyph glyph-name="ydieresis" unicode="&#xff;" horiz-adv-x="464" 
d="M32 -229v77c15 -4 27 -6 38 -6c43 0 71 13 84 50l36 98l-180 492h92l134 -377l133 377h89l-226 -624c-23 -61 -69 -92 -140 -92c-16 0 -44 2 -60 5zM85 571v105h101v-105h-101zM285 571v105h101v-105h-101z" />
    <glyph glyph-name="Amacron" unicode="&#x100;" horiz-adv-x="671" 
d="M1 0l273 706h124l271 -706h-104l-78 210h-304l-78 -210h-104zM212 289h246l-123 334zM185 816v73h301v-73h-301z" />
    <glyph glyph-name="amacron" unicode="&#x101;" horiz-adv-x="493" 
d="M442 0h-89c-1 5 -7 37 -7 70c-28 -60 -86 -82 -150 -82c-104 0 -164 65 -164 140c0 115 90 139 196 158c13 3 48 7 63 10c55 10 58 29 58 56c0 26 -18 73 -101 73c-64 0 -107 -31 -112 -102l-90 17c8 45 28 80 60 107c37 31 85 47 142 47c105 0 187 -39 187 -159v-220
c0 -67 6 -110 7 -115zM123 132c0 -44 41 -75 86 -75s137 21 137 126v63c-13 -7 -44 -11 -73 -18l-33 -6c-62 -14 -117 -24 -117 -90zM97 592v73h301v-73h-301z" />
    <glyph glyph-name="Abreve" unicode="&#x102;" horiz-adv-x="671" 
d="M1 0l273 706h124l271 -706h-104l-78 210h-304l-78 -210h-104zM212 289h246l-123 334zM188 906v23h70v-23c0 -51 23 -90 78 -90s79 39 79 90v23h70v-23c0 -93 -65 -151 -149 -151s-148 58 -148 151z" />
    <glyph glyph-name="abreve" unicode="&#x103;" horiz-adv-x="493" 
d="M442 0h-89c-1 5 -7 37 -7 70c-28 -60 -86 -82 -150 -82c-104 0 -164 65 -164 140c0 115 90 139 196 158c13 3 48 7 63 10c55 10 58 29 58 56c0 26 -18 73 -101 73c-64 0 -107 -31 -112 -102l-90 17c8 45 28 80 60 107c37 31 85 47 142 47c105 0 187 -39 187 -159v-220
c0 -67 6 -110 7 -115zM123 132c0 -44 41 -75 86 -75s137 21 137 126v63c-13 -7 -44 -11 -73 -18l-33 -6c-62 -14 -117 -24 -117 -90zM99 682v23h70v-23c0 -51 23 -90 78 -90s79 39 79 90v23h70v-23c0 -93 -65 -151 -149 -151s-148 58 -148 151z" />
    <glyph glyph-name="Aogonek" unicode="&#x104;" horiz-adv-x="671" 
d="M212 289h246l-123 334zM511 -91c0 43 19 79 48 106l-72 195h-304l-78 -210h-104l273 706h124l271 -706h-18c-47 0 -84 -40 -84 -91s37 -91 84 -91h32v-49h-32c-77 0 -140 63 -140 140z" />
    <glyph glyph-name="aogonek" unicode="&#x105;" horiz-adv-x="493" 
d="M123 132c0 -44 41 -75 86 -75s137 21 137 126v63c-13 -7 -44 -11 -73 -18l-33 -6c-62 -14 -117 -24 -117 -90zM298 -91c0 44 20 83 52 108c-3 15 -4 33 -4 53c-28 -60 -86 -82 -150 -82c-104 0 -164 65 -164 140c0 115 90 139 196 158c13 3 48 7 63 10c55 10 58 29 58 56
c0 26 -18 73 -101 73c-64 0 -107 -31 -112 -102l-90 17c8 45 28 80 60 107c37 31 85 47 142 47c105 0 187 -39 187 -159v-220c0 -67 6 -110 7 -115h-4c-47 0 -84 -40 -84 -91s37 -91 84 -91h32v-49h-32c-77 0 -140 63 -140 140z" />
    <glyph glyph-name="Cacute" unicode="&#x106;" horiz-adv-x="702" 
d="M586 252l96 -19c-27 -128 -132 -250 -308 -250c-220 0 -337 170 -337 370c0 197 124 370 337 370c163 0 264 -103 302 -227l-96 -20c-29 88 -93 166 -206 166c-152 0 -238 -136 -238 -289c0 -155 81 -289 238 -289c123 0 194 96 212 188zM339 764l69 171h93l-89 -171h-73
z" />
    <glyph glyph-name="cacute" unicode="&#x107;" horiz-adv-x="503" 
d="M390 179l89 -18c-11 -67 -76 -173 -216 -173c-160 0 -230 125 -230 252c0 128 78 254 230 254c138 0 201 -96 214 -167l-89 -16c-5 35 -34 112 -125 112c-96 0 -140 -93 -140 -183c0 -88 39 -181 140 -181c86 0 119 72 127 120zM225 540l69 171h93l-89 -171h-73z" />
    <glyph glyph-name="Ccircumflex" unicode="&#x108;" horiz-adv-x="702" 
d="M586 252l96 -19c-27 -128 -132 -250 -308 -250c-220 0 -337 170 -337 370c0 197 124 370 337 370c163 0 264 -103 302 -227l-96 -20c-29 88 -93 166 -206 166c-152 0 -238 -136 -238 -289c0 -155 81 -289 238 -289c123 0 194 96 212 188zM206 764l130 171h75l130 -171
h-80l-87 119l-88 -119h-80z" />
    <glyph glyph-name="ccircumflex" unicode="&#x109;" horiz-adv-x="503" 
d="M390 179l89 -18c-11 -67 -76 -173 -216 -173c-160 0 -230 125 -230 252c0 128 78 254 230 254c138 0 201 -96 214 -167l-89 -16c-5 35 -34 112 -125 112c-96 0 -140 -93 -140 -183c0 -88 39 -181 140 -181c86 0 119 72 127 120zM95 540l130 171h75l130 -171h-80l-87 119
l-88 -119h-80z" />
    <glyph glyph-name="Cdotaccent" unicode="&#x10a;" horiz-adv-x="702" 
d="M586 252l96 -19c-27 -128 -132 -250 -308 -250c-220 0 -337 170 -337 370c0 197 124 370 337 370c163 0 264 -103 302 -227l-96 -20c-29 88 -93 166 -206 166c-152 0 -238 -136 -238 -289c0 -155 81 -289 238 -289c123 0 194 96 212 188zM324 795v105h100v-105h-100z" />
    <glyph glyph-name="cdotaccent" unicode="&#x10b;" horiz-adv-x="503" 
d="M390 179l89 -18c-11 -67 -76 -173 -216 -173c-160 0 -230 125 -230 252c0 128 78 254 230 254c138 0 201 -96 214 -167l-89 -16c-5 35 -34 112 -125 112c-96 0 -140 -93 -140 -183c0 -88 39 -181 140 -181c86 0 119 72 127 120zM213 571v105h100v-105h-100z" />
    <glyph glyph-name="Ccaron" unicode="&#x10c;" horiz-adv-x="702" 
d="M586 252l96 -19c-27 -128 -132 -250 -308 -250c-220 0 -337 170 -337 370c0 197 124 370 337 370c163 0 264 -103 302 -227l-96 -20c-29 88 -93 166 -206 166c-152 0 -238 -136 -238 -289c0 -155 81 -289 238 -289c123 0 194 96 212 188zM337 764l-130 171h80l88 -119
l87 119h80l-130 -171h-75z" />
    <glyph glyph-name="ccaron" unicode="&#x10d;" horiz-adv-x="503" 
d="M390 179l89 -18c-11 -67 -76 -173 -216 -173c-160 0 -230 125 -230 252c0 128 78 254 230 254c138 0 201 -96 214 -167l-89 -16c-5 35 -34 112 -125 112c-96 0 -140 -93 -140 -183c0 -88 39 -181 140 -181c86 0 119 72 127 120zM225 540l-130 171h80l88 -119l87 119h80
l-130 -171h-75z" />
    <glyph glyph-name="Dcaron" unicode="&#x10e;" horiz-adv-x="713" 
d="M172 81h128c207 0 276 126 276 272s-69 272 -276 272h-128v-544zM76 0v706h231c179 0 368 -87 368 -353c0 -267 -189 -353 -368 -353h-231zM307 764l-130 171h80l88 -119l87 119h80l-130 -171h-75z" />
    <glyph glyph-name="dcaron" unicode="&#x10f;" horiz-adv-x="573" 
d="M406 0v73c-19 -48 -87 -85 -151 -85c-170 0 -222 155 -222 252c0 106 58 254 226 254c62 0 123 -39 145 -83v295h88v-706h-86zM268 59c52 0 137 34 137 181s-85 183 -133 183c-103 0 -149 -93 -149 -182c0 -77 40 -182 145 -182zM538 536l36 171h89l-68 -171h-57z" />
    <glyph glyph-name="Dcroat" unicode="&#x110;" horiz-adv-x="731" 
d="M94 0v348h-76v62h76v296h231c179 0 368 -87 368 -353c0 -267 -189 -353 -368 -353h-231zM191 81h128c205 0 275 126 275 272s-70 272 -275 272h-128v-215h213v-62h-213v-267z" />
    <glyph glyph-name="dslash" unicode="&#x111;" horiz-adv-x="553" 
d="M257 566v59h147v81h88v-81h59v-59h-59v-566h-86v73c-19 -48 -87 -85 -151 -85c-170 0 -222 155 -222 252c0 106 58 254 226 254c62 0 123 -39 145 -83v155h-147zM268 59c52 0 137 34 137 181s-85 183 -133 183c-103 0 -149 -93 -149 -182c0 -77 40 -182 145 -182z" />
    <glyph glyph-name="Emacron" unicode="&#x112;" horiz-adv-x="595" 
d="M76 0v706h469v-81h-373v-220h360v-81h-360v-243h382v-81h-478zM169 816v73h301v-73h-301z" />
    <glyph glyph-name="emacron" unicode="&#x113;" horiz-adv-x="508" 
d="M383 160l85 -18c-13 -66 -88 -154 -202 -154c-162 0 -232 121 -232 252c0 132 76 254 221 254c140 0 220 -110 220 -256c0 -7 0 -15 -1 -19h-350c0 -80 42 -162 138 -162c77 0 110 57 121 103zM125 288h257c0 64 -42 137 -127 137c-84 0 -130 -62 -130 -137zM105 592v73
h301v-73h-301z" />
    <glyph glyph-name="Ebreve" unicode="&#x114;" horiz-adv-x="595" 
d="M76 0v706h469v-81h-373v-220h360v-81h-360v-243h382v-81h-478zM172 906v23h70v-23c0 -51 23 -90 78 -90s79 39 79 90v23h70v-23c0 -93 -65 -151 -149 -151s-148 58 -148 151z" />
    <glyph glyph-name="ebreve" unicode="&#x115;" horiz-adv-x="508" 
d="M383 160l85 -18c-13 -66 -88 -154 -202 -154c-162 0 -232 121 -232 252c0 132 76 254 221 254c140 0 220 -110 220 -256c0 -7 0 -15 -1 -19h-350c0 -80 42 -162 138 -162c77 0 110 57 121 103zM125 288h257c0 64 -42 137 -127 137c-84 0 -130 -62 -130 -137zM107 682v23
h70v-23c0 -51 23 -90 78 -90s79 39 79 90v23h70v-23c0 -93 -65 -151 -149 -151s-148 58 -148 151z" />
    <glyph glyph-name="Edotaccent" unicode="&#x116;" horiz-adv-x="595" 
d="M76 0v706h469v-81h-373v-220h360v-81h-360v-243h382v-81h-478zM269 795v105h100v-105h-100z" />
    <glyph glyph-name="edotaccent" unicode="&#x117;" horiz-adv-x="508" 
d="M383 160l85 -18c-13 -66 -88 -154 -202 -154c-162 0 -232 121 -232 252c0 132 76 254 221 254c140 0 220 -110 220 -256c0 -7 0 -15 -1 -19h-350c0 -80 42 -162 138 -162c77 0 110 57 121 103zM125 288h257c0 64 -42 137 -127 137c-84 0 -130 -62 -130 -137zM206 571v105
h100v-105h-100z" />
    <glyph glyph-name="Eogonek" unicode="&#x118;" horiz-adv-x="595" 
d="M558 -231h-32c-77 0 -140 63 -140 140c0 19 3 37 10 54c6 13 14 26 23 37h-343v706h469v-81h-373v-220h360v-81h-360v-243h382v-81h-33c-21 -1 -40 -10 -55 -26c-16 -18 -24 -40 -24 -65c0 -51 37 -91 84 -91h32v-49z" />
    <glyph glyph-name="eogonek" unicode="&#x119;" horiz-adv-x="508" 
d="M342 -231h-32c-77 0 -140 63 -140 140c0 19 3 37 10 54c5 12 12 23 19 33c-13 3 -26 7 -38 13c-87 42 -127 131 -127 231c0 132 76 254 221 254c140 0 220 -110 220 -256v-11c0 -3 0 -6 -1 -8h-350c0 -80 42 -162 138 -162c77 0 110 57 121 103l85 -18
c-13 -66 -89 -154 -201 -154c-6 -4 -12 -9 -17 -14c-16 -18 -24 -40 -24 -65c0 -51 37 -91 84 -91h32v-49zM125 288h257c0 64 -42 137 -127 137c-84 0 -130 -62 -130 -137z" />
    <glyph glyph-name="Ecaron" unicode="&#x11a;" horiz-adv-x="595" 
d="M76 0v706h469v-81h-373v-220h360v-81h-360v-243h382v-81h-478zM282 764l-130 171h80l88 -119l87 119h80l-130 -171h-75z" />
    <glyph glyph-name="ecaron" unicode="&#x11b;" horiz-adv-x="508" 
d="M383 160l85 -18c-13 -66 -88 -154 -202 -154c-162 0 -232 121 -232 252c0 132 76 254 221 254c140 0 220 -110 220 -256c0 -7 0 -15 -1 -19h-350c0 -80 42 -162 138 -162c77 0 110 57 121 103zM125 288h257c0 64 -42 137 -127 137c-84 0 -130 -62 -130 -137zM218 540
l-130 171h80l88 -119l87 119h80l-130 -171h-75z" />
    <glyph glyph-name="Gcircumflex" unicode="&#x11c;" horiz-adv-x="724" 
d="M586 0v102c-38 -68 -104 -119 -218 -119c-213 0 -332 168 -332 370c0 197 123 370 336 370c148 0 246 -84 291 -195l-96 -21c-33 76 -96 135 -195 135c-151 0 -237 -136 -237 -289c0 -155 80 -289 237 -289c97 0 207 59 212 240h-225v81h317v-385h-90zM203 764l130 171
h75l130 -171h-80l-87 119l-88 -119h-80z" />
    <glyph glyph-name="gcircumflex" unicode="&#x11d;" horiz-adv-x="548" 
d="M54 -65l94 17c5 -67 52 -116 120 -116c96 0 131 69 131 152v85c-21 -44 -87 -81 -148 -81c-153 0 -218 123 -218 249c0 96 49 253 225 253c60 0 123 -41 144 -86v74h85v-496c0 -136 -71 -221 -219 -221c-115 0 -201 67 -214 170zM263 63c53 0 137 36 137 179
c0 144 -81 181 -130 181c-110 0 -147 -104 -147 -179c0 -99 48 -181 140 -181zM120 540l130 171h75l130 -171h-80l-87 119l-88 -119h-80z" />
    <glyph glyph-name="Gbreve" unicode="&#x11e;" horiz-adv-x="724" 
d="M586 0v102c-38 -68 -104 -119 -218 -119c-213 0 -332 168 -332 370c0 197 123 370 336 370c148 0 246 -84 291 -195l-96 -21c-33 76 -96 135 -195 135c-151 0 -237 -136 -237 -289c0 -155 80 -289 237 -289c97 0 207 59 212 240h-225v81h317v-385h-90zM224 906v23h70v-23
c0 -51 23 -90 78 -90s79 39 79 90v23h70v-23c0 -93 -65 -151 -149 -151s-148 58 -148 151z" />
    <glyph glyph-name="gbreve" unicode="&#x11f;" horiz-adv-x="548" 
d="M54 -65l94 17c5 -67 52 -116 120 -116c96 0 131 69 131 152v85c-21 -44 -87 -81 -148 -81c-153 0 -218 123 -218 249c0 96 49 253 225 253c60 0 123 -41 144 -86v74h85v-496c0 -136 -71 -221 -219 -221c-115 0 -201 67 -214 170zM263 63c53 0 137 36 137 179
c0 144 -81 181 -130 181c-110 0 -147 -104 -147 -179c0 -99 48 -181 140 -181zM139 682v23h70v-23c0 -51 23 -90 78 -90s79 39 79 90v23h70v-23c0 -93 -65 -151 -149 -151s-148 58 -148 151z" />
    <glyph glyph-name="Gdotaccent" unicode="&#x120;" horiz-adv-x="724" 
d="M586 0v102c-38 -68 -104 -119 -218 -119c-213 0 -332 168 -332 370c0 197 123 370 336 370c148 0 246 -84 291 -195l-96 -21c-33 76 -96 135 -195 135c-151 0 -237 -136 -237 -289c0 -155 80 -289 237 -289c97 0 207 59 212 240h-225v81h317v-385h-90zM321 795v105h100
v-105h-100z" />
    <glyph glyph-name="gdotaccent" unicode="&#x121;" horiz-adv-x="548" 
d="M54 -65l94 17c5 -67 52 -116 120 -116c96 0 131 69 131 152v85c-21 -44 -87 -81 -148 -81c-153 0 -218 123 -218 249c0 96 49 253 225 253c60 0 123 -41 144 -86v74h85v-496c0 -136 -71 -221 -219 -221c-115 0 -201 67 -214 170zM263 63c53 0 137 36 137 179
c0 144 -81 181 -130 181c-110 0 -147 -104 -147 -179c0 -99 48 -181 140 -181zM238 571v105h100v-105h-100z" />
    <glyph glyph-name="uni0122" unicode="&#x122;" horiz-adv-x="724" 
d="M586 0v102c-38 -68 -104 -119 -218 -119c-213 0 -332 168 -332 370c0 197 123 370 336 370c148 0 246 -84 291 -195l-96 -21c-33 76 -96 135 -195 135c-151 0 -237 -136 -237 -289c0 -155 80 -289 237 -289c97 0 207 59 212 240h-225v81h317v-385h-90zM291 -227l37 172
h89l-69 -172h-57z" />
    <glyph glyph-name="uni0123" unicode="&#x123;" horiz-adv-x="548" 
d="M54 -65l94 17c5 -67 52 -116 120 -116c96 0 131 69 131 152v85c-21 -44 -87 -81 -148 -81c-153 0 -218 123 -218 249c0 96 49 253 225 253c60 0 123 -41 144 -86v74h85v-496c0 -136 -71 -221 -219 -221c-115 0 -201 67 -214 170zM263 63c53 0 137 36 137 179
c0 144 -81 181 -130 181c-110 0 -147 -104 -147 -179c0 -99 48 -181 140 -181zM244 540l70 171h58l-38 -171h-90z" />
    <glyph glyph-name="Hcircumflex" unicode="&#x124;" horiz-adv-x="722" 
d="M76 0v706h96v-300h376v300h98v-706h-98v325h-376v-325h-96zM191 764l130 171h75l130 -171h-80l-87 119l-88 -119h-80z" />
    <glyph glyph-name="hcircumflex" unicode="&#x125;" horiz-adv-x="523" 
d="M61 0v706h87v-304c10 39 68 92 152 92c48 0 97 -18 132 -65c31 -39 35 -79 35 -161v-268h-89v268c0 66 -3 96 -19 117c-12 17 -39 38 -84 38c-41 0 -70 -16 -93 -44c-27 -32 -33 -64 -33 -149v-230h-88zM-65 764l130 171h75l130 -171h-80l-87 119l-88 -119h-80z" />
    <glyph glyph-name="Hbar" unicode="&#x126;" horiz-adv-x="750" 
d="M14 522v62h76v122h96v-122h376v122h98v-122h76v-62h-76v-522h-98v325h-376v-325h-96v522h-76zM186 406h376v116h-376v-116z" />
    <glyph glyph-name="hbar" unicode="&#x127;" horiz-adv-x="523" 
d="M8 566v59h53v81h87v-81h147v-59h-147v-164c10 39 68 92 152 92c48 0 97 -18 132 -65c31 -39 35 -79 35 -161v-268h-89v268c0 66 -3 96 -19 117c-12 17 -39 38 -84 38c-41 0 -70 -16 -93 -44c-27 -32 -33 -64 -33 -149v-230h-88v566h-53z" />
    <glyph glyph-name="Itilde" unicode="&#x128;" horiz-adv-x="248" 
d="M76 0v706h96v-706h-96zM-32 785v85c21 19 52 36 83 36c27 0 51 -10 76 -19c21 -7 41 -16 60 -16c33 0 61 22 82 50v-85c-21 -20 -53 -37 -84 -37c-25 0 -48 9 -71 17s-43 18 -66 18c-32 0 -59 -21 -80 -49z" />
    <glyph glyph-name="itilde" unicode="&#x129;" horiz-adv-x="211" 
d="M61 0v482h89v-482h-89zM-46 561v85c21 19 52 36 83 36c27 0 51 -10 76 -19c21 -7 41 -16 60 -16c33 0 61 22 82 50v-85c-21 -20 -53 -37 -84 -37c-25 0 -48 9 -71 17s-43 18 -66 18c-32 0 -59 -21 -80 -49z" />
    <glyph glyph-name="Imacron" unicode="&#x12a;" horiz-adv-x="248" 
d="M76 0v706h96v-706h-96zM-27 816v73h301v-73h-301z" />
    <glyph glyph-name="imacron" unicode="&#x12b;" horiz-adv-x="211" 
d="M61 0v482h89v-482h-89zM-46 592v73h301v-73h-301z" />
    <glyph glyph-name="Ibreve" unicode="&#x12c;" horiz-adv-x="248" 
d="M76 0v706h96v-706h-96zM-24 906v23h70v-23c0 -51 23 -90 78 -90s79 39 79 90v23h70v-23c0 -93 -65 -151 -149 -151s-148 58 -148 151z" />
    <glyph glyph-name="ibreve" unicode="&#x12d;" horiz-adv-x="211" 
d="M61 0v482h89v-482h-89zM-44 682v23h70v-23c0 -51 23 -90 78 -90s79 39 79 90v23h70v-23c0 -93 -65 -151 -149 -151s-148 58 -148 151z" />
    <glyph glyph-name="Iogonek" unicode="&#x12e;" horiz-adv-x="248" 
d="M172 706v-706c-48 0 -86 -40 -86 -91s37 -91 84 -91h32v-49h-32c-77 0 -140 63 -140 140c0 41 17 79 46 103v694h96z" />
    <glyph glyph-name="iogonek" unicode="&#x12f;" horiz-adv-x="212" 
d="M151 482v-482c-48 0 -86 -40 -86 -91s37 -91 84 -91h32v-49h-32c-77 0 -140 63 -140 140c0 44 20 85 53 109v464h89zM62 607v99h89v-99h-89z" />
    <glyph glyph-name="Idot" unicode="&#x130;" horiz-adv-x="248" 
d="M76 0v706h96v-706h-96zM73 795v105h100v-105h-100z" />
    <glyph glyph-name="dotlessi" unicode="&#x131;" horiz-adv-x="211" 
d="M61 0v482h89v-482h-89z" />
    <glyph glyph-name="IJ" unicode="&#x132;" horiz-adv-x="809" 
d="M76 0v706h96v-706h-96zM260 218l99 18c0 -107 46 -174 142 -174c93 0 141 65 141 151v493h96v-489c0 -147 -93 -234 -236 -234c-140 0 -235 84 -242 235z" />
    <glyph glyph-name="ij" unicode="&#x133;" horiz-adv-x="423" 
d="M168 -229v75c13 -3 26 -4 37 -4c63 0 69 41 69 74v566h88v-569c0 -88 -20 -147 -132 -147c-25 0 -42 1 -62 5zM274 607v99h88v-99h-88zM61 0v482h89v-482h-89zM61 607v99h89v-99h-89z" />
    <glyph glyph-name="Jcircumflex" unicode="&#x134;" horiz-adv-x="560" 
d="M12 218l99 18c0 -107 46 -174 142 -174c93 0 141 65 141 151v493h96v-489c0 -147 -93 -234 -236 -234c-140 0 -235 84 -242 235zM275 764l130 171h75l130 -171h-80l-87 119l-88 -119h-80z" />
    <glyph glyph-name="jcircumflex" unicode="&#x135;" horiz-adv-x="216" 
d="M-35 540l104 171h80l104 -171h-74l-69 119l-71 -119h-74zM-39 -229v75c13 -3 26 -4 37 -4c63 0 69 41 69 74v566h88v-569c0 -88 -20 -147 -132 -147c-25 0 -42 1 -62 5z" />
    <glyph glyph-name="uni0136" unicode="&#x136;" horiz-adv-x="629" 
d="M76 0v706h96v-315l314 315h124l-336 -329l382 -377h-130l-354 352v-352h-96zM227 -227l37 172h89l-69 -172h-57z" />
    <glyph glyph-name="uni0137" unicode="&#x137;" horiz-adv-x="493" 
d="M61 0v706h89v-426l210 202h115l-232 -216l272 -266h-115l-250 239v-239h-89zM199 -227l37 172h89l-69 -172h-57z" />
    <glyph glyph-name="kgreenlandic" unicode="&#x138;" horiz-adv-x="493" 
d="M61 0v482h89v-204l210 204h115l-232 -219l272 -263h-115l-250 236v-236h-89z" />
    <glyph glyph-name="Lacute" unicode="&#x139;" horiz-adv-x="543" 
d="M76 0v706h96v-625h360v-81h-456zM87 764l69 171h93l-89 -171h-73z" />
    <glyph glyph-name="lacute" unicode="&#x13a;" horiz-adv-x="211" 
d="M61 0v706h89v-706h-89zM67 764l69 171h93l-89 -171h-73z" />
    <glyph glyph-name="uni013B" unicode="&#x13b;" horiz-adv-x="543" 
d="M76 0v706h96v-625h360v-81h-456zM227 -227l37 172h89l-69 -172h-57z" />
    <glyph glyph-name="uni013C" unicode="&#x13c;" horiz-adv-x="211" 
d="M61 0v706h89v-706h-89zM26 -227l37 172h89l-69 -172h-57z" />
    <glyph glyph-name="Lcaron" unicode="&#x13d;" horiz-adv-x="543" 
d="M76 0v706h96v-625h360v-81h-456zM218 536l36 171h89l-68 -171h-57z" />
    <glyph glyph-name="lcaron" unicode="&#x13e;" horiz-adv-x="231" 
d="M61 0v706h89v-706h-89zM196 536l36 171h89l-68 -171h-57z" />
    <glyph glyph-name="Ldot" unicode="&#x13f;" horiz-adv-x="543" 
d="M76 0v706h96v-625h360v-81h-456zM299 302v105h100v-105h-100z" />
    <glyph glyph-name="ldot" unicode="&#x140;" horiz-adv-x="304" 
d="M61 0v706h89v-706h-89zM208 302v105h100v-105h-100z" />
    <glyph glyph-name="Lslash" unicode="&#x141;" horiz-adv-x="556" 
d="M95 0v243l-78 -51v68l78 51v395h96v-330l208 138v-68l-208 -138v-227h336v-81h-432z" />
    <glyph glyph-name="lslash" unicode="&#x142;" horiz-adv-x="285" 
d="M99 0v317l-72 -49v66l72 49v323h89v-265l73 49v-66l-73 -49v-375h-89z" />
    <glyph glyph-name="Nacute" unicode="&#x143;" horiz-adv-x="755" 
d="M76 0v706h132l381 -610v610h90v-706h-139l-374 609v-609h-90zM341 764l69 171h93l-89 -171h-73z" />
    <glyph glyph-name="nacute" unicode="&#x144;" horiz-adv-x="521" 
d="M61 0v482h87v-78c10 39 66 90 150 90c47 0 98 -16 133 -63c31 -42 34 -80 34 -163v-268h-88v268c0 67 -4 95 -20 117c-11 17 -39 38 -84 38c-41 0 -69 -16 -92 -44c-27 -32 -31 -72 -31 -149v-230h-89zM225 540l69 171h93l-89 -171h-73z" />
    <glyph glyph-name="uni0145" unicode="&#x145;" horiz-adv-x="755" 
d="M76 0v706h132l381 -610v610h90v-706h-139l-374 609v-609h-90zM299 -227l37 172h89l-69 -172h-57z" />
    <glyph glyph-name="uni0146" unicode="&#x146;" horiz-adv-x="521" 
d="M61 0v482h87v-78c10 39 66 90 150 90c47 0 98 -16 133 -63c31 -42 34 -80 34 -163v-268h-88v268c0 67 -4 95 -20 117c-11 17 -39 38 -84 38c-41 0 -69 -16 -92 -44c-27 -32 -31 -72 -31 -149v-230h-89zM184 -227l37 172h89l-69 -172h-57z" />
    <glyph glyph-name="Ncaron" unicode="&#x147;" horiz-adv-x="755" 
d="M76 0v706h132l381 -610v610h90v-706h-139l-374 609v-609h-90zM339 764l-130 171h80l88 -119l87 119h80l-130 -171h-75z" />
    <glyph glyph-name="ncaron" unicode="&#x148;" horiz-adv-x="521" 
d="M61 0v482h87v-78c10 39 66 90 150 90c47 0 98 -16 133 -63c31 -42 34 -80 34 -163v-268h-88v268c0 67 -4 95 -20 117c-11 17 -39 38 -84 38c-41 0 -69 -16 -92 -44c-27 -32 -31 -72 -31 -149v-230h-89zM225 540l-130 171h80l88 -119l87 119h80l-130 -171h-75z" />
    <glyph glyph-name="napostrophe" unicode="&#x149;" horiz-adv-x="521" 
d="M61 0v482h87v-78c10 39 66 90 150 90c47 0 98 -16 133 -63c31 -42 34 -80 34 -163v-268h-88v268c0 67 -4 95 -20 117c-11 17 -39 38 -84 38c-41 0 -69 -16 -92 -44c-27 -32 -31 -72 -31 -149v-230h-89zM44 536l36 171h89l-68 -171h-57z" />
    <glyph glyph-name="Eng" unicode="&#x14a;" horiz-adv-x="755" 
d="M485 -229v75c13 -3 26 -4 37 -4c63 0 67 41 67 74v84h-49l-374 609v-609h-90v706h132l381 -610v610h90v-793c0 -88 -21 -147 -132 -147c-25 0 -42 1 -62 5z" />
    <glyph glyph-name="eng" unicode="&#x14b;" horiz-adv-x="521" 
d="M272 -229v75c13 -3 26 -4 37 -4c61 0 68 41 68 74v352c0 67 -4 95 -20 117c-11 17 -39 38 -84 38c-41 0 -69 -16 -92 -44c-27 -32 -31 -72 -31 -149v-230h-89v482h87v-78c10 39 66 90 150 90c47 0 98 -16 133 -63c31 -42 34 -80 34 -163v-355c0 -88 -20 -147 -132 -147
c-25 0 -41 1 -61 5z" />
    <glyph glyph-name="Omacron" unicode="&#x14c;" horiz-adv-x="745" 
d="M374 64c164 0 235 143 235 286c0 145 -71 292 -235 292c-165 0 -238 -147 -238 -292c0 -143 73 -286 238 -286zM374 -17c-235 0 -337 183 -337 367s102 373 337 373c233 0 334 -189 334 -373s-101 -367 -334 -367zM223 816v73h301v-73h-301z" />
    <glyph glyph-name="omacron" unicode="&#x14d;" horiz-adv-x="531" 
d="M266 59c96 0 141 94 141 181s-45 183 -141 183c-97 0 -143 -96 -143 -183s46 -181 143 -181zM266 -12c-152 0 -233 129 -233 252s81 254 233 254c150 0 232 -131 232 -254s-82 -252 -232 -252zM116 592v73h301v-73h-301z" />
    <glyph glyph-name="Obreve" unicode="&#x14e;" horiz-adv-x="745" 
d="M374 64c164 0 235 143 235 286c0 145 -71 292 -235 292c-165 0 -238 -147 -238 -292c0 -143 73 -286 238 -286zM374 -17c-235 0 -337 183 -337 367s102 373 337 373c233 0 334 -189 334 -373s-101 -367 -334 -367zM226 906v23h70v-23c0 -51 23 -90 78 -90s79 39 79 90v23
h70v-23c0 -93 -65 -151 -149 -151s-148 58 -148 151z" />
    <glyph glyph-name="obreve" unicode="&#x14f;" horiz-adv-x="531" 
d="M266 59c96 0 141 94 141 181s-45 183 -141 183c-97 0 -143 -96 -143 -183s46 -181 143 -181zM266 -12c-152 0 -233 129 -233 252s81 254 233 254c150 0 232 -131 232 -254s-82 -252 -232 -252zM118 682v23h70v-23c0 -51 23 -90 78 -90s79 39 79 90v23h70v-23
c0 -93 -65 -151 -149 -151s-148 58 -148 151z" />
    <glyph glyph-name="Ohungarumlaut" unicode="&#x150;" horiz-adv-x="745" 
d="M374 64c164 0 235 143 235 286c0 145 -71 292 -235 292c-165 0 -238 -147 -238 -292c0 -143 73 -286 238 -286zM374 -17c-235 0 -337 183 -337 367s102 373 337 373c233 0 334 -189 334 -373s-101 -367 -334 -367zM265 764l69 171h93l-89 -171h-73zM395 764l69 171h93
l-89 -171h-73z" />
    <glyph glyph-name="ohungarumlaut" unicode="&#x151;" horiz-adv-x="531" 
d="M266 59c96 0 141 94 141 181s-45 183 -141 183c-97 0 -143 -96 -143 -183s46 -181 143 -181zM266 -12c-152 0 -233 129 -233 252s81 254 233 254c150 0 232 -131 232 -254s-82 -252 -232 -252zM159 540l69 171h93l-89 -171h-73zM289 540l69 171h93l-89 -171h-73z" />
    <glyph glyph-name="OE" unicode="&#x152;" horiz-adv-x="948" 
d="M577 81h330v-81h-510c-237 0 -360 166 -360 352c0 187 123 354 360 354h502v-81h-322v-220h309v-81h-309v-243zM397 81h83v544h-83c-169 0 -261 -126 -261 -273c0 -145 92 -271 261 -271z" />
    <glyph glyph-name="oe" unicode="&#x153;" horiz-adv-x="882" 
d="M757 160l85 -18c-13 -64 -87 -154 -202 -154c-96 0 -155 42 -190 102c-37 -60 -99 -102 -184 -102c-152 0 -233 129 -233 252s81 254 233 254c85 0 147 -44 184 -104c35 61 94 104 179 104c140 0 220 -113 220 -256c0 -7 -1 -15 -1 -19h-350c0 -72 31 -162 138 -162
c77 0 110 57 121 103zM266 59c96 0 141 94 141 181s-45 183 -141 183c-97 0 -143 -96 -143 -183s46 -181 143 -181zM499 288h257c0 64 -42 137 -127 137c-84 0 -130 -63 -130 -137z" />
    <glyph glyph-name="Racute" unicode="&#x154;" horiz-adv-x="668" 
d="M76 0v706h293c153 0 234 -68 234 -185c0 -118 -79 -158 -116 -166c64 -13 112 -46 112 -135v-109c0 -36 5 -72 42 -111h-109c-27 32 -30 67 -30 98v106c0 83 -46 104 -123 104h-208v-308h-95zM171 389h201c120 0 134 85 134 126c0 65 -41 110 -141 110h-194v-236z
M296 764l69 171h93l-89 -171h-73z" />
    <glyph glyph-name="racute" unicode="&#x155;" horiz-adv-x="333" 
d="M61 0v482h87v-81c16 45 68 93 143 93c15 0 29 -2 34 -3v-89c-11 3 -22 4 -46 4c-52 0 -82 -24 -103 -55c-25 -33 -26 -81 -26 -133v-218h-89zM162 540l69 171h93l-89 -171h-73z" />
    <glyph glyph-name="uni0156" unicode="&#x156;" horiz-adv-x="668" 
d="M76 0v706h293c153 0 234 -68 234 -185c0 -118 -79 -158 -116 -166c64 -13 112 -46 112 -135v-109c0 -36 5 -72 42 -111h-109c-27 32 -30 67 -30 98v106c0 83 -46 104 -123 104h-208v-308h-95zM171 389h201c120 0 134 85 134 126c0 65 -41 110 -141 110h-194v-236z
M253 -227l37 172h89l-69 -172h-57z" />
    <glyph glyph-name="uni0157" unicode="&#x157;" horiz-adv-x="333" 
d="M61 0v482h87v-81c16 45 68 93 143 93c15 0 29 -2 34 -3v-89c-11 3 -22 4 -46 4c-52 0 -82 -24 -103 -55c-25 -33 -26 -81 -26 -133v-218h-89zM26 -227l37 172h89l-69 -172h-57z" />
    <glyph glyph-name="Rcaron" unicode="&#x158;" horiz-adv-x="668" 
d="M76 0v706h293c153 0 234 -68 234 -185c0 -118 -79 -158 -116 -166c64 -13 112 -46 112 -135v-109c0 -36 5 -72 42 -111h-109c-27 32 -30 67 -30 98v106c0 83 -46 104 -123 104h-208v-308h-95zM171 389h201c120 0 134 85 134 126c0 65 -41 110 -141 110h-194v-236z
M294 764l-130 171h80l88 -119l87 119h80l-130 -171h-75z" />
    <glyph glyph-name="rcaron" unicode="&#x159;" horiz-adv-x="333" 
d="M61 0v482h87v-81c16 45 68 93 143 93c15 0 29 -2 34 -3v-89c-11 3 -22 4 -46 4c-52 0 -82 -24 -103 -55c-25 -33 -26 -81 -26 -133v-218h-89zM162 540l-130 171h80l88 -119l87 119h80l-130 -171h-75z" />
    <glyph glyph-name="Sacute" unicode="&#x15a;" horiz-adv-x="626" 
d="M28 216l99 16c5 -115 92 -168 186 -168c115 0 184 56 184 128c0 80 -65 100 -140 116l-68 15c-123 27 -242 57 -242 197c0 123 106 203 267 203c167 0 244 -93 265 -202l-99 -18c-19 99 -86 139 -166 139c-91 0 -169 -37 -169 -122c0 -71 79 -89 160 -108l76 -17
c108 -24 215 -65 215 -198c0 -126 -114 -214 -285 -214c-143 0 -264 77 -283 233zM280 764l69 171h93l-89 -171h-73z" />
    <glyph glyph-name="sacute" unicode="&#x15b;" horiz-adv-x="470" 
d="M25 151l92 20c4 -68 42 -114 117 -114c60 0 114 24 114 79s-57 63 -93 71l-57 11c-60 11 -156 32 -156 138c0 68 63 138 193 138c92 0 173 -51 192 -151l-86 -17c-8 57 -33 99 -110 99c-73 0 -102 -39 -102 -68c0 -46 60 -61 100 -69l38 -7c77 -13 173 -36 173 -142
c0 -96 -94 -151 -206 -151c-139 0 -201 95 -209 163zM192 540l69 171h93l-89 -171h-73z" />
    <glyph glyph-name="Scircumflex" unicode="&#x15c;" horiz-adv-x="626" 
d="M28 216l99 16c5 -115 92 -168 186 -168c115 0 184 56 184 128c0 80 -65 100 -140 116l-68 15c-123 27 -242 57 -242 197c0 123 106 203 267 203c167 0 244 -93 265 -202l-99 -18c-19 99 -86 139 -166 139c-91 0 -169 -37 -169 -122c0 -71 79 -89 160 -108l76 -17
c108 -24 215 -65 215 -198c0 -126 -114 -214 -285 -214c-143 0 -264 77 -283 233zM147 764l130 171h75l130 -171h-80l-87 119l-88 -119h-80z" />
    <glyph glyph-name="scircumflex" unicode="&#x15d;" horiz-adv-x="470" 
d="M25 151l92 20c4 -68 42 -114 117 -114c60 0 114 24 114 79s-57 63 -93 71l-57 11c-60 11 -156 32 -156 138c0 68 63 138 193 138c92 0 173 -51 192 -151l-86 -17c-8 57 -33 99 -110 99c-73 0 -102 -39 -102 -68c0 -46 60 -61 100 -69l38 -7c77 -13 173 -36 173 -142
c0 -96 -94 -151 -206 -151c-139 0 -201 95 -209 163zM62 540l130 171h75l130 -171h-80l-87 119l-88 -119h-80z" />
    <glyph glyph-name="Scedilla" unicode="&#x15e;" horiz-adv-x="626" 
d="M285 -231v49h32c29 0 51 15 51 44c0 27 -22 41 -51 41h-32v81c-27 2 -52 7 -76 14c-95 28 -167 101 -181 218l99 16c5 -115 92 -168 186 -168c115 0 184 56 184 128c0 80 -65 100 -140 116l-68 15c-123 27 -242 57 -242 197c0 123 106 203 267 203
c167 0 244 -93 265 -202l-99 -18c-19 99 -86 139 -166 139c-91 0 -169 -37 -169 -122c0 -71 79 -89 160 -108l76 -17c108 -24 215 -65 215 -198c0 -94 -64 -168 -169 -198c-27 -9 -57 -14 -90 -15v-33c51 -4 87 -36 87 -89c0 -60 -47 -93 -104 -93h-35z" />
    <glyph glyph-name="scedilla" unicode="&#x15f;" horiz-adv-x="470" 
d="M205 -231v49h32c29 0 51 15 51 44c0 27 -22 41 -51 41h-32v86c-23 3 -43 8 -61 15c-76 32 -113 94 -119 147l92 20c4 -68 42 -114 117 -114c60 0 114 24 114 79s-57 63 -93 71l-57 11c-60 11 -156 32 -156 138c0 68 63 138 193 138c92 0 173 -51 192 -151l-86 -17
c-8 57 -33 99 -110 99c-73 0 -102 -39 -102 -68c0 -46 60 -61 100 -69l38 -7c77 -13 173 -36 173 -142c0 -71 -53 -121 -127 -141c-18 -5 -37 -8 -56 -9v-38c51 -4 87 -36 87 -89c0 -60 -47 -93 -104 -93h-35z" />
    <glyph glyph-name="Scaron" unicode="&#x160;" horiz-adv-x="626" 
d="M28 216l99 16c5 -115 92 -168 186 -168c115 0 184 56 184 128c0 80 -65 100 -140 116l-68 15c-123 27 -242 57 -242 197c0 123 106 203 267 203c167 0 244 -93 265 -202l-99 -18c-19 99 -86 139 -166 139c-91 0 -169 -37 -169 -122c0 -71 79 -89 160 -108l76 -17
c108 -24 215 -65 215 -198c0 -126 -114 -214 -285 -214c-143 0 -264 77 -283 233zM278 764l-130 171h80l88 -119l87 119h80l-130 -171h-75z" />
    <glyph glyph-name="scaron" unicode="&#x161;" horiz-adv-x="470" 
d="M25 151l92 20c4 -68 42 -114 117 -114c60 0 114 24 114 79s-57 63 -93 71l-57 11c-60 11 -156 32 -156 138c0 68 63 138 193 138c92 0 173 -51 192 -151l-86 -17c-8 57 -33 99 -110 99c-73 0 -102 -39 -102 -68c0 -46 60 -61 100 -69l38 -7c77 -13 173 -36 173 -142
c0 -96 -94 -151 -206 -151c-139 0 -201 95 -209 163zM192 540l-130 171h80l88 -119l87 119h80l-130 -171h-75z" />
    <glyph glyph-name="uni0162" unicode="&#x162;" horiz-adv-x="566" 
d="M256 -231v49h32c29 0 51 15 51 44c0 27 -22 41 -51 41h-32v97h-22v625h-224v81h546v-81h-225v-625h-23v-49c51 -4 87 -36 87 -89c0 -60 -47 -93 -104 -93h-35z" />
    <glyph glyph-name="uni0163" unicode="&#x163;" horiz-adv-x="311" 
d="M163 -231v49h32c29 0 51 15 51 44c0 27 -22 41 -51 41h-32v100c-11 4 -21 10 -30 17c-21 19 -32 48 -32 87v304h-93v71h93v159h89v-159h102v-71h-102v-283c0 -47 19 -61 54 -61c15 0 31 2 48 5v-71c-15 -3 -38 -8 -69 -8h-8v-42c51 -4 87 -36 87 -89
c0 -60 -47 -93 -104 -93h-35z" />
    <glyph glyph-name="Tcaron" unicode="&#x164;" horiz-adv-x="566" 
d="M234 0v625h-224v81h546v-81h-225v-625h-97zM243 764l-130 171h80l88 -119l87 119h80l-130 -171h-75z" />
    <glyph glyph-name="tcaron" unicode="&#x165;" horiz-adv-x="311" 
d="M101 107v304h-93v71h93v159h89v-159h102v-71h-102v-283c0 -47 19 -61 54 -61c15 0 31 2 48 5v-71c-15 -3 -38 -8 -69 -8c-76 0 -122 35 -122 114zM236 536l36 171h89l-68 -171h-57z" />
    <glyph glyph-name="Tbar" unicode="&#x166;" horiz-adv-x="572" 
d="M92 435v62h145v128h-224v81h546v-81h-225v-128h147v-62h-147v-435h-97v435h-145z" />
    <glyph glyph-name="tbar" unicode="&#x167;" horiz-adv-x="317" 
d="M28 245v60h77v106h-93v71h93v159h89v-159h102v-71h-102v-106h90v-60h-90v-117c0 -47 19 -61 54 -61c15 0 31 2 48 5v-71c-15 -3 -38 -8 -69 -8c-76 0 -122 35 -122 114v138h-77z" />
    <glyph glyph-name="Utilde" unicode="&#x168;" horiz-adv-x="700" 
d="M70 247v459h96v-459c0 -112 69 -183 184 -183c116 0 183 66 183 183v459h97v-459c0 -176 -118 -264 -280 -264c-184 0 -280 113 -280 264zM194 785v85c21 19 52 36 83 36c27 0 51 -10 76 -19c21 -7 41 -16 60 -16c33 0 61 22 82 50v-85c-21 -20 -53 -37 -84 -37
c-25 0 -48 9 -71 17s-43 18 -66 18c-32 0 -59 -21 -80 -49z" />
    <glyph glyph-name="utilde" unicode="&#x169;" horiz-adv-x="519" 
d="M56 214v268h89v-268c0 -68 4 -96 20 -117c11 -17 37 -38 84 -38c41 0 66 16 89 44c27 33 32 64 32 149v230h88v-482h-87v78c-10 -39 -64 -90 -147 -90c-47 0 -98 16 -133 63c-31 41 -35 80 -35 163zM107 561v85c21 19 52 36 83 36c27 0 51 -10 76 -19
c21 -7 41 -16 60 -16c33 0 61 22 82 50v-85c-21 -20 -53 -37 -84 -37c-25 0 -48 9 -71 17s-43 18 -66 18c-32 0 -59 -21 -80 -49z" />
    <glyph glyph-name="Umacron" unicode="&#x16a;" horiz-adv-x="700" 
d="M70 247v459h96v-459c0 -112 69 -183 184 -183c116 0 183 66 183 183v459h97v-459c0 -176 -118 -264 -280 -264c-184 0 -280 113 -280 264zM199 816v73h301v-73h-301z" />
    <glyph glyph-name="umacron" unicode="&#x16b;" horiz-adv-x="519" 
d="M56 214v268h89v-268c0 -68 4 -96 20 -117c11 -17 37 -38 84 -38c41 0 66 16 89 44c27 33 32 64 32 149v230h88v-482h-87v78c-10 -39 -64 -90 -147 -90c-47 0 -98 16 -133 63c-31 41 -35 80 -35 163zM107 592v73h301v-73h-301z" />
    <glyph glyph-name="Ubreve" unicode="&#x16c;" horiz-adv-x="700" 
d="M70 247v459h96v-459c0 -112 69 -183 184 -183c116 0 183 66 183 183v459h97v-459c0 -176 -118 -264 -280 -264c-184 0 -280 113 -280 264zM202 906v23h70v-23c0 -51 23 -90 78 -90s79 39 79 90v23h70v-23c0 -93 -65 -151 -149 -151s-148 58 -148 151z" />
    <glyph glyph-name="ubreve" unicode="&#x16d;" horiz-adv-x="519" 
d="M56 214v268h89v-268c0 -68 4 -96 20 -117c11 -17 37 -38 84 -38c41 0 66 16 89 44c27 33 32 64 32 149v230h88v-482h-87v78c-10 -39 -64 -90 -147 -90c-47 0 -98 16 -133 63c-31 41 -35 80 -35 163zM109 682v23h70v-23c0 -51 23 -90 78 -90s79 39 79 90v23h70v-23
c0 -93 -65 -151 -149 -151s-148 58 -148 151z" />
    <glyph glyph-name="Uring" unicode="&#x16e;" horiz-adv-x="700" 
d="M70 247v459h96v-459c0 -112 69 -183 184 -183c116 0 183 66 183 183v459h97v-459c0 -176 -118 -264 -280 -264c-184 0 -280 113 -280 264zM350 802c29 0 53 24 53 53c0 31 -24 54 -53 54c-31 0 -54 -23 -54 -54c0 -29 23 -53 54 -53zM350 758c-54 0 -98 44 -98 97
c0 55 43 97 98 97c53 0 97 -43 97 -97c0 -53 -44 -97 -97 -97z" />
    <glyph glyph-name="uring" unicode="&#x16f;" horiz-adv-x="519" 
d="M56 214v268h89v-268c0 -68 4 -96 20 -117c11 -17 37 -38 84 -38c41 0 66 16 89 44c27 33 32 64 32 149v230h88v-482h-87v78c-10 -39 -64 -90 -147 -90c-47 0 -98 16 -133 63c-31 41 -35 80 -35 163zM258 578c29 0 53 24 53 53c0 31 -24 54 -53 54c-31 0 -54 -23 -54 -54
c0 -29 23 -53 54 -53zM258 534c-54 0 -98 44 -98 97c0 55 43 97 98 97c53 0 97 -43 97 -97c0 -53 -44 -97 -97 -97z" />
    <glyph glyph-name="Uhungarumlaut" unicode="&#x170;" horiz-adv-x="700" 
d="M70 247v459h96v-459c0 -112 69 -183 184 -183c116 0 183 66 183 183v459h97v-459c0 -176 -118 -264 -280 -264c-184 0 -280 113 -280 264zM251 764l69 171h93l-89 -171h-73zM381 764l69 171h93l-89 -171h-73z" />
    <glyph glyph-name="uhungarumlaut" unicode="&#x171;" horiz-adv-x="519" 
d="M56 214v268h89v-268c0 -68 4 -96 20 -117c11 -17 37 -38 84 -38c41 0 66 16 89 44c27 33 32 64 32 149v230h88v-482h-87v78c-10 -39 -64 -90 -147 -90c-47 0 -98 16 -133 63c-31 41 -35 80 -35 163zM150 540l69 171h93l-89 -171h-73zM280 540l69 171h93l-89 -171h-73z
" />
    <glyph glyph-name="Uogonek" unicode="&#x172;" horiz-adv-x="700" 
d="M438 -231h-32c-77 0 -140 63 -140 140c0 19 3 37 10 54c4 9 8 17 13 24c-22 3 -42 9 -61 16c-103 40 -158 130 -158 244v459h96v-459c0 -112 69 -183 184 -183c116 0 183 66 183 183v459h97v-459c0 -132 -67 -215 -168 -247c-32 -11 -67 -16 -106 -17c-3 -3 -7 -6 -10 -9
c-16 -18 -24 -40 -24 -65c0 -51 37 -91 84 -91h32v-49z" />
    <glyph glyph-name="uogonek" unicode="&#x173;" horiz-adv-x="519" 
d="M372 -91c0 -51 37 -91 84 -91h32v-49h-32c-77 0 -140 63 -140 140c0 45 20 86 55 111v58c-10 -39 -64 -90 -147 -90c-47 0 -98 16 -133 63c-31 41 -35 80 -35 163v268h89v-268c0 -68 4 -96 20 -117c11 -17 37 -38 84 -38c41 0 66 16 89 44c27 33 32 64 32 149v230h88
v-482c-48 0 -86 -40 -86 -91z" />
    <glyph glyph-name="Wcircumflex" unicode="&#x174;" horiz-adv-x="969" 
d="M202 0l-194 706h96l164 -611l150 611h134l150 -611l163 611h97l-195 -706h-133l-149 620l-149 -620h-134zM316 764l130 171h75l130 -171h-80l-87 119l-88 -119h-80z" />
    <glyph glyph-name="wcircumflex" unicode="&#x175;" horiz-adv-x="745" 
d="M160 0l-152 482h89l116 -380l105 380h109l107 -380l116 380h88l-153 -482h-105l-108 382l-106 -382h-106zM205 540l130 171h75l130 -171h-80l-87 119l-88 -119h-80z" />
    <glyph glyph-name="Ycircumflex" unicode="&#x176;" horiz-adv-x="634" 
d="M268 0v328l-262 378h112l200 -301l205 301h108l-267 -378v-328h-96zM150 764l130 171h75l130 -171h-80l-87 119l-88 -119h-80z" />
    <glyph glyph-name="ycircumflex" unicode="&#x177;" horiz-adv-x="464" 
d="M32 -229v77c15 -4 27 -6 38 -6c43 0 71 13 84 50l36 98l-180 492h92l134 -377l133 377h89l-226 -624c-23 -61 -69 -92 -140 -92c-16 0 -44 2 -60 5zM68 540l130 171h75l130 -171h-80l-87 119l-88 -119h-80z" />
    <glyph glyph-name="Ydieresis" unicode="&#x178;" horiz-adv-x="634" 
d="M268 0v328l-262 378h112l200 -301l205 301h108l-267 -378v-328h-96zM169 795v105h101v-105h-101zM369 795v105h101v-105h-101z" />
    <glyph glyph-name="Zacute" unicode="&#x179;" horiz-adv-x="599" 
d="M25 0v93l412 531h-396v82h515v-82l-424 -542h448v-82h-555zM274 764l69 171h93l-89 -171h-73z" />
    <glyph glyph-name="zacute" unicode="&#x17a;" horiz-adv-x="441" 
d="M21 0v80l278 331h-254v71h364v-68l-286 -342h292v-72h-394zM181 540l69 171h93l-89 -171h-73z" />
    <glyph glyph-name="Zdotaccent" unicode="&#x17b;" horiz-adv-x="599" 
d="M25 0v93l412 531h-396v82h515v-82l-424 -542h448v-82h-555zM259 795v105h100v-105h-100z" />
    <glyph glyph-name="zdotaccent" unicode="&#x17c;" horiz-adv-x="441" 
d="M21 0v80l278 331h-254v71h364v-68l-286 -342h292v-72h-394zM169 571v105h100v-105h-100z" />
    <glyph glyph-name="Zcaron" unicode="&#x17d;" horiz-adv-x="599" 
d="M25 0v93l412 531h-396v82h515v-82l-424 -542h448v-82h-555zM272 764l-130 171h80l88 -119l87 119h80l-130 -171h-75z" />
    <glyph glyph-name="zcaron" unicode="&#x17e;" horiz-adv-x="441" 
d="M21 0v80l278 331h-254v71h364v-68l-286 -342h292v-72h-394zM181 540l-130 171h80l88 -119l87 119h80l-130 -171h-75z" />
    <glyph glyph-name="longs" unicode="&#x17f;" horiz-adv-x="211" 
d="M61 0v573c0 85 35 144 128 144c23 0 43 0 63 -5v-72c-13 1 -28 3 -40 3c-37 0 -62 -17 -62 -80v-563h-89z" />
    <glyph glyph-name="uni018F" unicode="&#x18f;" horiz-adv-x="604" 
d="M141 471l-94 27c16 95 92 226 252 226c186 0 265 -148 265 -369c0 -203 -92 -372 -263 -372c-168 0 -263 145 -263 345c0 15 1 30 2 41h421c0 136 -38 273 -161 273c-93 0 -143 -84 -159 -171zM459 288h-314c0 -96 55 -224 156 -224c98 0 158 114 158 224z" />
    <glyph glyph-name="uni0190" unicode="&#x190;" horiz-adv-x="622" 
d="M500 230l99 -13c-13 -154 -140 -234 -284 -234c-183 0 -276 102 -276 215c0 79 45 149 150 174c-88 20 -133 87 -133 159c0 121 109 192 257 192c197 0 257 -120 273 -203l-98 -16c-14 57 -44 139 -175 139c-92 0 -159 -43 -159 -114s59 -120 159 -120h101v-82h-103
c-116 0 -174 -49 -174 -128c0 -72 67 -136 177 -136c104 0 178 52 186 167z" />
    <glyph glyph-name="florin" unicode="&#x192;" horiz-adv-x="337" 
d="M-31 -222l8 71c15 -5 27 -6 36 -6c45 0 46 31 51 72l53 496h-73l7 71h73l12 117c8 63 40 118 114 118c25 0 47 -5 70 -12l-7 -70c-15 5 -27 5 -36 5c-43 0 -50 -41 -53 -78l-8 -80h86l-7 -71h-87l-55 -527c-5 -62 -41 -118 -113 -118c-25 0 -48 5 -71 12z" />
    <glyph glyph-name="uni0194" unicode="&#x194;" horiz-adv-x="598" 
d="M296 -224c-80 0 -128 53 -128 122c0 54 16 95 74 220l-260 588h99l217 -498l224 498h95l-267 -583c56 -129 74 -166 74 -224c0 -71 -48 -123 -128 -123zM296 -150c25 0 40 23 40 54c0 35 -15 72 -40 133c-25 -61 -40 -98 -40 -133c0 -31 15 -54 40 -54z" />
    <glyph glyph-name="uni0197" unicode="&#x197;" horiz-adv-x="264" 
d="M14 332v66h70v308h96v-308h69v-66h-69v-332h-96v332h-70z" />
    <glyph glyph-name="uni019D" unicode="&#x19d;" horiz-adv-x="754" 
d="M76 -84v790h131l381 -610v610h90v-706h-137l-375 610v-697c0 -88 -21 -147 -132 -147c-25 0 -42 1 -62 5v75c13 -3 26 -4 37 -4c63 0 67 41 67 74z" />
    <glyph glyph-name="uni01B5" unicode="&#x1b5;" horiz-adv-x="610" 
d="M69 331v62h193l180 231h-396v82h515v-82l-181 -231h158v-62h-206l-195 -249h448v-82h-555v93l184 238h-145z" />
    <glyph glyph-name="uni01B6" unicode="&#x1b6;" horiz-adv-x="448" 
d="M50 218v58h139l114 135h-254v71h364v-68l-116 -138h94v-58h-142l-122 -146h292v-72h-394v80l116 138h-91z" />
    <glyph glyph-name="uni01CD" unicode="&#x1cd;" horiz-adv-x="671" 
d="M1 0l273 706h124l271 -706h-104l-78 210h-304l-78 -210h-104zM212 289h246l-123 334zM298 764l-130 171h80l88 -119l87 119h80l-130 -171h-75z" />
    <glyph glyph-name="uni01CE" unicode="&#x1ce;" horiz-adv-x="493" 
d="M442 0h-89c-1 5 -7 37 -7 70c-28 -60 -86 -82 -150 -82c-104 0 -164 65 -164 140c0 115 90 139 196 158c13 3 48 7 63 10c55 10 58 29 58 56c0 26 -18 73 -101 73c-64 0 -107 -31 -112 -102l-90 17c8 45 28 80 60 107c37 31 85 47 142 47c105 0 187 -39 187 -159v-220
c0 -67 6 -110 7 -115zM123 132c0 -44 41 -75 86 -75s137 21 137 126v63c-13 -7 -44 -11 -73 -18l-33 -6c-62 -14 -117 -24 -117 -90zM210 540l-130 171h80l88 -119l87 119h80l-130 -171h-75z" />
    <glyph glyph-name="uni01CF" unicode="&#x1cf;" horiz-adv-x="248" 
d="M76 0v706h96v-706h-96zM86 764l-130 171h80l88 -119l87 119h80l-130 -171h-75z" />
    <glyph glyph-name="uni01D0" unicode="&#x1d0;" horiz-adv-x="211" 
d="M61 0v482h89v-482h-89zM67 540l-130 171h80l88 -119l87 119h80l-130 -171h-75z" />
    <glyph glyph-name="uni01D1" unicode="&#x1d1;" horiz-adv-x="745" 
d="M374 64c164 0 235 143 235 286c0 145 -71 292 -235 292c-165 0 -238 -147 -238 -292c0 -143 73 -286 238 -286zM374 -17c-235 0 -337 183 -337 367s102 373 337 373c233 0 334 -189 334 -373s-101 -367 -334 -367zM336 764l-130 171h80l88 -119l87 119h80l-130 -171h-75z
" />
    <glyph glyph-name="uni01D2" unicode="&#x1d2;" horiz-adv-x="531" 
d="M266 59c96 0 141 94 141 181s-45 183 -141 183c-97 0 -143 -96 -143 -183s46 -181 143 -181zM266 -12c-152 0 -233 129 -233 252s81 254 233 254c150 0 232 -131 232 -254s-82 -252 -232 -252zM229 540l-130 171h80l88 -119l87 119h80l-130 -171h-75z" />
    <glyph glyph-name="uni01D3" unicode="&#x1d3;" horiz-adv-x="700" 
d="M70 247v459h96v-459c0 -112 69 -183 184 -183c116 0 183 66 183 183v459h97v-459c0 -176 -118 -264 -280 -264c-184 0 -280 113 -280 264zM312 764l-130 171h80l88 -119l87 119h80l-130 -171h-75z" />
    <glyph glyph-name="uni01D4" unicode="&#x1d4;" horiz-adv-x="519" 
d="M56 214v268h89v-268c0 -68 4 -96 20 -117c11 -17 37 -38 84 -38c41 0 66 16 89 44c27 33 32 64 32 149v230h88v-482h-87v78c-10 -39 -64 -90 -147 -90c-47 0 -98 16 -133 63c-31 41 -35 80 -35 163zM220 540l-130 171h80l88 -119l87 119h80l-130 -171h-75z" />
    <glyph glyph-name="Gcaron" unicode="&#x1e6;" horiz-adv-x="724" 
d="M586 0v102c-38 -68 -104 -119 -218 -119c-213 0 -332 168 -332 370c0 197 123 370 336 370c148 0 246 -84 291 -195l-96 -21c-33 76 -96 135 -195 135c-151 0 -237 -136 -237 -289c0 -155 80 -289 237 -289c97 0 207 59 212 240h-225v81h317v-385h-90zM334 764l-130 171
h80l88 -119l87 119h80l-130 -171h-75z" />
    <glyph glyph-name="gcaron" unicode="&#x1e7;" horiz-adv-x="548" 
d="M54 -65l94 17c5 -67 52 -116 120 -116c96 0 131 69 131 152v85c-21 -44 -87 -81 -148 -81c-153 0 -218 123 -218 249c0 96 49 253 225 253c60 0 123 -41 144 -86v74h85v-496c0 -136 -71 -221 -219 -221c-115 0 -201 67 -214 170zM263 63c53 0 137 36 137 179
c0 144 -81 181 -130 181c-110 0 -147 -104 -147 -179c0 -99 48 -181 140 -181zM250 540l-130 171h80l88 -119l87 119h80l-130 -171h-75z" />
    <glyph glyph-name="uni01E8" unicode="&#x1e8;" horiz-adv-x="629" 
d="M76 0v706h96v-315l314 315h124l-336 -329l382 -377h-130l-354 352v-352h-96zM277 764l-130 171h80l88 -119l87 119h80l-130 -171h-75z" />
    <glyph glyph-name="uni01E9" unicode="&#x1e9;" horiz-adv-x="493" 
d="M61 0v706h89v-426l210 202h115l-232 -216l272 -266h-115l-250 239v-239h-89zM67 764l-130 171h80l88 -119l87 119h80l-130 -171h-75z" />
    <glyph glyph-name="uni01EA" unicode="&#x1ea;" horiz-adv-x="745" 
d="M461 -231h-32c-77 0 -140 63 -140 140c0 19 3 37 10 54c4 9 8 17 13 25c-33 5 -63 13 -90 26c-127 64 -185 195 -185 336c0 184 102 373 337 373c233 0 334 -189 334 -373c0 -140 -57 -272 -184 -336c-41 -20 -89 -30 -145 -31c-3 -3 -7 -6 -10 -9
c-16 -18 -24 -40 -24 -65c0 -51 37 -91 84 -91h32v-49zM374 64c164 0 235 143 235 286c0 145 -71 292 -235 292c-165 0 -238 -147 -238 -292c0 -143 73 -286 238 -286z" />
    <glyph glyph-name="uni01EB" unicode="&#x1eb;" horiz-adv-x="531" 
d="M353 -231h-32c-77 0 -140 63 -140 140c0 19 3 37 10 54c5 11 11 22 18 31c-15 4 -30 9 -44 16c-86 44 -132 137 -132 230c0 123 81 254 233 254c150 0 232 -131 232 -254c0 -93 -46 -186 -133 -230c-25 -13 -54 -20 -87 -22c-6 -4 -12 -9 -17 -14
c-16 -18 -24 -40 -24 -65c0 -51 37 -91 84 -91h32v-49zM266 59c96 0 141 94 141 181s-45 183 -141 183c-97 0 -143 -96 -143 -183s46 -181 143 -181z" />
    <glyph glyph-name="uni01F8" unicode="&#x1f8;" horiz-adv-x="755" 
d="M76 0v706h132l381 -610v610h90v-706h-139l-374 609v-609h-90zM342 764l-89 171h93l69 -171h-73z" />
    <glyph glyph-name="uni01F9" unicode="&#x1f9;" horiz-adv-x="521" 
d="M61 0v482h87v-78c10 39 66 90 150 90c47 0 98 -16 133 -63c31 -42 34 -80 34 -163v-268h-88v268c0 67 -4 95 -20 117c-11 17 -39 38 -84 38c-41 0 -69 -16 -92 -44c-27 -32 -31 -72 -31 -149v-230h-89zM228 540l-89 171h93l69 -171h-73z" />
    <glyph glyph-name="Aringacute" unicode="&#x1fa;" horiz-adv-x="671" 
d="M1 0l272 703c-23 16 -36 42 -36 73c0 54 44 98 97 98s97 -44 97 -98c0 -28 -13 -54 -33 -71l271 -705h-104l-78 210h-304l-78 -210h-104zM212 289h246l-123 334zM334 723c31 0 54 24 54 53c0 31 -23 54 -54 54s-54 -23 -54 -54c0 -29 23 -53 54 -53zM302 905l105 133h93
l-126 -133h-72z" />
    <glyph glyph-name="aringacute" unicode="&#x1fb;" horiz-adv-x="493" 
d="M245 578c29 0 53 24 53 53c0 31 -24 54 -53 54c-31 0 -54 -23 -54 -54c0 -29 23 -53 54 -53zM245 534c-54 0 -98 44 -98 97c0 55 43 97 98 97c53 0 97 -43 97 -97c0 -53 -44 -97 -97 -97zM202 760l105 132h93l-127 -132h-71zM442 0h-89c-1 5 -7 37 -7 70
c-28 -60 -86 -82 -150 -82c-104 0 -164 65 -164 140c0 115 90 139 196 158c13 3 48 7 63 10c55 10 58 29 58 56c0 26 -18 73 -101 73c-64 0 -107 -31 -112 -102l-90 17c7 37 22 66 47 94c36 39 92 60 155 60c105 0 187 -39 187 -159v-220c0 -67 6 -110 7 -115zM123 132
c0 -44 41 -75 86 -75s137 21 137 126v63c-13 -7 -44 -11 -73 -18l-33 -6c-62 -14 -117 -24 -117 -90z" />
    <glyph glyph-name="AEacute" unicode="&#x1fc;" horiz-adv-x="936" 
d="M-14 0l435 706h465v-81h-321v-220h308v-81h-308v-243h330v-81h-427v250h-219l-150 -250h-113zM300 333h168v281zM617 764l69 171h93l-89 -171h-73z" />
    <glyph glyph-name="aeacute" unicode="&#x1fd;" horiz-adv-x="812" 
d="M136 323l-90 17c7 37 22 66 47 94c36 39 92 60 153 60c79 0 130 -29 158 -72c37 44 89 72 157 72c141 0 218 -117 218 -254c0 -8 -1 -16 -1 -21h-345c0 -91 37 -162 135 -162c76 0 108 57 119 103l85 -18c-16 -72 -94 -154 -203 -154c-84 0 -146 41 -182 102
c-35 -69 -95 -102 -191 -102c-104 0 -164 74 -164 147c0 100 81 153 254 153h59v40c0 46 -29 97 -99 97c-63 0 -105 -31 -110 -102zM342 183v36h-63c-115 0 -156 -28 -156 -80c0 -51 39 -81 88 -81c50 0 131 26 131 125zM434 288h252c0 64 -43 137 -125 137
c-81 0 -127 -63 -127 -137zM365 540l69 171h93l-89 -171h-73z" />
    <glyph glyph-name="Oslashacute" unicode="&#x1fe;" horiz-adv-x="751" 
d="M40 0l81 97c-56 69 -81 161 -81 253c0 184 102 373 337 373c88 0 158 -27 210 -71l45 54h79l-82 -98c56 -71 82 -165 82 -258c0 -184 -101 -367 -334 -367c-92 0 -161 27 -214 71l-45 -54h-78zM377 64c164 0 235 143 235 286c0 65 -15 131 -46 184l-345 -411
c39 -36 88 -59 156 -59zM139 350c0 -64 13 -128 44 -179l345 412c-37 36 -87 59 -151 59c-165 0 -238 -147 -238 -292zM341 764l69 171h93l-89 -171h-73z" />
    <glyph glyph-name="oslashacute" unicode="&#x1ff;" horiz-adv-x="536" 
d="M23 0l66 75c-36 47 -53 106 -53 165c0 123 81 254 233 254c56 0 104 -18 140 -49l32 37h71l-65 -76c35 -47 54 -107 54 -166c0 -123 -82 -252 -232 -252c-60 0 -106 18 -143 49l-32 -37h-71zM147 142l211 244c-23 23 -53 37 -89 37c-97 0 -143 -96 -143 -183
c0 -35 6 -69 21 -98zM388 339l-211 -243c23 -23 53 -37 92 -37c96 0 141 94 141 181c0 35 -7 68 -22 99zM231 540l69 171h93l-89 -171h-73z" />
    <glyph glyph-name="uni0218" unicode="&#x218;" horiz-adv-x="626" 
d="M28 216l99 16c5 -115 92 -168 186 -168c115 0 184 56 184 128c0 80 -65 100 -140 116l-68 15c-123 27 -242 57 -242 197c0 123 106 203 267 203c167 0 244 -93 265 -202l-99 -18c-19 99 -86 139 -166 139c-91 0 -169 -37 -169 -122c0 -71 79 -89 160 -108l76 -17
c108 -24 215 -65 215 -198c0 -126 -114 -214 -285 -214c-143 0 -264 77 -283 233zM233 -227l37 172h89l-69 -172h-57z" />
    <glyph glyph-name="uni0219" unicode="&#x219;" horiz-adv-x="470" 
d="M25 151l92 20c4 -68 42 -114 117 -114c60 0 114 24 114 79s-57 63 -93 71l-57 11c-60 11 -156 32 -156 138c0 68 63 138 193 138c92 0 173 -51 192 -151l-86 -17c-8 57 -33 99 -110 99c-73 0 -102 -39 -102 -68c0 -46 60 -61 100 -69l38 -7c77 -13 173 -36 173 -142
c0 -96 -94 -151 -206 -151c-139 0 -201 95 -209 163zM155 -227l37 172h89l-69 -172h-57z" />
    <glyph glyph-name="uni021A" unicode="&#x21a;" horiz-adv-x="566" 
d="M234 0v625h-224v81h546v-81h-225v-625h-97zM203 -227l37 172h89l-69 -172h-57z" />
    <glyph glyph-name="uni021B" unicode="&#x21b;" horiz-adv-x="311" 
d="M101 107v304h-93v71h93v159h89v-159h102v-71h-102v-283c0 -47 19 -61 54 -61c15 0 31 2 48 5v-71c-15 -3 -38 -8 -69 -8c-76 0 -122 35 -122 114zM111 -227l37 172h89l-69 -172h-57z" />
    <glyph glyph-name="uni021E" unicode="&#x21e;" horiz-adv-x="722" 
d="M76 0v706h96v-300h376v300h98v-706h-98v325h-376v-325h-96zM322 764l-130 171h80l88 -119l87 119h80l-130 -171h-75z" />
    <glyph glyph-name="uni021F" unicode="&#x21f;" horiz-adv-x="523" 
d="M61 0v706h87v-304c10 39 68 92 152 92c48 0 97 -18 132 -65c31 -39 35 -79 35 -161v-268h-89v268c0 66 -3 96 -19 117c-12 17 -39 38 -84 38c-41 0 -70 -16 -93 -44c-27 -32 -33 -64 -33 -149v-230h-88zM65 764l-130 171h80l88 -119l87 119h80l-130 -171h-75z" />
    <glyph glyph-name="uni022E" unicode="&#x22e;" horiz-adv-x="745" 
d="M374 64c164 0 235 143 235 286c0 145 -71 292 -235 292c-165 0 -238 -147 -238 -292c0 -143 73 -286 238 -286zM374 -17c-235 0 -337 183 -337 367s102 373 337 373c233 0 334 -189 334 -373s-101 -367 -334 -367zM323 795v105h100v-105h-100z" />
    <glyph glyph-name="uni022F" unicode="&#x22f;" horiz-adv-x="531" 
d="M266 59c96 0 141 94 141 181s-45 183 -141 183c-97 0 -143 -96 -143 -183s46 -181 143 -181zM266 -12c-152 0 -233 129 -233 252s81 254 233 254c150 0 232 -131 232 -254s-82 -252 -232 -252zM217 571v105h100v-105h-100z" />
    <glyph glyph-name="uni0232" unicode="&#x232;" horiz-adv-x="634" 
d="M268 0v328l-262 378h112l200 -301l205 301h108l-267 -378v-328h-96zM168 816v73h301v-73h-301z" />
    <glyph glyph-name="uni0233" unicode="&#x233;" horiz-adv-x="464" 
d="M32 -229v77c15 -4 27 -6 38 -6c43 0 71 13 84 50l36 98l-180 492h92l134 -377l133 377h89l-226 -624c-23 -61 -69 -92 -140 -92c-16 0 -44 2 -60 5zM85 592v73h301v-73h-301z" />
    <glyph glyph-name="uni0237" unicode="&#x237;" horiz-adv-x="216" 
d="M-39 -229v75c13 -3 26 -4 37 -4c63 0 69 41 69 74v566h88v-569c0 -88 -20 -147 -132 -147c-25 0 -42 1 -62 5z" />
    <glyph glyph-name="uni0244" unicode="&#x244;" horiz-adv-x="713" 
d="M17 332v66h60v308h96v-308h367v308h96v-308h60v-66h-60v-85c0 -176 -117 -264 -279 -264c-185 0 -280 113 -280 264v85h-60zM357 63c116 0 183 67 183 184v85h-367v-85c0 -112 68 -184 184 -184z" />
    <glyph glyph-name="uni0259" unicode="&#x259;" horiz-adv-x="508" 
d="M125 322l-85 18c13 66 88 154 202 154c162 0 232 -121 232 -252c0 -132 -76 -254 -221 -254c-140 0 -220 110 -220 256c0 7 0 15 1 19h350c0 80 -42 162 -138 162c-77 0 -110 -57 -121 -103zM382 194h-257c0 -64 43 -137 128 -137c83 0 129 62 129 137z" />
    <glyph glyph-name="uni025B" unicode="&#x25b;" horiz-adv-x="461" 
d="M353 169l82 -16c-13 -111 -104 -164 -203 -164c-123 0 -197 62 -197 143c0 37 20 78 56 98c12 7 26 11 42 14c-14 3 -26 8 -37 16c-32 24 -50 59 -50 91c0 92 89 143 188 143c101 0 180 -54 196 -151l-85 -16c-5 54 -33 98 -111 98c-57 0 -98 -29 -98 -76
c0 -44 37 -72 97 -72h65v-65h-67c-83 0 -107 -33 -107 -74c0 -47 37 -81 109 -81c68 0 112 41 120 112z" />
    <glyph glyph-name="uni0263" unicode="&#x263;" horiz-adv-x="448" 
d="M454 482l-180 -403c48 -112 63 -150 63 -194c0 -63 -45 -108 -114 -108c-72 0 -115 47 -115 107c0 44 13 82 63 193l-176 405h90l139 -323l142 323h88zM222 7c-21 -52 -35 -92 -35 -121c0 -27 14 -45 35 -45s35 18 35 45c0 31 -12 69 -35 121z" />
    <glyph glyph-name="uni0268" unicode="&#x268;" horiz-adv-x="225" 
d="M18 244v59h51v179h87v-179h51v-59h-51v-244h-87v244h-51zM69 607v99h87v-99h-87z" />
    <glyph glyph-name="uni0272" unicode="&#x272;" horiz-adv-x="520" 
d="M16 -234c-19 0 -38 1 -61 6v73c13 -3 26 -4 39 -4c56 0 67 41 67 78v563h86v-78c10 39 66 90 150 90c47 0 98 -16 133 -63c32 -39 34 -82 34 -164v-267h-88v267c0 69 -4 95 -20 119c-11 17 -39 37 -84 37c-41 0 -70 -16 -93 -44c-27 -32 -31 -71 -31 -150v-314
c0 -91 -25 -149 -132 -149z" />
    <glyph glyph-name="uni0289" unicode="&#x289;" horiz-adv-x="538" 
d="M18 244v59h51v179h87v-179h226v179h87v-179h51v-59h-51v-244h-86v78c-10 -39 -64 -90 -147 -90c-47 0 -98 16 -133 63c-32 40 -34 81 -34 164v29h-51zM350 103c26 31 32 62 32 141h-226v-29c0 -69 5 -96 20 -119c11 -17 39 -37 84 -37c43 0 67 16 90 44z" />
    <glyph glyph-name="circumflex" unicode="&#x2c6;" horiz-adv-x="435" 
d="M50 540l130 171h75l130 -171h-80l-87 119l-88 -119h-80z" />
    <glyph glyph-name="caron" unicode="&#x2c7;" horiz-adv-x="435" 
d="M180 540l-130 171h80l88 -119l87 119h80l-130 -171h-75z" />
    <glyph glyph-name="uni02C9" unicode="&#x2c9;" horiz-adv-x="211" 
d="M-45 592v73h301v-73h-301z" />
    <glyph glyph-name="breve" unicode="&#x2d8;" horiz-adv-x="397" 
d="M50 682v23h70v-23c0 -51 23 -90 78 -90s79 39 79 90v23h70v-23c0 -93 -65 -151 -149 -151s-148 58 -148 151z" />
    <glyph glyph-name="dotaccent" unicode="&#x2d9;" horiz-adv-x="200" 
d="M50 571v105h100v-105h-100z" />
    <glyph glyph-name="ring" unicode="&#x2da;" horiz-adv-x="295" 
d="M148 578c29 0 53 24 53 53c0 31 -24 54 -53 54c-31 0 -54 -23 -54 -54c0 -29 23 -53 54 -53zM148 534c-54 0 -98 44 -98 97c0 55 43 97 98 97c53 0 97 -43 97 -97c0 -53 -44 -97 -97 -97z" />
    <glyph glyph-name="ogonek" unicode="&#x2db;" horiz-adv-x="268" 
d="M222 -231h-32c-77 0 -140 63 -140 140c0 39 15 72 39 97h101v-6c-47 0 -84 -40 -84 -91s37 -91 84 -91h32v-49z" />
    <glyph glyph-name="tilde" unicode="&#x2dc;" horiz-adv-x="401" 
d="M50 561v85c21 19 52 36 83 36c27 0 51 -10 76 -19c21 -7 41 -16 60 -16c33 0 61 22 82 50v-85c-21 -20 -53 -37 -84 -37c-25 0 -48 9 -71 17s-43 18 -66 18c-32 0 -59 -21 -80 -49z" />
    <glyph glyph-name="hungarumlaut" unicode="&#x2dd;" horiz-adv-x="392" 
d="M50 540l69 171h93l-89 -171h-73zM180 540l69 171h93l-89 -171h-73z" />
    <glyph glyph-name="gravecomb" unicode="&#x300;" horiz-adv-x="0" 
d="M-202 540l-89 171h93l69 -171h-73z" />
    <glyph glyph-name="acutecomb" unicode="&#x301;" horiz-adv-x="0" 
d="M-291 540l69 171h93l-89 -171h-73z" />
    <glyph glyph-name="uni0302" unicode="&#x302;" horiz-adv-x="0" 
d="M-377 540l130 171h75l130 -171h-80l-87 119l-88 -119h-80z" />
    <glyph glyph-name="tildecomb" unicode="&#x303;" horiz-adv-x="0" 
d="M-360 561v85c21 19 52 36 83 36c27 0 51 -10 76 -19c21 -7 41 -16 60 -16c33 0 61 22 82 50v-85c-21 -20 -53 -37 -84 -37c-25 0 -48 9 -71 17s-43 18 -66 18c-32 0 -59 -21 -80 -49z" />
    <glyph glyph-name="uni0304" unicode="&#x304;" horiz-adv-x="0" 
d="M-360 592v73h301v-73h-301z" />
    <glyph glyph-name="uni0306" unicode="&#x306;" horiz-adv-x="0" 
d="M-358 682v23h70v-23c0 -51 23 -90 78 -90s79 39 79 90v23h70v-23c0 -93 -65 -151 -149 -151s-148 58 -148 151z" />
    <glyph glyph-name="uni0307" unicode="&#x307;" horiz-adv-x="0" 
d="M-260 571v105h100v-105h-100z" />
    <glyph glyph-name="uni0308" unicode="&#x308;" horiz-adv-x="0" 
d="M-360 571v105h101v-105h-101zM-160 571v105h101v-105h-101z" />
    <glyph glyph-name="uni030A" unicode="&#x30a;" horiz-adv-x="0" 
d="M-209 578c29 0 53 24 53 53c0 31 -24 54 -53 54c-31 0 -54 -23 -54 -54c0 -29 23 -53 54 -53zM-209 534c-54 0 -98 44 -98 97c0 55 43 97 98 97c53 0 97 -43 97 -97c0 -53 -44 -97 -97 -97z" />
    <glyph glyph-name="uni030B" unicode="&#x30b;" horiz-adv-x="0" 
d="M-356 540l69 171h93l-89 -171h-73zM-226 540l69 171h93l-89 -171h-73z" />
    <glyph glyph-name="uni030C" unicode="&#x30c;" horiz-adv-x="0" 
d="M-247 540l-130 171h80l88 -119l87 119h80l-130 -171h-75z" />
    <glyph glyph-name="uni0312" unicode="&#x312;" horiz-adv-x="0" 
d="M-274 540l70 171h58l-38 -171h-90z" />
    <glyph glyph-name="uni0313" unicode="&#x313;" horiz-adv-x="0" 
d="M-272 540l36 171h89l-68 -171h-57z" />
    <glyph glyph-name="uni0323" unicode="&#x323;" horiz-adv-x="0" 
d="M-149 -159v105h100v-105h-100z" />
    <glyph glyph-name="uni0326" unicode="&#x326;" horiz-adv-x="0" 
d="M-273 -227l37 172h89l-69 -172h-57z" />
    <glyph glyph-name="uni0327" unicode="&#x327;" horiz-adv-x="0" 
d="M-222 -231v49h32c29 0 51 15 51 44c0 27 -22 41 -51 41h-32v103h52v-55c51 -4 87 -36 87 -89c0 -60 -47 -93 -104 -93h-35z" />
    <glyph glyph-name="uni0328" unicode="&#x328;" horiz-adv-x="0" 
d="M-122 -231h-32c-77 0 -140 63 -140 140c0 39 15 72 39 97h101v-6c-47 0 -84 -40 -84 -91s37 -91 84 -91h32v-49z" />
    <glyph glyph-name="uni032E" unicode="&#x32e;" horiz-adv-x="0" 
d="M-348 -78v23h70v-23c0 -51 23 -90 78 -90s79 39 79 90v23h70v-23c0 -93 -65 -151 -149 -151s-148 58 -148 151z" />
    <glyph glyph-name="uni0331" unicode="&#x331;" horiz-adv-x="0" 
d="M-360 -128v73h301v-73h-301z" />
    <glyph glyph-name="anoteleia" unicode="&#x387;" horiz-adv-x="232" 
d="M47 326c0 39 30 69 69 69s69 -30 69 -69s-30 -68 -69 -68s-69 29 -69 68z" />
    <glyph glyph-name="uni0394" unicode="&#x394;" horiz-adv-x="607" 
d="M15 0v53l246 653h90l243 -653v-53h-579zM117 85h375l-186 498z" />
    <glyph glyph-name="uni03A9" unicode="&#x3a9;" horiz-adv-x="704" 
d="M39 0v77h135c-67 67 -121 165 -121 300c0 211 133 346 300 346s300 -135 300 -346c0 -136 -55 -233 -122 -300h136v-77h-253v60c76 49 149 157 149 311c0 157 -79 275 -210 275c-133 0 -210 -118 -210 -275c0 -153 72 -263 149 -311v-60h-253z" />
    <glyph glyph-name="uni03BC" unicode="&#x3bc;" horiz-adv-x="523" 
d="M62 -223v705h88v-281c0 -76 13 -142 104 -142c92 0 121 81 121 165v258h88v-482h-87v77c-11 -38 -65 -89 -140 -89c-25 0 -58 6 -86 26v-237h-88z" />
    <glyph glyph-name="pi" unicode="&#x3c0;" horiz-adv-x="525" 
d="M186 410l-1 -410h-88v410h-85v72h502v-72h-87v-410h-87v410h-154z" />
    <glyph glyph-name="uni1E02" unicode="&#x1e02;" horiz-adv-x="666" 
d="M76 0v706h304c131 0 223 -67 223 -187c0 -93 -74 -148 -126 -153c96 -15 153 -71 153 -167c0 -147 -115 -199 -263 -199h-291zM172 81h206c93 0 153 34 153 117s-52 125 -175 125h-184v-242zM172 404h178c75 0 154 25 154 113c0 74 -61 108 -131 108h-201v-221zM284 795
v105h100v-105h-100z" />
    <glyph glyph-name="uni1E03" unicode="&#x1e03;" horiz-adv-x="552" 
d="M61 0v706h89v-294c22 44 82 82 149 82c160 0 220 -139 220 -253c0 -90 -48 -253 -227 -253c-59 0 -127 39 -145 86v-74h-86zM285 59c104 0 144 97 144 181c0 110 -56 183 -144 183c-52 0 -137 -35 -137 -182s88 -182 137 -182zM250 571v105h100v-105h-100z" />
    <glyph glyph-name="uni1E0A" unicode="&#x1e0a;" horiz-adv-x="713" 
d="M172 81h128c207 0 276 126 276 272s-69 272 -276 272h-128v-544zM76 0v706h231c179 0 368 -87 368 -353c0 -267 -189 -353 -368 -353h-231zM294 795v105h100v-105h-100z" />
    <glyph glyph-name="uni1E0B" unicode="&#x1e0b;" horiz-adv-x="553" 
d="M406 0v73c-19 -48 -87 -85 -151 -85c-170 0 -222 155 -222 252c0 106 58 254 226 254c62 0 123 -39 145 -83v295h88v-706h-86zM268 59c52 0 137 34 137 181s-85 183 -133 183c-103 0 -149 -93 -149 -182c0 -77 40 -182 145 -182zM198 571v105h100v-105h-100z" />
    <glyph glyph-name="uni1E0C" unicode="&#x1e0c;" horiz-adv-x="713" 
d="M172 81h128c207 0 276 126 276 272s-69 272 -276 272h-128v-544zM76 0v706h231c179 0 368 -87 368 -353c0 -267 -189 -353 -368 -353h-231zM255 -159v105h100v-105h-100z" />
    <glyph glyph-name="uni1E0D" unicode="&#x1e0d;" horiz-adv-x="553" 
d="M406 0v73c-19 -48 -87 -85 -151 -85c-170 0 -222 155 -222 252c0 106 58 254 226 254c62 0 123 -39 145 -83v295h88v-706h-86zM268 59c52 0 137 34 137 181s-85 183 -133 183c-103 0 -149 -93 -149 -182c0 -77 40 -182 145 -182zM219 -159v105h100v-105h-100z" />
    <glyph glyph-name="uni1E0E" unicode="&#x1e0e;" horiz-adv-x="713" 
d="M172 81h128c207 0 276 126 276 272s-69 272 -276 272h-128v-544zM76 0v706h231c179 0 368 -87 368 -353c0 -267 -189 -353 -368 -353h-231zM150 -128v73h301v-73h-301z" />
    <glyph glyph-name="uni1E0F" unicode="&#x1e0f;" horiz-adv-x="553" 
d="M406 0v73c-19 -48 -87 -85 -151 -85c-170 0 -222 155 -222 252c0 106 58 254 226 254c62 0 123 -39 145 -83v295h88v-706h-86zM268 59c52 0 137 34 137 181s-85 183 -133 183c-103 0 -149 -93 -149 -182c0 -77 40 -182 145 -182zM130 -128v73h301v-73h-301z" />
    <glyph glyph-name="uni1E10" unicode="&#x1e10;" horiz-adv-x="713" 
d="M172 81h128c207 0 276 126 276 272s-69 272 -276 272h-128v-544zM76 0v706h231c179 0 368 -87 368 -353c0 -267 -189 -353 -368 -353h-231zM227 -227l37 172h89l-69 -172h-57z" />
    <glyph glyph-name="uni1E11" unicode="&#x1e11;" horiz-adv-x="553" 
d="M406 0v73c-19 -48 -87 -85 -151 -85c-170 0 -222 155 -222 252c0 106 58 254 226 254c62 0 123 -39 145 -83v295h88v-706h-86zM268 59c52 0 137 34 137 181s-85 183 -133 183c-103 0 -149 -93 -149 -182c0 -77 40 -182 145 -182zM189 -227l37 172h89l-69 -172h-57z" />
    <glyph glyph-name="uni1E1E" unicode="&#x1e1e;" horiz-adv-x="567" 
d="M76 0v706h470v-81h-374v-217h352v-81h-352v-327h-96zM269 795v105h100v-105h-100z" />
    <glyph glyph-name="uni1E1F" unicode="&#x1e1f;" horiz-adv-x="303" 
d="M105 0v411h-96v71h96v91c0 85 35 144 128 144c23 0 44 0 63 -5v-72c-13 1 -28 3 -40 3c-37 0 -62 -17 -62 -80v-81h100v-71h-100v-411h-89zM145 795v105h100v-105h-100z" />
    <glyph glyph-name="uni1E20" unicode="&#x1e20;" horiz-adv-x="724" 
d="M586 0v102c-38 -68 -104 -119 -218 -119c-213 0 -332 168 -332 370c0 197 123 370 336 370c148 0 246 -84 291 -195l-96 -21c-33 76 -96 135 -195 135c-151 0 -237 -136 -237 -289c0 -155 80 -289 237 -289c97 0 207 59 212 240h-225v81h317v-385h-90zM221 816v73h301
v-73h-301z" />
    <glyph glyph-name="uni1E21" unicode="&#x1e21;" horiz-adv-x="548" 
d="M54 -65l94 17c5 -67 52 -116 120 -116c96 0 131 69 131 152v85c-21 -44 -87 -81 -148 -81c-153 0 -218 123 -218 249c0 96 49 253 225 253c60 0 123 -41 144 -86v74h85v-496c0 -136 -71 -221 -219 -221c-115 0 -201 67 -214 170zM263 63c53 0 137 36 137 179
c0 144 -81 181 -130 181c-110 0 -147 -104 -147 -179c0 -99 48 -181 140 -181zM137 592v73h301v-73h-301z" />
    <glyph glyph-name="uni1E22" unicode="&#x1e22;" horiz-adv-x="722" 
d="M76 0v706h96v-300h376v300h98v-706h-98v325h-376v-325h-96zM309 795v105h100v-105h-100z" />
    <glyph glyph-name="uni1E23" unicode="&#x1e23;" horiz-adv-x="523" 
d="M61 0v706h87v-304c10 39 68 92 152 92c48 0 97 -18 132 -65c31 -39 35 -79 35 -161v-268h-89v268c0 66 -3 96 -19 117c-12 17 -39 38 -84 38c-41 0 -70 -16 -93 -44c-27 -32 -33 -64 -33 -149v-230h-88zM233 571v105h100v-105h-100z" />
    <glyph glyph-name="uni1E24" unicode="&#x1e24;" horiz-adv-x="722" 
d="M76 0v706h96v-300h376v300h98v-706h-98v325h-376v-325h-96zM311 -159v105h100v-105h-100z" />
    <glyph glyph-name="uni1E25" unicode="&#x1e25;" horiz-adv-x="523" 
d="M61 0v706h87v-304c10 39 68 92 152 92c48 0 97 -18 132 -65c31 -39 35 -79 35 -161v-268h-89v268c0 66 -3 96 -19 117c-12 17 -39 38 -84 38c-41 0 -70 -16 -93 -44c-27 -32 -33 -64 -33 -149v-230h-88zM213 -159v105h100v-105h-100z" />
    <glyph glyph-name="uni1E2A" unicode="&#x1e2a;" horiz-adv-x="722" 
d="M76 0v706h96v-300h376v300h98v-706h-98v325h-376v-325h-96zM213 -78v23h70v-23c0 -51 23 -90 78 -90s79 39 79 90v23h70v-23c0 -93 -65 -151 -149 -151s-148 58 -148 151z" />
    <glyph glyph-name="uni1E2B" unicode="&#x1e2b;" horiz-adv-x="523" 
d="M61 0v706h87v-304c10 39 68 92 152 92c48 0 97 -18 132 -65c31 -39 35 -79 35 -161v-268h-89v268c0 66 -3 96 -19 117c-12 17 -39 38 -84 38c-41 0 -70 -16 -93 -44c-27 -32 -33 -64 -33 -149v-230h-88zM114 -78v23h70v-23c0 -51 23 -90 78 -90s79 39 79 90v23h70v-23
c0 -93 -65 -151 -149 -151s-148 58 -148 151z" />
    <glyph glyph-name="uni1E36" unicode="&#x1e36;" horiz-adv-x="543" 
d="M76 0v706h96v-625h360v-81h-456zM255 -159v105h100v-105h-100z" />
    <glyph glyph-name="uni1E37" unicode="&#x1e37;" horiz-adv-x="211" 
d="M61 0v706h89v-706h-89zM56 -159v105h100v-105h-100z" />
    <glyph glyph-name="uni1E38" unicode="&#x1e38;" horiz-adv-x="543" 
d="M76 0v706h96v-625h360v-81h-456zM255 -159v105h100v-105h-100zM154 816v73h301v-73h-301z" />
    <glyph glyph-name="uni1E39" unicode="&#x1e39;" horiz-adv-x="211" 
d="M61 0v706h89v-706h-89zM56 -159v105h100v-105h-100zM-46 816v73h301v-73h-301z" />
    <glyph glyph-name="uni1E3A" unicode="&#x1e3a;" horiz-adv-x="543" 
d="M76 0v706h96v-625h360v-81h-456zM150 -128v73h301v-73h-301z" />
    <glyph glyph-name="uni1E3B" unicode="&#x1e3b;" horiz-adv-x="211" 
d="M61 0v706h89v-706h-89zM-48 -128v73h301v-73h-301z" />
    <glyph glyph-name="uni1E3E" unicode="&#x1e3e;" horiz-adv-x="881" 
d="M76 0v706h147l219 -605l214 605h149v-706h-92v603l-213 -603h-116l-216 603v-603h-92zM406 764l69 171h93l-89 -171h-73z" />
    <glyph glyph-name="uni1E3F" unicode="&#x1e3f;" horiz-adv-x="788" 
d="M61 0v482h87v-78c10 39 60 90 137 90c36 0 80 -10 116 -54c10 -12 18 -27 25 -44c16 48 68 98 145 98c45 0 91 -14 126 -61c30 -40 35 -78 35 -165v-268h-88v287c0 59 -7 136 -94 136c-39 0 -66 -20 -85 -49s-24 -57 -24 -108v-266h-88v287c0 59 -8 136 -93 136
c-40 0 -67 -20 -86 -49c-22 -33 -24 -63 -24 -132v-242h-89zM358 540l69 171h93l-89 -171h-73z" />
    <glyph glyph-name="uni1E40" unicode="&#x1e40;" horiz-adv-x="881" 
d="M76 0v706h147l219 -605l214 605h149v-706h-92v603l-213 -603h-116l-216 603v-603h-92zM391 795v105h100v-105h-100z" />
    <glyph glyph-name="uni1E41" unicode="&#x1e41;" horiz-adv-x="788" 
d="M61 0v482h87v-78c10 39 60 90 137 90c36 0 80 -10 116 -54c10 -12 18 -27 25 -44c16 48 68 98 145 98c45 0 91 -14 126 -61c30 -40 35 -78 35 -165v-268h-88v287c0 59 -7 136 -94 136c-39 0 -66 -20 -85 -49s-24 -57 -24 -108v-266h-88v287c0 59 -8 136 -93 136
c-40 0 -67 -20 -86 -49c-22 -33 -24 -63 -24 -132v-242h-89zM346 571v105h100v-105h-100z" />
    <glyph glyph-name="uni1E42" unicode="&#x1e42;" horiz-adv-x="881" 
d="M76 0v706h147l219 -605l214 605h149v-706h-92v603l-213 -603h-116l-216 603v-603h-92zM392 -159v105h100v-105h-100z" />
    <glyph glyph-name="uni1E43" unicode="&#x1e43;" horiz-adv-x="788" 
d="M61 0v482h87v-78c10 39 60 90 137 90c36 0 80 -10 116 -54c10 -12 18 -27 25 -44c16 48 68 98 145 98c45 0 91 -14 126 -61c30 -40 35 -78 35 -165v-268h-88v287c0 59 -7 136 -94 136c-39 0 -66 -20 -85 -49s-24 -57 -24 -108v-266h-88v287c0 59 -8 136 -93 136
c-40 0 -67 -20 -86 -49c-22 -33 -24 -63 -24 -132v-242h-89zM348 -159v105h100v-105h-100z" />
    <glyph glyph-name="uni1E44" unicode="&#x1e44;" horiz-adv-x="755" 
d="M76 0v706h132l381 -610v610h90v-706h-139l-374 609v-609h-90zM326 795v105h100v-105h-100z" />
    <glyph glyph-name="uni1E45" unicode="&#x1e45;" horiz-adv-x="521" 
d="M61 0v482h87v-78c10 39 66 90 150 90c47 0 98 -16 133 -63c31 -42 34 -80 34 -163v-268h-88v268c0 67 -4 95 -20 117c-11 17 -39 38 -84 38c-41 0 -69 -16 -92 -44c-27 -32 -31 -72 -31 -149v-230h-89zM213 571v105h100v-105h-100z" />
    <glyph glyph-name="uni1E46" unicode="&#x1e46;" horiz-adv-x="755" 
d="M76 0v706h132l381 -610v610h90v-706h-139l-374 609v-609h-90zM327 -159v105h100v-105h-100z" />
    <glyph glyph-name="uni1E47" unicode="&#x1e47;" horiz-adv-x="521" 
d="M61 0v482h87v-78c10 39 66 90 150 90c47 0 98 -16 133 -63c31 -42 34 -80 34 -163v-268h-88v268c0 67 -4 95 -20 117c-11 17 -39 38 -84 38c-41 0 -69 -16 -92 -44c-27 -32 -31 -72 -31 -149v-230h-89zM214 -159v105h100v-105h-100z" />
    <glyph glyph-name="uni1E48" unicode="&#x1e48;" horiz-adv-x="755" 
d="M76 0v706h132l381 -610v610h90v-706h-139l-374 609v-609h-90zM222 -128v73h301v-73h-301z" />
    <glyph glyph-name="uni1E49" unicode="&#x1e49;" horiz-adv-x="521" 
d="M61 0v482h87v-78c10 39 66 90 150 90c47 0 98 -16 133 -63c31 -42 34 -80 34 -163v-268h-88v268c0 67 -4 95 -20 117c-11 17 -39 38 -84 38c-41 0 -69 -16 -92 -44c-27 -32 -31 -72 -31 -149v-230h-89zM110 -128v73h301v-73h-301z" />
    <glyph glyph-name="uni1E56" unicode="&#x1e56;" horiz-adv-x="621" 
d="M76 0v706h295c143 0 229 -63 229 -199c0 -133 -84 -200 -229 -200h-199v-307h-96zM172 388h190c88 0 141 30 141 119c0 72 -40 118 -141 118h-190v-237zM274 795v105h100v-105h-100z" />
    <glyph glyph-name="uni1E57" unicode="&#x1e57;" horiz-adv-x="554" 
d="M61 -223v705h86v-73c19 46 89 85 152 85c160 0 222 -139 222 -253c0 -90 -50 -253 -229 -253c-64 0 -119 38 -142 83v-294h-89zM285 59c114 0 146 112 146 181c0 96 -49 183 -145 183c-53 0 -138 -35 -138 -182c0 -146 88 -182 137 -182zM250 571v105h100v-105h-100z" />
    <glyph glyph-name="uni1E5A" unicode="&#x1e5a;" horiz-adv-x="668" 
d="M76 0v706h293c153 0 234 -68 234 -185c0 -118 -79 -158 -116 -166c64 -13 112 -46 112 -135v-109c0 -36 5 -72 42 -111h-109c-27 32 -30 67 -30 98v106c0 83 -46 104 -123 104h-208v-308h-95zM171 389h201c120 0 134 85 134 126c0 65 -41 110 -141 110h-194v-236z
M281 -159v105h100v-105h-100z" />
    <glyph glyph-name="uni1E5B" unicode="&#x1e5b;" horiz-adv-x="333" 
d="M61 0v482h87v-81c16 45 68 93 143 93c15 0 29 -2 34 -3v-89c-11 3 -22 4 -46 4c-52 0 -82 -24 -103 -55c-25 -33 -26 -81 -26 -133v-218h-89zM56 -159v105h100v-105h-100z" />
    <glyph glyph-name="uni1E5C" unicode="&#x1e5c;" horiz-adv-x="668" 
d="M76 0v706h293c153 0 234 -68 234 -185c0 -118 -79 -158 -116 -166c64 -13 112 -46 112 -135v-109c0 -36 5 -72 42 -111h-109c-27 32 -30 67 -30 98v106c0 83 -46 104 -123 104h-208v-308h-95zM171 389h201c120 0 134 85 134 126c0 65 -41 110 -141 110h-194v-236z
M281 -159v105h100v-105h-100zM181 816v73h301v-73h-301z" />
    <glyph glyph-name="uni1E5D" unicode="&#x1e5d;" horiz-adv-x="333" 
d="M61 0v482h87v-81c16 45 68 93 143 93c15 0 29 -2 34 -3v-89c-11 3 -22 4 -46 4c-52 0 -82 -24 -103 -55c-25 -33 -26 -81 -26 -133v-218h-89zM56 -159v105h100v-105h-100zM49 592v73h301v-73h-301z" />
    <glyph glyph-name="uni1E5E" unicode="&#x1e5e;" horiz-adv-x="668" 
d="M76 0v706h293c153 0 234 -68 234 -185c0 -118 -79 -158 -116 -166c64 -13 112 -46 112 -135v-109c0 -36 5 -72 42 -111h-109c-27 32 -30 67 -30 98v106c0 83 -46 104 -123 104h-208v-308h-95zM171 389h201c120 0 134 85 134 126c0 65 -41 110 -141 110h-194v-236z
M176 -128v73h301v-73h-301z" />
    <glyph glyph-name="uni1E5F" unicode="&#x1e5f;" horiz-adv-x="333" 
d="M61 0v482h87v-81c16 45 68 93 143 93c15 0 29 -2 34 -3v-89c-11 3 -22 4 -46 4c-52 0 -82 -24 -103 -55c-25 -33 -26 -81 -26 -133v-218h-89zM-48 -128v73h301v-73h-301z" />
    <glyph glyph-name="uni1E60" unicode="&#x1e60;" horiz-adv-x="626" 
d="M28 216l99 16c5 -115 92 -168 186 -168c115 0 184 56 184 128c0 80 -65 100 -140 116l-68 15c-123 27 -242 57 -242 197c0 123 106 203 267 203c167 0 244 -93 265 -202l-99 -18c-19 99 -86 139 -166 139c-91 0 -169 -37 -169 -122c0 -71 79 -89 160 -108l76 -17
c108 -24 215 -65 215 -198c0 -126 -114 -214 -285 -214c-143 0 -264 77 -283 233zM265 795v105h100v-105h-100z" />
    <glyph glyph-name="uni1E61" unicode="&#x1e61;" horiz-adv-x="470" 
d="M25 151l92 20c4 -68 42 -114 117 -114c60 0 114 24 114 79s-57 63 -93 71l-57 11c-60 11 -156 32 -156 138c0 68 63 138 193 138c92 0 173 -51 192 -151l-86 -17c-8 57 -33 99 -110 99c-73 0 -102 -39 -102 -68c0 -46 60 -61 100 -69l38 -7c77 -13 173 -36 173 -142
c0 -96 -94 -151 -206 -151c-139 0 -201 95 -209 163zM180 571v105h100v-105h-100z" />
    <glyph glyph-name="uni1E62" unicode="&#x1e62;" horiz-adv-x="626" 
d="M28 216l99 16c5 -115 92 -168 186 -168c115 0 184 56 184 128c0 80 -65 100 -140 116l-68 15c-123 27 -242 57 -242 197c0 123 106 203 267 203c167 0 244 -93 265 -202l-99 -18c-19 99 -86 139 -166 139c-91 0 -169 -37 -169 -122c0 -71 79 -89 160 -108l76 -17
c108 -24 215 -65 215 -198c0 -126 -114 -214 -285 -214c-143 0 -264 77 -283 233zM261 -159v105h100v-105h-100z" />
    <glyph glyph-name="uni1E63" unicode="&#x1e63;" horiz-adv-x="470" 
d="M25 151l92 20c4 -68 42 -114 117 -114c60 0 114 24 114 79s-57 63 -93 71l-57 11c-60 11 -156 32 -156 138c0 68 63 138 193 138c92 0 173 -51 192 -151l-86 -17c-8 57 -33 99 -110 99c-73 0 -102 -39 -102 -68c0 -46 60 -61 100 -69l38 -7c77 -13 173 -36 173 -142
c0 -96 -94 -151 -206 -151c-139 0 -201 95 -209 163zM185 -159v105h100v-105h-100z" />
    <glyph glyph-name="uni1E6A" unicode="&#x1e6a;" horiz-adv-x="566" 
d="M234 0v625h-224v81h546v-81h-225v-625h-97zM230 795v105h100v-105h-100z" />
    <glyph glyph-name="uni1E6B" unicode="&#x1e6b;" horiz-adv-x="311" 
d="M101 107v304h-93v71h93v159h89v-159h102v-71h-102v-283c0 -47 19 -61 54 -61c15 0 31 2 48 5v-71c-15 -3 -38 -8 -69 -8c-76 0 -122 35 -122 114zM100 795v105h100v-105h-100z" />
    <glyph glyph-name="uni1E6C" unicode="&#x1e6c;" horiz-adv-x="566" 
d="M234 0v625h-224v81h546v-81h-225v-625h-97zM231 -159v105h100v-105h-100z" />
    <glyph glyph-name="uni1E6D" unicode="&#x1e6d;" horiz-adv-x="311" 
d="M101 107v304h-93v71h93v159h89v-159h102v-71h-102v-283c0 -47 19 -61 54 -61c15 0 31 2 48 5v-71c-15 -3 -38 -8 -69 -8c-76 0 -122 35 -122 114zM141 -159v105h100v-105h-100z" />
    <glyph glyph-name="uni1E6E" unicode="&#x1e6e;" horiz-adv-x="566" 
d="M234 0v625h-224v81h546v-81h-225v-625h-97zM126 -128v73h301v-73h-301z" />
    <glyph glyph-name="uni1E6F" unicode="&#x1e6f;" horiz-adv-x="311" 
d="M101 107v304h-93v71h93v159h89v-159h102v-71h-102v-283c0 -47 19 -61 54 -61c15 0 31 2 48 5v-71c-15 -3 -38 -8 -69 -8c-76 0 -122 35 -122 114zM37 -128v73h301v-73h-301z" />
    <glyph glyph-name="uni1E7C" unicode="&#x1e7c;" horiz-adv-x="650" 
d="M266 0l-262 706h100l221 -602l228 602h98l-271 -706h-114zM170 785v85c21 19 52 36 83 36c27 0 51 -10 76 -19c21 -7 41 -16 60 -16c33 0 61 22 82 50v-85c-21 -20 -53 -37 -84 -37c-25 0 -48 9 -71 17s-43 18 -66 18c-32 0 -59 -21 -80 -49z" />
    <glyph glyph-name="uni1E7D" unicode="&#x1e7d;" horiz-adv-x="475" 
d="M185 0l-176 482h91l138 -381l142 381h89l-181 -482h-103zM87 561v85c21 19 52 36 83 36c27 0 51 -10 76 -19c21 -7 41 -16 60 -16c33 0 61 22 82 50v-85c-21 -20 -53 -37 -84 -37c-25 0 -48 9 -71 17s-43 18 -66 18c-32 0 -59 -21 -80 -49z" />
    <glyph glyph-name="Wgrave" unicode="&#x1e80;" horiz-adv-x="969" 
d="M202 0l-194 706h96l164 -611l150 611h134l150 -611l163 611h97l-195 -706h-133l-149 620l-149 -620h-134zM450 764l-89 171h93l69 -171h-73z" />
    <glyph glyph-name="wgrave" unicode="&#x1e81;" horiz-adv-x="745" 
d="M160 0l-152 482h89l116 -380l105 380h109l107 -380l116 380h88l-153 -482h-105l-108 382l-106 -382h-106zM338 540l-89 171h93l69 -171h-73z" />
    <glyph glyph-name="Wacute" unicode="&#x1e82;" horiz-adv-x="969" 
d="M202 0l-194 706h96l164 -611l150 611h134l150 -611l163 611h97l-195 -706h-133l-149 620l-149 -620h-134zM449 764l69 171h93l-89 -171h-73z" />
    <glyph glyph-name="wacute" unicode="&#x1e83;" horiz-adv-x="745" 
d="M160 0l-152 482h89l116 -380l105 380h109l107 -380l116 380h88l-153 -482h-105l-108 382l-106 -382h-106zM335 540l69 171h93l-89 -171h-73z" />
    <glyph glyph-name="Wdieresis" unicode="&#x1e84;" horiz-adv-x="969" 
d="M202 0l-194 706h96l164 -611l150 611h134l150 -611l163 611h97l-195 -706h-133l-149 620l-149 -620h-134zM335 795v105h101v-105h-101zM535 795v105h101v-105h-101z" />
    <glyph glyph-name="wdieresis" unicode="&#x1e85;" horiz-adv-x="745" 
d="M160 0l-152 482h89l116 -380l105 380h109l107 -380l116 380h88l-153 -482h-105l-108 382l-106 -382h-106zM222 571v105h101v-105h-101zM422 571v105h101v-105h-101z" />
    <glyph glyph-name="uni1E8A" unicode="&#x1e8a;" horiz-adv-x="626" 
d="M-17 0l273 379l-234 327h112l181 -258l179 258h111l-235 -327l271 -379h-113l-217 309l-215 -309h-113zM262 796v105h100v-105h-100z" />
    <glyph glyph-name="uni1E8B" unicode="&#x1e8b;" horiz-adv-x="439" 
d="M3 0l164 251l-149 231h100l104 -165l107 165h98l-155 -232l159 -250h-99l-112 182l-116 -182h-101zM172 570v105h100v-105h-100z" />
    <glyph glyph-name="uni1E92" unicode="&#x1e92;" horiz-adv-x="599" 
d="M25 0v93l412 531h-396v82h515v-82l-424 -542h448v-82h-555zM252 -159v105h100v-105h-100z" />
    <glyph glyph-name="uni1E93" unicode="&#x1e93;" horiz-adv-x="441" 
d="M21 0v80l278 331h-254v71h364v-68l-286 -342h292v-72h-394zM169 -159v105h100v-105h-100z" />
    <glyph glyph-name="uni1E97" unicode="&#x1e97;" horiz-adv-x="311" 
d="M101 107v304h-93v71h93v159h89v-159h102v-71h-102v-283c0 -47 19 -61 54 -61c15 0 31 2 48 5v-71c-15 -3 -38 -8 -69 -8c-76 0 -122 35 -122 114zM-1 795v105h101v-105h-101zM199 795v105h101v-105h-101z" />
    <glyph glyph-name="uni1E9E" unicode="&#x1e9e;" horiz-adv-x="673" 
d="M372 -17c-52 0 -94 5 -143 18v83c47 -15 98 -20 141 -20c115 0 182 56 182 136c0 71 -60 128 -164 128h-106v73l199 224h-103c-132 0 -213 -67 -213 -192v-433h-96v435c0 159 104 271 311 271h210v-80l-199 -223h32c137 0 226 -84 226 -203c0 -124 -93 -217 -277 -217z
" />
    <glyph glyph-name="uni1EA0" unicode="&#x1ea0;" horiz-adv-x="671" 
d="M1 0l273 706h124l271 -706h-104l-78 210h-304l-78 -210h-104zM212 289h246l-123 334zM285 -159v105h100v-105h-100z" />
    <glyph glyph-name="uni1EA1" unicode="&#x1ea1;" horiz-adv-x="493" 
d="M442 0h-89c-1 5 -7 37 -7 70c-28 -60 -86 -82 -150 -82c-104 0 -164 65 -164 140c0 115 90 139 196 158c13 3 48 7 63 10c55 10 58 29 58 56c0 26 -18 73 -101 73c-64 0 -107 -31 -112 -102l-90 17c8 45 28 80 60 107c37 31 85 47 142 47c105 0 187 -39 187 -159v-220
c0 -67 6 -110 7 -115zM123 132c0 -44 41 -75 86 -75s137 21 137 126v63c-13 -7 -44 -11 -73 -18l-33 -6c-62 -14 -117 -24 -117 -90zM199 -159v105h100v-105h-100z" />
    <glyph glyph-name="uni1EB8" unicode="&#x1eb8;" horiz-adv-x="595" 
d="M76 0v706h469v-81h-373v-220h360v-81h-360v-243h382v-81h-478zM265 -159v105h100v-105h-100z" />
    <glyph glyph-name="uni1EB9" unicode="&#x1eb9;" horiz-adv-x="508" 
d="M383 160l85 -18c-13 -66 -88 -154 -202 -154c-162 0 -232 121 -232 252c0 132 76 254 221 254c140 0 220 -110 220 -256c0 -7 0 -15 -1 -19h-350c0 -80 42 -162 138 -162c77 0 110 57 121 103zM125 288h257c0 64 -42 137 -127 137c-84 0 -130 -62 -130 -137zM206 -159
v105h100v-105h-100z" />
    <glyph glyph-name="uni1EBC" unicode="&#x1ebc;" horiz-adv-x="595" 
d="M76 0v706h469v-81h-373v-220h360v-81h-360v-243h382v-81h-478zM164 785v85c21 19 52 36 83 36c27 0 51 -10 76 -19c21 -7 41 -16 60 -16c33 0 61 22 82 50v-85c-21 -20 -53 -37 -84 -37c-25 0 -48 9 -71 17s-43 18 -66 18c-32 0 -59 -21 -80 -49z" />
    <glyph glyph-name="uni1EBD" unicode="&#x1ebd;" horiz-adv-x="508" 
d="M383 160l85 -18c-13 -66 -88 -154 -202 -154c-162 0 -232 121 -232 252c0 132 76 254 221 254c140 0 220 -110 220 -256c0 -7 0 -15 -1 -19h-350c0 -80 42 -162 138 -162c77 0 110 57 121 103zM125 288h257c0 64 -42 137 -127 137c-84 0 -130 -62 -130 -137zM105 561v85
c21 19 52 36 83 36c27 0 51 -10 76 -19c21 -7 41 -16 60 -16c33 0 61 22 82 50v-85c-21 -20 -53 -37 -84 -37c-25 0 -48 9 -71 17s-43 18 -66 18c-32 0 -59 -21 -80 -49z" />
    <glyph glyph-name="uni1ECA" unicode="&#x1eca;" horiz-adv-x="248" 
d="M76 0v706h96v-706h-96zM74 -159v105h100v-105h-100z" />
    <glyph glyph-name="uni1ECB" unicode="&#x1ecb;" horiz-adv-x="211" 
d="M61 0v482h89v-482h-89zM61 607v99h89v-99h-89zM56 -159v105h100v-105h-100z" />
    <glyph glyph-name="uni1ECC" unicode="&#x1ecc;" horiz-adv-x="745" 
d="M374 64c164 0 235 143 235 286c0 145 -71 292 -235 292c-165 0 -238 -147 -238 -292c0 -143 73 -286 238 -286zM374 -17c-235 0 -337 183 -337 367s102 373 337 373c233 0 334 -189 334 -373s-101 -367 -334 -367zM324 -159v105h100v-105h-100z" />
    <glyph glyph-name="uni1ECD" unicode="&#x1ecd;" horiz-adv-x="531" 
d="M266 59c96 0 141 94 141 181s-45 183 -141 183c-97 0 -143 -96 -143 -183s46 -181 143 -181zM266 -12c-152 0 -233 129 -233 252s81 254 233 254c150 0 232 -131 232 -254s-82 -252 -232 -252zM217 -159v105h100v-105h-100z" />
    <glyph glyph-name="uni1EE4" unicode="&#x1ee4;" horiz-adv-x="700" 
d="M70 247v459h96v-459c0 -112 69 -183 184 -183c116 0 183 66 183 183v459h97v-459c0 -176 -118 -264 -280 -264c-184 0 -280 113 -280 264zM300 -159v105h100v-105h-100z" />
    <glyph glyph-name="uni1EE5" unicode="&#x1ee5;" horiz-adv-x="519" 
d="M56 214v268h89v-268c0 -68 4 -96 20 -117c11 -17 37 -38 84 -38c41 0 66 16 89 44c27 33 32 64 32 149v230h88v-482h-87v78c-10 -39 -64 -90 -147 -90c-47 0 -98 16 -133 63c-31 41 -35 80 -35 163zM208 -159v105h100v-105h-100z" />
    <glyph glyph-name="Ygrave" unicode="&#x1ef2;" horiz-adv-x="634" 
d="M268 0v328l-262 378h112l200 -301l205 301h108l-267 -378v-328h-96zM284 764l-89 171h93l69 -171h-73z" />
    <glyph glyph-name="ygrave" unicode="&#x1ef3;" horiz-adv-x="464" 
d="M32 -229v77c15 -4 27 -6 38 -6c43 0 71 13 84 50l36 98l-180 492h92l134 -377l133 377h89l-226 -624c-23 -61 -69 -92 -140 -92c-16 0 -44 2 -60 5zM201 540l-89 171h93l69 -171h-73z" />
    <glyph glyph-name="uni1EF8" unicode="&#x1ef8;" horiz-adv-x="634" 
d="M268 0v328l-262 378h112l200 -301l205 301h108l-267 -378v-328h-96zM163 785v85c21 19 52 36 83 36c27 0 51 -10 76 -19c21 -7 41 -16 60 -16c33 0 61 22 82 50v-85c-21 -20 -53 -37 -84 -37c-25 0 -48 9 -71 17s-43 18 -66 18c-32 0 -59 -21 -80 -49z" />
    <glyph glyph-name="uni1EF9" unicode="&#x1ef9;" horiz-adv-x="464" 
d="M32 -229v77c15 -4 27 -6 38 -6c43 0 71 13 84 50l36 98l-180 492h92l134 -377l133 377h89l-226 -624c-23 -61 -69 -92 -140 -92c-16 0 -44 2 -60 5zM85 561v85c21 19 52 36 83 36c27 0 51 -10 76 -19c21 -7 41 -16 60 -16c33 0 61 22 82 50v-85c-21 -20 -53 -37 -84 -37
c-25 0 -48 9 -71 17s-43 18 -66 18c-32 0 -59 -21 -80 -49z" />
    <glyph glyph-name="uni2000" unicode="&#x2000;" horiz-adv-x="392" 
 />
    <glyph glyph-name="uni2001" unicode="&#x2001;" horiz-adv-x="784" 
 />
    <glyph glyph-name="uni2002" unicode="&#x2002;" horiz-adv-x="392" 
 />
    <glyph glyph-name="uni2003" unicode="&#x2003;" horiz-adv-x="784" 
 />
    <glyph glyph-name="uni2004" unicode="&#x2004;" horiz-adv-x="261" 
 />
    <glyph glyph-name="uni2005" unicode="&#x2005;" horiz-adv-x="196" 
 />
    <glyph glyph-name="uni2006" unicode="&#x2006;" horiz-adv-x="131" 
 />
    <glyph glyph-name="uni2007" unicode="&#x2007;" 
 />
    <glyph glyph-name="uni2008" unicode="&#x2008;" horiz-adv-x="220" 
 />
    <glyph glyph-name="uni2009" unicode="&#x2009;" horiz-adv-x="98" 
 />
    <glyph glyph-name="uni200A" unicode="&#x200a;" horiz-adv-x="33" 
 />
    <glyph glyph-name="uni200B" unicode="&#x200b;" horiz-adv-x="0" 
 />
    <glyph glyph-name="figuredash" unicode="&#x2012;" 
d="M120 273v85h404v-85h-404z" />
    <glyph glyph-name="endash" unicode="&#x2013;" horiz-adv-x="512" 
d="M54 287v85h404v-85h-404z" />
    <glyph glyph-name="emdash" unicode="&#x2014;" horiz-adv-x="779" 
d="M54 287v85h671v-85h-671z" />
    <glyph glyph-name="uni2015" unicode="&#x2015;" horiz-adv-x="779" 
d="M54 287v85h671v-85h-671z" />
    <glyph glyph-name="quoteleft" unicode="&#x2018;" horiz-adv-x="222" 
d="M29 420l97 286h74l-73 -286h-98z" />
    <glyph glyph-name="quoteright" unicode="&#x2019;" horiz-adv-x="220" 
d="M34 420l73 286h99l-98 -286h-74z" />
    <glyph glyph-name="quotesinglbase" unicode="&#x201a;" horiz-adv-x="215" 
d="M-5 -174l73 286h99l-97 -286h-75z" />
    <glyph glyph-name="quotereversed" unicode="&#x201b;" horiz-adv-x="217" 
d="M111 707l73 -285h-74l-97 285h98z" />
    <glyph glyph-name="quotedblleft" unicode="&#x201c;" horiz-adv-x="372" 
d="M29 420l97 286h74l-73 -286h-98zM178 420l98 286h74l-73 -286h-99z" />
    <glyph glyph-name="quotedblright" unicode="&#x201d;" horiz-adv-x="370" 
d="M34 420l73 286h99l-98 -286h-74zM184 420l73 286h99l-98 -286h-74z" />
    <glyph glyph-name="quotedblbase" unicode="&#x201e;" horiz-adv-x="365" 
d="M-5 -174l73 286h99l-97 -286h-75zM145 -174l73 286h99l-97 -286h-75z" />
    <glyph glyph-name="uni201F" unicode="&#x201f;" horiz-adv-x="366" 
d="M260 706l73 -285h-74l-97 285h98zM111 706l73 -285h-74l-97 285h98z" />
    <glyph glyph-name="dagger" unicode="&#x2020;" horiz-adv-x="479" 
d="M196 -39v449h-168v80h168v216h89v-216h165v-80h-165v-449h-89z" />
    <glyph glyph-name="daggerdbl" unicode="&#x2021;" horiz-adv-x="479" 
d="M197 -39v204h-160v79h160v196h-160v79h160v188h88v-188h157v-79h-157v-196h157v-79h-157v-204h-88z" />
    <glyph glyph-name="bullet" unicode="&#x2022;" horiz-adv-x="383" 
d="M192 223c-73 0 -133 60 -133 132s60 132 133 132c72 0 132 -60 132 -132s-60 -132 -132 -132z" />
    <glyph glyph-name="ellipsis" unicode="&#x2026;" horiz-adv-x="716" 
d="M54 0v112h112v-112h-112zM302 0v112h112v-112h-112zM550 0v112h112v-112h-112z" />
    <glyph glyph-name="perthousand" unicode="&#x2030;" horiz-adv-x="1190" 
d="M226 380c56 0 83 72 83 139s-27 139 -83 139s-83 -72 -83 -139s27 -139 83 -139zM226 323c-103 0 -156 101 -156 196c0 93 53 196 156 196s156 -103 156 -196c0 -95 -53 -196 -156 -196zM142 0l477 706h81l-477 -706h-81zM616 48c56 0 83 72 83 139s-27 139 -83 139
s-83 -72 -83 -139s27 -139 83 -139zM616 -9c-103 0 -156 101 -156 196c0 93 53 196 156 196s156 -103 156 -196c0 -95 -53 -196 -156 -196zM965 48c56 0 83 72 83 139s-27 139 -83 139s-83 -72 -83 -139s27 -139 83 -139zM965 -9c-103 0 -156 101 -156 196
c0 93 53 196 156 196s156 -103 156 -196c0 -95 -53 -196 -156 -196z" />
    <glyph glyph-name="uni2032" unicode="&#x2032;" horiz-adv-x="185" 
d="M57 420v286h71v-286h-71z" />
    <glyph glyph-name="uni2033" unicode="&#x2033;" horiz-adv-x="333" 
d="M57 420v286h72v-286h-72zM204 420v286h72v-286h-72z" />
    <glyph glyph-name="guilsinglleft" unicode="&#x2039;" horiz-adv-x="264" 
d="M38 294v75l168 127v-84l-111 -81l111 -81v-84z" />
    <glyph glyph-name="guilsinglright" unicode="&#x203a;" horiz-adv-x="264" 
d="M58 166v84l111 81l-111 81v84l168 -127v-75z" />
    <glyph glyph-name="fraction" unicode="&#x2044;" horiz-adv-x="130" 
d="M-213 0l477 706h81l-477 -706h-81z" />
    <glyph glyph-name="uni2070" unicode="&#x2070;" horiz-adv-x="360" 
d="M180 550c56 0 83 72 83 139s-27 139 -83 139s-83 -72 -83 -139s27 -139 83 -139zM180 493c-103 0 -156 101 -156 196c0 93 53 196 156 196s156 -103 156 -196c0 -95 -53 -196 -156 -196z" />
    <glyph glyph-name="uni2074" unicode="&#x2074;" horiz-adv-x="360" 
d="M27 594v56l149 226h87v-225h69v-57h-69v-92h-68v92h-168zM101 651h94v151z" />
    <glyph glyph-name="uni2075" unicode="&#x2075;" horiz-adv-x="360" 
d="M46 597l67 15c7 -36 28 -62 67 -62c40 0 67 33 67 77c0 36 -23 76 -68 76c-35 0 -56 -26 -61 -49l-69 14l26 208h227v-57h-171l-11 -92c9 15 36 33 75 33c80 0 120 -69 120 -133c0 -75 -56 -134 -135 -134c-80 0 -121 45 -134 104z" />
    <glyph glyph-name="uni2076" unicode="&#x2076;" horiz-adv-x="360" 
d="M313 793l-69 -15c-11 39 -29 50 -54 50c-55 0 -74 -65 -77 -116c7 21 41 43 80 43c79 0 125 -63 125 -134c0 -81 -68 -128 -129 -128c-113 0 -146 106 -146 188c0 99 38 204 151 204c47 0 100 -27 119 -92zM185 550c33 0 65 25 65 76c0 47 -30 72 -65 72
c-40 0 -66 -34 -66 -73c0 -48 31 -75 66 -75z" />
    <glyph glyph-name="uni2077" unicode="&#x2077;" horiz-adv-x="360" 
d="M153 502h-77c35 94 158 307 168 317h-200v57h276v-56c-24 -32 -130 -228 -167 -318z" />
    <glyph glyph-name="uni2078" unicode="&#x2078;" horiz-adv-x="360" 
d="M115 702c-41 15 -62 42 -62 83c0 40 39 100 127 100s126 -60 126 -100c0 -41 -21 -68 -62 -83c48 -16 76 -44 76 -96c0 -56 -52 -113 -140 -113s-140 57 -140 113c0 52 28 80 75 96zM108 609c0 -31 25 -59 72 -59s72 28 72 59c0 25 -11 62 -72 62c-59 0 -72 -35 -72 -62z
M121 779c0 -24 16 -49 59 -49s58 25 58 49s-18 49 -58 49c-41 0 -59 -25 -59 -49z" />
    <glyph glyph-name="uni2079" unicode="&#x2079;" horiz-adv-x="360" 
d="M44 589l71 16c8 -40 30 -55 55 -55c27 0 45 16 58 40c11 25 17 64 20 85c-7 -20 -40 -43 -79 -43c-80 0 -126 61 -126 129c0 77 65 124 130 124c111 0 145 -110 145 -187c0 -51 -10 -101 -34 -140c-23 -39 -61 -65 -118 -65c-48 0 -106 32 -122 96zM175 689
c38 0 64 37 64 68c0 41 -29 71 -65 71c-32 0 -63 -28 -63 -71c0 -40 32 -68 64 -68z" />
    <glyph glyph-name="uni2080" unicode="&#x2080;" horiz-adv-x="360" 
d="M180 -201c56 0 83 72 83 139s-27 139 -83 139s-83 -72 -83 -139s27 -139 83 -139zM180 -258c-103 0 -156 101 -156 196c0 93 53 196 156 196s156 -103 156 -196c0 -95 -53 -196 -156 -196z" />
    <glyph glyph-name="uni2081" unicode="&#x2081;" horiz-adv-x="360" 
d="M162 -249v266h-70v58h27c36 0 49 10 49 50h66v-374h-72z" />
    <glyph glyph-name="uni2082" unicode="&#x2082;" horiz-adv-x="360" 
d="M41 -249v64c23 10 95 53 143 101c32 31 56 64 56 103c0 35 -23 58 -55 58c-37 0 -63 -20 -63 -85l-74 16c0 91 73 126 137 126c73 0 127 -46 127 -115c0 -62 -42 -108 -77 -143c-25 -25 -78 -56 -98 -68h182v-57h-278z" />
    <glyph glyph-name="uni2083" unicode="&#x2083;" horiz-adv-x="360" 
d="M38 -131l72 16c3 -53 27 -86 68 -86c45 0 67 30 67 61c0 27 -16 59 -76 59h-43v55h41c44 0 69 26 69 51c0 31 -24 52 -57 52c-48 0 -62 -34 -63 -73l-72 17c3 48 44 113 135 113c69 0 130 -36 130 -110c0 -18 -16 -69 -72 -77c64 -8 80 -60 80 -94
c0 -56 -51 -111 -139 -111c-67 0 -132 35 -140 127z" />
    <glyph glyph-name="uni2084" unicode="&#x2084;" horiz-adv-x="360" 
d="M27 -157v56l149 226h87v-225h69v-57h-69v-92h-68v92h-168zM101 -100h94v151z" />
    <glyph glyph-name="uni2085" unicode="&#x2085;" horiz-adv-x="360" 
d="M46 -154l67 15c7 -36 28 -62 67 -62c40 0 67 33 67 77c0 36 -23 76 -68 76c-35 0 -56 -26 -61 -49l-69 14l26 208h227v-57h-171l-11 -92c9 15 36 33 75 33c80 0 120 -69 120 -133c0 -75 -56 -134 -135 -134c-80 0 -121 45 -134 104z" />
    <glyph glyph-name="uni2086" unicode="&#x2086;" horiz-adv-x="360" 
d="M313 42l-69 -15c-11 39 -29 50 -54 50c-55 0 -74 -65 -77 -116c7 21 41 43 80 43c79 0 125 -63 125 -134c0 -81 -68 -128 -129 -128c-113 0 -146 106 -146 188c0 99 38 204 151 204c47 0 100 -27 119 -92zM185 -201c33 0 65 25 65 76c0 47 -30 72 -65 72
c-40 0 -66 -34 -66 -73c0 -48 31 -75 66 -75z" />
    <glyph glyph-name="uni2087" unicode="&#x2087;" horiz-adv-x="360" 
d="M153 -249h-77c35 94 158 307 168 317h-200v57h276v-56c-24 -32 -130 -228 -167 -318z" />
    <glyph glyph-name="uni2088" unicode="&#x2088;" horiz-adv-x="360" 
d="M115 -49c-41 15 -62 42 -62 83c0 40 39 100 127 100s126 -60 126 -100c0 -41 -21 -68 -62 -83c48 -16 76 -44 76 -96c0 -56 -52 -113 -140 -113s-140 57 -140 113c0 52 28 80 75 96zM108 -142c0 -31 25 -59 72 -59s72 28 72 59c0 25 -11 62 -72 62c-59 0 -72 -35 -72 -62
zM121 28c0 -24 16 -49 59 -49s58 25 58 49s-18 49 -58 49c-41 0 -59 -25 -59 -49z" />
    <glyph glyph-name="uni2089" unicode="&#x2089;" horiz-adv-x="360" 
d="M44 -162l71 16c8 -40 30 -55 55 -55c27 0 45 16 58 40c11 25 17 64 20 85c-7 -20 -40 -43 -79 -43c-80 0 -126 61 -126 129c0 77 65 124 130 124c111 0 145 -110 145 -187c0 -51 -10 -101 -34 -140c-23 -39 -61 -65 -118 -65c-48 0 -106 32 -122 96zM175 -62
c38 0 64 37 64 68c0 41 -29 71 -65 71c-32 0 -63 -28 -63 -71c0 -40 32 -68 64 -68z" />
    <glyph glyph-name="colonmonetary" unicode="&#x20a1;" 
d="M134 -96l33 124c-103 63 -151 188 -151 324c0 201 116 371 327 371h10l21 79h59l-23 -86c17 -3 34 -8 50 -15l27 101h58l-34 -127c63 -43 102 -107 121 -179l-89 -20c-9 33 -26 75 -57 108l-139 -521c123 3 184 99 200 188l91 -18c-24 -128 -120 -250 -296 -250
c-7 0 -10 1 -17 1l-21 -80h-58l23 86c-19 3 -34 7 -50 14l-27 -100h-58zM115 353c0 -92 25 -175 77 -230l139 519c-144 -8 -216 -141 -216 -289zM389 638l-148 -552c15 -8 32 -14 49 -18l148 553c-15 8 -30 13 -49 17z" />
    <glyph glyph-name="uni20A6" unicode="&#x20a6;" 
d="M14 383v55h67v268h131l119 -268h143v268h89v-268h67v-55h-67v-60h67v-55h-67v-268h-137l-117 268h-139v-268h-89v268h-67v55h67v60h-67zM356 383l26 -60h92v60h-118zM170 383v-60h115l-26 60h-89zM407 268l67 -150v150h-67zM170 587v-149h65z" />
    <glyph glyph-name="Euro" unicode="&#x20ac;" 
d="M-2 394l22 56h53c32 155 140 274 304 274c136 0 219 -75 259 -182l-85 -29c-27 77 -82 131 -174 131c-108 0 -178 -82 -202 -194h303l-22 -56h-290c-1 -15 -1 -26 -1 -41v-24h271l-21 -56h-244c19 -123 84 -210 204 -210c101 0 157 69 181 152l87 -24
c-32 -111 -125 -208 -268 -208c-178 0 -282 122 -306 290h-71l22 56h44v24c0 15 1 28 2 41h-68z" />
    <glyph glyph-name="uni20B2" unicode="&#x20b2;" 
d="M300 -95v79c-199 13 -294 177 -294 368c0 190 106 353 294 369v80h54v-79c129 -8 221 -86 258 -195l-89 -20c-24 60 -73 127 -169 135v-578c88 8 181 70 186 240h-138v80h226v-384h-86v103c-35 -64 -89 -112 -188 -119v-79h-54zM105 353c0 -144 60 -272 195 -288v575
c-131 -19 -195 -147 -195 -287z" />
    <glyph glyph-name="uni20B5" unicode="&#x20b5;" 
d="M314 -95v79c-204 13 -298 177 -298 368c0 192 106 353 298 369v80h54v-79c144 -11 234 -108 264 -226l-89 -20c-16 63 -64 155 -175 166v-578c108 11 166 104 179 187l91 -18c-24 -120 -110 -238 -270 -249v-79h-54zM115 353c0 -145 63 -273 199 -289v577
c-132 -19 -199 -147 -199 -288z" />
    <glyph glyph-name="uni20BA" unicode="&#x20ba;" 
d="M67 416v55l125 45v190h96v-155l205 75v-54l-205 -75v-67l205 75v-54l-205 -75v-309c136 19 196 144 196 275l95 -8c-8 -180 -107 -351 -333 -351c-19 0 -37 1 -54 4v354l-125 -45v54l125 45v67z" />
    <glyph glyph-name="uni20BF" unicode="&#x20bf;" 
d="M66 0v706h136v95h54v-95h68v95h54v-95c124 -3 214 -70 214 -187c0 -93 -74 -148 -126 -153c96 -15 153 -71 153 -167c0 -140 -104 -194 -241 -199v-95h-54v95h-68v-95h-54v95h-136zM162 80h206c93 0 153 34 153 117c0 84 -52 126 -175 126h-184v-243zM162 403h178
c75 0 154 26 154 114c0 75 -61 109 -131 109h-201v-223z" />
    <glyph glyph-name="uni2113" unicode="&#x2113;" horiz-adv-x="494" 
d="M439 147l38 -32c-49 -87 -118 -126 -199 -126c-113 0 -172 84 -172 177l-59 -46l-25 44l82 64v250c0 172 82 228 161 228c91 0 133 -73 133 -154c0 -119 -87 -228 -220 -343v-22c0 -92 58 -137 116 -137c67 0 118 51 145 97zM178 489v-209c91 89 163 179 163 269
c0 60 -20 102 -76 102c-38 0 -87 -39 -87 -162z" />
    <glyph glyph-name="uni2117" unicode="&#x2117;" horiz-adv-x="810" 
d="M67 353c0 -187 151 -338 338 -338s338 151 338 338s-151 338 -338 338s-338 -151 -338 -338zM35 353c0 204 166 370 370 370s370 -166 370 -370s-166 -370 -370 -370s-370 166 -370 370zM244 126v453h213c96 0 155 -43 155 -135c0 -91 -58 -137 -155 -137h-136v-181h-77z
M321 371h128c53 0 84 18 84 73c0 41 -24 72 -84 72h-128v-145z" />
    <glyph glyph-name="trademark" unicode="&#x2122;" horiz-adv-x="733" 
d="M323 374v332h80l90 -268l91 268h80v-332h-52v265l-90 -265h-57l-90 265v-265h-52zM134 374v285h-107v47h268v-47h-105v-285h-56z" />
    <glyph glyph-name="Omega" unicode="&#x2126;" horiz-adv-x="706" 
d="M39 0v77h135c-67 67 -121 165 -121 300c0 211 133 346 300 346s300 -135 300 -346c0 -136 -55 -233 -122 -300h136v-77h-253v60c76 49 149 157 149 311c0 157 -79 275 -210 275c-133 0 -210 -118 -210 -275c0 -153 72 -263 149 -311v-60h-253z" />
    <glyph glyph-name="estimated" unicode="&#x212e;" horiz-adv-x="890" 
d="M863 343h-666c-3 0 -5 -2 -5 -5v-201c0 -9 3 -16 8 -23c65 -68 153 -110 252 -110c107 0 200 48 265 123h59c-73 -87 -192 -143 -325 -143c-228 0 -410 165 -410 369s182 370 410 370s412 -166 412 -370v-10zM712 369v202c0 9 -3 17 -10 25c-65 64 -151 105 -250 105
c-97 0 -186 -42 -251 -109c-6 -6 -9 -14 -9 -25v-198c0 -3 2 -7 5 -7h510c3 0 5 4 5 7z" />
    <glyph glyph-name="uni2150" unicode="&#x2150;" horiz-adv-x="734" 
d="M101 332v266h-70v58h27c36 0 49 10 49 50h66v-374h-72zM66 0l477 706h81l-477 -706h-81zM541 0h-77c35 94 158 307 168 317h-200v57h276v-56c-24 -32 -130 -228 -167 -318z" />
    <glyph glyph-name="uni2151" unicode="&#x2151;" horiz-adv-x="736" 
d="M99 332v266h-70v58h27c36 0 49 10 49 50h66v-374h-72zM64 0l477 706h81l-477 -706h-81zM432 87l71 16c8 -40 30 -55 55 -55c27 0 45 16 58 40c11 25 17 64 20 85c-7 -20 -40 -43 -79 -43c-80 0 -126 61 -126 129c0 77 65 124 130 124c111 0 145 -110 145 -187
c0 -51 -10 -101 -34 -140c-23 -39 -61 -65 -118 -65c-48 0 -106 32 -122 96zM563 187c38 0 64 37 64 68c0 41 -29 71 -65 71c-32 0 -63 -28 -63 -71c0 -40 32 -68 64 -68z" />
    <glyph glyph-name="uni2152" unicode="&#x2152;" horiz-adv-x="1044" 
d="M100 332v266h-70v58h27c36 0 49 10 49 50h66v-374h-72zM65 0l477 706h81l-477 -706h-81zM549 0v266h-70v58h27c36 0 49 10 49 50h66v-374h-72zM861 48c56 0 83 72 83 139s-27 139 -83 139s-83 -72 -83 -139s27 -139 83 -139zM861 -9c-103 0 -156 101 -156 196
c0 93 53 196 156 196s156 -103 156 -196c0 -95 -53 -196 -156 -196z" />
    <glyph glyph-name="onethird" unicode="&#x2153;" horiz-adv-x="739" 
d="M99 332v266h-70v58h27c36 0 49 10 49 50h66v-374h-72zM64 0l477 706h81l-477 -706h-81zM428 118l72 16c3 -53 27 -86 68 -86c45 0 67 30 67 61c0 27 -16 59 -76 59h-43v55h41c44 0 69 26 69 51c0 31 -24 52 -57 52c-48 0 -62 -34 -63 -73l-72 17c3 48 44 113 135 113
c69 0 130 -36 130 -110c0 -18 -16 -69 -72 -77c64 -8 80 -60 80 -94c0 -56 -51 -111 -139 -111c-67 0 -132 35 -140 127z" />
    <glyph glyph-name="twothirds" unicode="&#x2154;" horiz-adv-x="795" 
d="M33 332v64c23 10 95 53 143 101c32 31 56 64 56 103c0 35 -23 58 -55 58c-37 0 -63 -20 -63 -85l-74 16c0 91 73 126 137 126c73 0 127 -46 127 -115c0 -62 -42 -108 -77 -143c-25 -25 -78 -56 -98 -68h182v-57h-278zM123 0l477 706h81l-477 -706h-81zM487 118l72 16
c3 -53 27 -86 68 -86c45 0 67 30 67 61c0 27 -16 59 -76 59h-43v55h41c44 0 69 26 69 51c0 31 -24 52 -57 52c-48 0 -62 -34 -63 -73l-72 17c3 48 44 113 135 113c69 0 130 -36 130 -110c0 -18 -16 -69 -72 -77c64 -8 80 -60 80 -94c0 -56 -51 -111 -139 -111
c-67 0 -132 35 -140 127z" />
    <glyph glyph-name="uni2155" unicode="&#x2155;" horiz-adv-x="736" 
d="M99 332v266h-70v58h27c36 0 49 10 49 50h66v-374h-72zM64 0l477 706h81l-477 -706h-81zM433 95l67 15c7 -36 28 -62 67 -62c40 0 67 33 67 77c0 36 -23 76 -68 76c-35 0 -56 -26 -61 -49l-69 14l26 208h227v-57h-171l-11 -92c9 15 36 33 75 33c80 0 120 -69 120 -133
c0 -75 -56 -134 -135 -134c-80 0 -121 45 -134 104z" />
    <glyph glyph-name="uni2156" unicode="&#x2156;" horiz-adv-x="790" 
d="M32 332v64c23 10 95 53 143 101c32 31 56 64 56 103c0 35 -23 58 -55 58c-37 0 -63 -20 -63 -85l-74 16c0 91 73 126 137 126c73 0 127 -46 127 -115c0 -62 -42 -108 -77 -143c-25 -25 -78 -56 -98 -68h182v-57h-278zM122 0l477 706h81l-477 -706h-81zM491 95l67 15
c7 -36 28 -62 67 -62c40 0 67 33 67 77c0 36 -23 76 -68 76c-35 0 -56 -26 -61 -49l-69 14l26 208h227v-57h-171l-11 -92c9 15 36 33 75 33c80 0 120 -69 120 -133c0 -75 -56 -134 -135 -134c-80 0 -121 45 -134 104z" />
    <glyph glyph-name="uni2157" unicode="&#x2157;" horiz-adv-x="786" 
d="M30 450l72 16c3 -53 27 -86 68 -86c45 0 67 30 67 61c0 27 -16 59 -76 59h-43v55h41c44 0 69 26 69 51c0 31 -24 52 -57 52c-48 0 -62 -34 -63 -73l-72 17c3 48 44 113 135 113c69 0 130 -36 130 -110c0 -18 -16 -69 -72 -77c64 -8 80 -60 80 -94
c0 -56 -51 -111 -139 -111c-67 0 -132 35 -140 127zM115 0l477 706h81l-477 -706h-81zM484 95l67 15c7 -36 28 -62 67 -62c40 0 67 33 67 77c0 36 -23 76 -68 76c-35 0 -56 -26 -61 -49l-69 14l26 208h227v-57h-171l-11 -92c9 15 36 33 75 33c80 0 120 -69 120 -133
c0 -75 -56 -134 -135 -134c-80 0 -121 45 -134 104z" />
    <glyph glyph-name="uni2158" unicode="&#x2158;" horiz-adv-x="800" 
d="M27 424v56l149 226h87v-225h69v-57h-69v-92h-68v92h-168zM101 481h94v151zM125 0l477 706h81l-477 -706h-81zM494 95l67 15c7 -36 28 -62 67 -62c40 0 67 33 67 77c0 36 -23 76 -68 76c-35 0 -56 -26 -61 -49l-69 14l26 208h227v-57h-171l-11 -92c9 15 36 33 75 33
c80 0 120 -69 120 -133c0 -75 -56 -134 -135 -134c-80 0 -121 45 -134 104z" />
    <glyph glyph-name="uni2159" unicode="&#x2159;" horiz-adv-x="737" 
d="M99 332v266h-70v58h27c36 0 49 10 49 50h66v-374h-72zM64 0l477 706h81l-477 -706h-81zM700 291l-69 -15c-11 39 -29 50 -54 50c-55 0 -74 -65 -77 -116c7 21 41 43 80 43c79 0 125 -63 125 -134c0 -81 -68 -128 -129 -128c-113 0 -146 106 -146 188c0 99 38 204 151 204
c47 0 100 -27 119 -92zM572 48c33 0 65 25 65 76c0 47 -30 72 -65 72c-40 0 -66 -34 -66 -73c0 -48 31 -75 66 -75z" />
    <glyph glyph-name="uni215A" unicode="&#x215a;" horiz-adv-x="781" 
d="M30 427l67 15c7 -36 28 -62 67 -62c40 0 67 33 67 77c0 36 -23 76 -68 76c-35 0 -56 -26 -61 -49l-69 14l26 208h227v-57h-171l-11 -92c9 15 36 33 75 33c80 0 120 -69 120 -133c0 -75 -56 -134 -135 -134c-80 0 -121 45 -134 104zM110 0l477 706h81l-477 -706h-81z
M746 291l-69 -15c-11 39 -29 50 -54 50c-55 0 -74 -65 -77 -116c7 21 41 43 80 43c79 0 125 -63 125 -134c0 -81 -68 -128 -129 -128c-113 0 -146 106 -146 188c0 99 38 204 151 204c47 0 100 -27 119 -92zM618 48c33 0 65 25 65 76c0 47 -30 72 -65 72
c-40 0 -66 -34 -66 -73c0 -48 31 -75 66 -75z" />
    <glyph glyph-name="oneeighth" unicode="&#x215b;" horiz-adv-x="739" 
d="M99 332v266h-70v58h27c36 0 49 10 49 50h66v-374h-72zM64 0l477 706h81l-477 -706h-81zM503 200c-41 15 -62 42 -62 83c0 40 39 100 127 100s126 -60 126 -100c0 -41 -21 -68 -62 -83c48 -16 76 -44 76 -96c0 -56 -52 -113 -140 -113s-140 57 -140 113c0 52 28 80 75 96z
M496 107c0 -31 25 -59 72 -59s72 28 72 59c0 25 -11 62 -72 62c-59 0 -72 -35 -72 -62zM509 277c0 -24 16 -49 59 -49s58 25 58 49s-18 49 -58 49c-41 0 -59 -25 -59 -49z" />
    <glyph glyph-name="threeeighths" unicode="&#x215c;" horiz-adv-x="788" 
d="M30 450l72 16c3 -53 27 -86 68 -86c45 0 67 30 67 61c0 27 -16 59 -76 59h-43v55h41c44 0 69 26 69 51c0 31 -24 52 -57 52c-48 0 -62 -34 -63 -73l-72 17c3 48 44 113 135 113c69 0 130 -36 130 -110c0 -18 -16 -69 -72 -77c64 -8 80 -60 80 -94
c0 -56 -51 -111 -139 -111c-67 0 -132 35 -140 127zM115 0l477 706h81l-477 -706h-81zM554 200c-41 15 -62 42 -62 83c0 40 39 100 127 100s126 -60 126 -100c0 -41 -21 -68 -62 -83c48 -16 76 -44 76 -96c0 -56 -52 -113 -140 -113s-140 57 -140 113c0 52 28 80 75 96z
M547 107c0 -31 25 -59 72 -59s72 28 72 59c0 25 -11 62 -72 62c-59 0 -72 -35 -72 -62zM560 277c0 -24 16 -49 59 -49s58 25 58 49s-18 49 -58 49c-41 0 -59 -25 -59 -49z" />
    <glyph glyph-name="fiveeighths" unicode="&#x215d;" horiz-adv-x="784" 
d="M31 427l67 15c7 -36 28 -62 67 -62c40 0 67 33 67 77c0 36 -23 76 -68 76c-35 0 -56 -26 -61 -49l-69 14l26 208h227v-57h-171l-11 -92c9 15 36 33 75 33c80 0 120 -69 120 -133c0 -75 -56 -134 -135 -134c-80 0 -121 45 -134 104zM111 0l477 706h81l-477 -706h-81z
M550 200c-41 15 -62 42 -62 83c0 40 39 100 127 100s126 -60 126 -100c0 -41 -21 -68 -62 -83c48 -16 76 -44 76 -96c0 -56 -52 -113 -140 -113s-140 57 -140 113c0 52 28 80 75 96zM543 107c0 -31 25 -59 72 -59s72 28 72 59c0 25 -11 62 -72 62c-59 0 -72 -35 -72 -62z
M556 277c0 -24 16 -49 59 -49s58 25 58 49s-18 49 -58 49c-41 0 -59 -25 -59 -49z" />
    <glyph glyph-name="seveneighths" unicode="&#x215e;" horiz-adv-x="787" 
d="M137 332h-77c35 94 158 307 168 317h-200v57h276v-56c-24 -32 -130 -228 -167 -318zM111 0l477 706h81l-477 -706h-81zM550 200c-41 15 -62 42 -62 83c0 40 39 100 127 100s126 -60 126 -100c0 -41 -21 -68 -62 -83c48 -16 76 -44 76 -96c0 -56 -52 -113 -140 -113
s-140 57 -140 113c0 52 28 80 75 96zM543 107c0 -31 25 -59 72 -59s72 28 72 59c0 25 -11 62 -72 62c-59 0 -72 -35 -72 -62zM556 277c0 -24 16 -49 59 -49s58 25 58 49s-18 49 -58 49c-41 0 -59 -25 -59 -49z" />
    <glyph glyph-name="uni215F" unicode="&#x215f;" horiz-adv-x="524" 
d="M200 332v266h-70v58h27c36 0 49 10 49 50h66v-374h-72zM166 0l477 706h81l-477 -706h-81z" />
    <glyph glyph-name="uni2160" unicode="&#x2160;" horiz-adv-x="248" 
d="M76 0v706h96v-706h-96z" />
    <glyph glyph-name="uni2161" unicode="&#x2161;" horiz-adv-x="486" 
d="M76 0v706h96v-706h-96zM314 0v706h96v-706h-96z" />
    <glyph glyph-name="uni2162" unicode="&#x2162;" horiz-adv-x="724" 
d="M76 0v706h96v-706h-96zM314 0v706h96v-706h-96zM552 0v706h96v-706h-96z" />
    <glyph glyph-name="uni2163" unicode="&#x2163;" horiz-adv-x="890" 
d="M76 0v706h96v-706h-96zM508 0l-262 706h100l221 -602l228 602h98l-271 -706h-114z" />
    <glyph glyph-name="uni2164" unicode="&#x2164;" horiz-adv-x="650" 
d="M266 0l-262 706h100l221 -602l228 602h98l-271 -706h-114z" />
    <glyph glyph-name="uni2165" unicode="&#x2165;" horiz-adv-x="893" 
d="M264 0l-262 706h100l221 -602l228 602h98l-271 -706h-114zM721 0v706h96v-706h-96z" />
    <glyph glyph-name="uni2166" unicode="&#x2166;" horiz-adv-x="1130" 
d="M263 0l-262 706h100l221 -602l228 602h98l-271 -706h-114zM720 0v706h96v-706h-96zM958 0v706h96v-706h-96z" />
    <glyph glyph-name="uni2167" unicode="&#x2167;" horiz-adv-x="1367" 
d="M262 0l-262 706h100l221 -602l228 602h98l-271 -706h-114zM719 0v706h96v-706h-96zM957 0v706h96v-706h-96zM1195 0v706h96v-706h-96z" />
    <glyph glyph-name="uni2168" unicode="&#x2168;" horiz-adv-x="883" 
d="M76 0v706h96v-706h-96zM240 0l273 379l-234 327h112l181 -258l179 258h111l-235 -327l271 -379h-113l-217 309l-215 -309h-113z" />
    <glyph glyph-name="uni2169" unicode="&#x2169;" horiz-adv-x="626" 
d="M-17 0l273 379l-234 327h112l181 -258l179 258h111l-235 -327l271 -379h-113l-217 309l-215 -309h-113z" />
    <glyph glyph-name="uni216A" unicode="&#x216a;" horiz-adv-x="882" 
d="M-17 0l273 379l-234 327h112l181 -258l179 258h111l-235 -327l271 -379h-113l-217 309l-215 -309h-113zM710 0v706h96v-706h-96z" />
    <glyph glyph-name="uni216B" unicode="&#x216b;" horiz-adv-x="1120" 
d="M-17 0l273 379l-234 327h112l181 -258l179 258h111l-235 -327l271 -379h-113l-217 309l-215 -309h-113zM710 0v706h96v-706h-96zM948 0v706h96v-706h-96z" />
    <glyph glyph-name="uni216C" unicode="&#x216c;" horiz-adv-x="543" 
d="M76 0v706h96v-625h360v-81h-456z" />
    <glyph glyph-name="uni216D" unicode="&#x216d;" horiz-adv-x="702" 
d="M586 252l96 -19c-27 -128 -132 -250 -308 -250c-220 0 -337 170 -337 370c0 197 124 370 337 370c163 0 264 -103 302 -227l-96 -20c-29 88 -93 166 -206 166c-152 0 -238 -136 -238 -289c0 -155 81 -289 238 -289c123 0 194 96 212 188z" />
    <glyph glyph-name="uni216E" unicode="&#x216e;" horiz-adv-x="713" 
d="M172 81h128c207 0 276 126 276 272s-69 272 -276 272h-128v-544zM76 0v706h231c179 0 368 -87 368 -353c0 -267 -189 -353 -368 -353h-231z" />
    <glyph glyph-name="uni216F" unicode="&#x216f;" horiz-adv-x="881" 
d="M76 0v706h147l219 -605l214 605h149v-706h-92v603l-213 -603h-116l-216 603v-603h-92z" />
    <glyph glyph-name="uni2170" unicode="&#x2170;" horiz-adv-x="211" 
d="M61 0v482h89v-482h-89zM61 607v99h89v-99h-89z" />
    <glyph glyph-name="uni2171" unicode="&#x2171;" horiz-adv-x="422" 
d="M61 0v482h89v-482h-89zM61 607v99h89v-99h-89zM272 0v482h89v-482h-89zM272 607v99h89v-99h-89z" />
    <glyph glyph-name="uni2172" unicode="&#x2172;" horiz-adv-x="633" 
d="M61 0v482h89v-482h-89zM61 607v99h89v-99h-89zM272 0v482h89v-482h-89zM272 607v99h89v-99h-89zM483 0v482h89v-482h-89zM483 607v99h89v-99h-89z" />
    <glyph glyph-name="uni2173" unicode="&#x2173;" horiz-adv-x="679" 
d="M61 0v482h89v-482h-89zM61 607v99h89v-99h-89zM391 0l-176 482h91l138 -381l142 381h89l-181 -482h-103z" />
    <glyph glyph-name="uni2174" unicode="&#x2174;" horiz-adv-x="475" 
d="M185 0l-176 482h91l138 -381l142 381h89l-181 -482h-103z" />
    <glyph glyph-name="uni2175" unicode="&#x2175;" horiz-adv-x="682" 
d="M184 0l-176 482h91l138 -381l142 381h89l-181 -482h-103zM532 0v482h89v-482h-89zM532 607v99h89v-99h-89z" />
    <glyph glyph-name="uni2176" unicode="&#x2176;" horiz-adv-x="891" 
d="M182 0l-176 482h91l138 -381l142 381h89l-181 -482h-103zM530 0v482h89v-482h-89zM530 607v99h89v-99h-89zM741 0v482h89v-482h-89zM741 607v99h89v-99h-89z" />
    <glyph glyph-name="uni2177" unicode="&#x2177;" horiz-adv-x="1101" 
d="M181 0l-176 482h91l138 -381l142 381h89l-181 -482h-103zM529 0v482h89v-482h-89zM529 607v99h89v-99h-89zM740 0v482h89v-482h-89zM740 607v99h89v-99h-89zM951 0v482h89v-482h-89zM951 607v99h89v-99h-89z" />
    <glyph glyph-name="uni2178" unicode="&#x2178;" horiz-adv-x="648" 
d="M61 0v482h89v-482h-89zM61 607v99h89v-99h-89zM212 0l164 251l-149 231h100l104 -165l107 165h98l-155 -232l159 -250h-99l-112 182l-116 -182h-101z" />
    <glyph glyph-name="uni2179" unicode="&#x2179;" horiz-adv-x="439" 
d="M3 0l164 251l-149 231h100l104 -165l107 165h98l-155 -232l159 -250h-99l-112 182l-116 -182h-101z" />
    <glyph glyph-name="uni217A" unicode="&#x217a;" horiz-adv-x="646" 
d="M3 0l164 251l-149 231h100l104 -165l107 165h98l-155 -232l159 -250h-99l-112 182l-116 -182h-101zM496 0v482h89v-482h-89zM496 607v99h89v-99h-89z" />
    <glyph glyph-name="uni217B" unicode="&#x217b;" horiz-adv-x="857" 
d="M3 0l164 251l-149 231h100l104 -165l107 165h98l-155 -232l159 -250h-99l-112 182l-116 -182h-101zM496 0v482h89v-482h-89zM496 607v99h89v-99h-89zM707 0v482h89v-482h-89zM707 607v99h89v-99h-89z" />
    <glyph glyph-name="uni217C" unicode="&#x217c;" horiz-adv-x="211" 
d="M61 0v706h89v-706h-89z" />
    <glyph glyph-name="uni217D" unicode="&#x217d;" horiz-adv-x="503" 
d="M390 179l89 -18c-11 -67 -76 -173 -216 -173c-160 0 -230 125 -230 252c0 128 78 254 230 254c138 0 201 -96 214 -167l-89 -16c-5 35 -34 112 -125 112c-96 0 -140 -93 -140 -183c0 -88 39 -181 140 -181c86 0 119 72 127 120z" />
    <glyph glyph-name="uni217E" unicode="&#x217e;" horiz-adv-x="553" 
d="M406 0v73c-19 -48 -87 -85 -151 -85c-170 0 -222 155 -222 252c0 106 58 254 226 254c62 0 123 -39 145 -83v295h88v-706h-86zM268 59c52 0 137 34 137 181s-85 183 -133 183c-103 0 -149 -93 -149 -182c0 -77 40 -182 145 -182z" />
    <glyph glyph-name="uni217F" unicode="&#x217f;" horiz-adv-x="788" 
d="M61 0v482h87v-78c10 39 60 90 137 90c36 0 80 -10 116 -54c10 -12 18 -27 25 -44c16 48 68 98 145 98c45 0 91 -14 126 -61c30 -40 35 -78 35 -165v-268h-88v287c0 59 -7 136 -94 136c-39 0 -66 -20 -85 -49s-24 -57 -24 -108v-266h-88v287c0 59 -8 136 -93 136
c-40 0 -67 -20 -86 -49c-22 -33 -24 -63 -24 -132v-242h-89z" />
    <glyph glyph-name="uni2189" unicode="&#x2189;" horiz-adv-x="805" 
d="M184 380c56 0 83 72 83 139s-27 139 -83 139s-83 -72 -83 -139s27 -139 83 -139zM184 323c-103 0 -156 101 -156 196c0 93 53 196 156 196s156 -103 156 -196c0 -95 -53 -196 -156 -196zM130 0l477 706h81l-477 -706h-81zM494 118l72 16c3 -53 27 -86 68 -86
c45 0 67 30 67 61c0 27 -16 59 -76 59h-43v55h41c44 0 69 26 69 51c0 31 -24 52 -57 52c-48 0 -62 -34 -63 -73l-72 17c3 48 44 113 135 113c69 0 130 -36 130 -110c0 -18 -16 -69 -72 -77c64 -8 80 -60 80 -94c0 -56 -51 -111 -139 -111c-67 0 -132 35 -140 127z" />
    <glyph glyph-name="arrowleft" unicode="&#x2190;" 
d="M354 79l-53 -52l-284 284l284 284l53 -53l-200 -194h465v-75h-465z" />
    <glyph glyph-name="arrowup" unicode="&#x2191;" 
d="M91 275l-53 53l284 284l284 -284l-53 -53l-194 200v-465h-75v464z" />
    <glyph glyph-name="arrowright" unicode="&#x2192;" 
d="M343 27l-53 52l200 194h-465v75h465l-200 194l53 53l284 -284z" />
    <glyph glyph-name="arrowdown" unicode="&#x2193;" 
d="M553 347l53 -53l-284 -284l-284 284l53 53l194 -200v465h75v-465z" />
    <glyph glyph-name="uni2196" unicode="&#x2196;" 
d="M182 149h-75v402h402v-75l-278 3l328 -330l-53 -53l-327 331z" />
    <glyph glyph-name="uni2197" unicode="&#x2197;" 
d="M537 149h-75l3 278l-327 -331l-53 53l328 330l-278 -3v75h402v-402z" />
    <glyph glyph-name="uni2198" unicode="&#x2198;" 
d="M462 498h75v-402h-402v75l278 -3l-328 331l53 52l327 -330z" />
    <glyph glyph-name="uni2199" unicode="&#x2199;" 
d="M107 498h75l-3 -277l327 330l53 -52l-328 -331l278 3v-75h-402v402z" />
    <glyph glyph-name="partialdiff" unicode="&#x2202;" horiz-adv-x="518" 
d="M97 591l-32 73c35 28 88 59 168 59c136 0 249 -130 249 -334c0 -216 -86 -401 -255 -401c-132 0 -193 123 -193 240c0 161 94 266 214 266c72 0 118 -36 145 -83c-5 139 -74 241 -168 241c-58 0 -102 -35 -128 -61zM387 313c-13 42 -64 110 -131 110
c-76 0 -133 -93 -133 -195c0 -92 41 -169 108 -169c83 0 143 124 156 254z" />
    <glyph glyph-name="increment" unicode="&#x2206;" horiz-adv-x="627" 
d="M24 0v53l246 653h90l243 -653v-53h-579zM126 85h375l-186 498z" />
    <glyph glyph-name="product" unicode="&#x220f;" horiz-adv-x="619" 
d="M132 -67v692h-107v81h569v-81h-108v-692h-88v692h-178v-692h-88z" />
    <glyph glyph-name="summation" unicode="&#x2211;" 
d="M83 -71v54l253 336l-253 334v53h474v-81h-352l236 -306l-236 -309h352v-81h-474z" />
    <glyph glyph-name="minus" unicode="&#x2212;" 
d="M21 273v75h602v-75h-602z" />
    <glyph glyph-name="uni2215" unicode="&#x2215;" horiz-adv-x="130" 
d="M-213 0l477 706h81l-477 -706h-81z" />
    <glyph glyph-name="uni2219" unicode="&#x2219;" horiz-adv-x="324" 
d="M93 326c0 39 30 69 69 69s69 -30 69 -69s-30 -68 -69 -68s-69 29 -69 68z" />
    <glyph glyph-name="radical" unicode="&#x221a;" 
d="M302 -67l-159 461l-76 -25l-23 67l157 56l140 -408l157 689h79l-192 -840h-83z" />
    <glyph glyph-name="infinity" unicode="&#x221e;" horiz-adv-x="868" 
d="M434 290c-54 -67 -119 -129 -214 -129s-182 75 -182 179c0 106 86 181 185 181c92 0 157 -59 211 -127c54 68 119 127 211 127c100 0 185 -75 185 -181c0 -104 -87 -179 -182 -179c-94 0 -160 61 -214 129zM392 339c-43 53 -96 115 -169 115c-68 0 -113 -53 -113 -114
c0 -60 48 -111 115 -111c68 0 127 59 167 110zM477 339c40 -51 99 -110 167 -110c67 0 115 51 115 111c0 61 -45 114 -113 114c-73 0 -126 -62 -169 -115z" />
    <glyph glyph-name="integral" unicode="&#x222b;" 
d="M149 -215l17 73c12 -9 31 -16 42 -16c72 0 74 114 74 165c0 153 -10 303 -10 471c0 112 32 239 157 239c23 0 50 -10 65 -19l-16 -73c-13 9 -32 16 -43 16c-72 0 -74 -115 -74 -165c0 -163 11 -314 11 -471c0 -112 -31 -239 -158 -239c-21 0 -50 10 -65 19z" />
    <glyph glyph-name="approxequal" unicode="&#x2248;" 
d="M63 106l-43 8c29 115 105 154 173 154c124 0 196 -96 280 -96c59 0 91 25 111 94l43 -8c-29 -115 -106 -155 -173 -155c-124 0 -196 96 -280 96c-60 0 -92 -24 -111 -93zM63 269l-43 8c29 115 105 155 173 155c124 0 196 -96 280 -96c59 0 91 25 111 93l43 -8
c-29 -115 -106 -154 -173 -154c-124 0 -196 96 -280 96c-60 0 -92 -25 -111 -94z" />
    <glyph glyph-name="notequal" unicode="&#x2260;" 
d="M21 360v74h378l98 100h64l-98 -100h160v-74h-232l-87 -90h319v-73h-390l-112 -115h-65l112 115h-147v73h218l88 90h-306z" />
    <glyph glyph-name="equivalence" unicode="&#x2261;" 
d="M21 197v73h602v-73h-602zM21 360v74h602v-74h-602zM21 523v74h602v-74h-602z" />
    <glyph glyph-name="lessequal" unicode="&#x2264;" 
d="M32 365v75l565 196v-76l-473 -158l473 -157v-77zM32 0v75h564v-75h-564z" />
    <glyph glyph-name="greaterequal" unicode="&#x2265;" 
d="M612 440v-75l-565 -197v77l472 157l-472 158v76zM612 75v-75h-565v75h565z" />
    <glyph glyph-name="uni25AF" unicode="&#x25af;" horiz-adv-x="555" 
 />
    <glyph glyph-name="triagup" unicode="&#x25b2;" 
d="M323 482l240 -482h-482z" />
    <glyph glyph-name="triagrt" unicode="&#x25ba;" 
d="M563 240l-482 -240v482z" />
    <glyph glyph-name="triagdn" unicode="&#x25bc;" 
d="M323 0l-242 482h482z" />
    <glyph glyph-name="triaglf" unicode="&#x25c4;" 
d="M81 240l482 242v-482z" />
    <glyph glyph-name="lozenge" unicode="&#x25ca;" 
d="M291 -46l-202 392l203 392h63l199 -392l-201 -392h-62zM322 68l139 278l-138 278l-142 -278z" />
    <glyph glyph-name="uniFB00" unicode="&#xfb00;" horiz-adv-x="587" 
d="M390 0v411h-196v-411h-89v411h-96v71h96v91c0 85 35 144 128 144c23 0 44 0 63 -5v-72c-13 1 -28 3 -40 3c-37 0 -62 -17 -62 -80v-81h196v91c0 85 35 144 128 144c21 0 43 0 62 -5v-72c-12 1 -28 3 -39 3c-39 0 -63 -17 -63 -80v-81h100v-71h-100v-411h-88z" />
    <glyph glyph-name="fi" unicode="&#xfb01;" horiz-adv-x="516" 
d="M105 0v411h-96v71h96v91c0 85 35 144 128 144c23 0 44 0 63 -5v-72c-13 1 -28 3 -40 3c-37 0 -62 -17 -62 -80v-81h100v-71h-100v-411h-89zM367 0v482h88v-482h-88zM367 607v99h88v-99h-88z" />
    <glyph glyph-name="fl" unicode="&#xfb02;" horiz-adv-x="516" 
d="M105 0v411h-96v71h96v91c0 85 35 144 128 144c23 0 44 0 63 -5v-72c-13 1 -28 3 -40 3c-37 0 -62 -17 -62 -80v-81h100v-71h-100v-411h-89zM367 0v706h88v-706h-88z" />
    <glyph glyph-name="uniFB03" unicode="&#xfb03;" horiz-adv-x="800" 
d="M390 0v411h-196v-411h-89v411h-96v71h96v91c0 85 35 144 128 144c23 0 44 0 63 -5v-72c-13 1 -28 3 -40 3c-37 0 -62 -17 -62 -80v-81h196v91c0 85 35 144 128 144c21 0 43 0 62 -5v-72c-12 1 -28 3 -39 3c-39 0 -63 -17 -63 -80v-81h100v-71h-100v-411h-88zM651 0v482
h88v-482h-88zM651 607v99h88v-99h-88z" />
    <glyph glyph-name="uniFB04" unicode="&#xfb04;" horiz-adv-x="800" 
d="M390 0v411h-196v-411h-89v411h-96v71h96v91c0 85 35 144 128 144c23 0 44 0 63 -5v-72c-13 1 -28 3 -40 3c-37 0 -62 -17 -62 -80v-81h196v91c0 85 35 144 128 144c21 0 43 0 62 -5v-72c-12 1 -28 3 -39 3c-39 0 -63 -17 -63 -80v-81h100v-71h-100v-411h-88zM651 0v706
h88v-706h-88z" />
    <glyph glyph-name="uniFEFF" unicode="&#xfeff;" horiz-adv-x="0" 
 />
    <glyph glyph-name="i.latn_TRK" horiz-adv-x="211" 
d="M61 0v482h89v-482h-89zM61 607v99h89v-99h-89z" />
    <glyph glyph-name="Ldot.latn_CAT" horiz-adv-x="545" 
d="M76 0v706h96v-625h360v-81h-456zM299 302v105h100v-105h-100z" />
    <glyph glyph-name="ldot.latn_CAT" horiz-adv-x="306" 
d="M61 0v706h89v-706h-89zM209 301v105h100v-105h-100z" />
    <glyph glyph-name="zero.numr" horiz-adv-x="360" 
d="M180 380c56 0 83 72 83 139s-27 139 -83 139s-83 -72 -83 -139s27 -139 83 -139zM180 323c-103 0 -156 101 -156 196c0 93 53 196 156 196s156 -103 156 -196c0 -95 -53 -196 -156 -196z" />
    <glyph glyph-name="one.numr" horiz-adv-x="360" 
d="M162 332v266h-70v58h27c36 0 49 10 49 50h66v-374h-72z" />
    <glyph glyph-name="two.numr" horiz-adv-x="360" 
d="M41 332v64c23 10 95 53 143 101c32 31 56 64 56 103c0 35 -23 58 -55 58c-37 0 -63 -20 -63 -85l-74 16c0 91 73 126 137 126c73 0 127 -46 127 -115c0 -62 -42 -108 -77 -143c-25 -25 -78 -56 -98 -68h182v-57h-278z" />
    <glyph glyph-name="three.numr" horiz-adv-x="360" 
d="M38 450l72 16c3 -53 27 -86 68 -86c45 0 67 30 67 61c0 27 -16 59 -76 59h-43v55h41c44 0 69 26 69 51c0 31 -24 52 -57 52c-48 0 -62 -34 -63 -73l-72 17c3 48 44 113 135 113c69 0 130 -36 130 -110c0 -18 -16 -69 -72 -77c64 -8 80 -60 80 -94
c0 -56 -51 -111 -139 -111c-67 0 -132 35 -140 127z" />
    <glyph glyph-name="four.numr" horiz-adv-x="360" 
d="M27 424v56l149 226h87v-225h69v-57h-69v-92h-68v92h-168zM101 481h94v151z" />
    <glyph glyph-name="five.numr" horiz-adv-x="360" 
d="M46 427l67 15c7 -36 28 -62 67 -62c40 0 67 33 67 77c0 36 -23 76 -68 76c-35 0 -56 -26 -61 -49l-69 14l26 208h227v-57h-171l-11 -92c9 15 36 33 75 33c80 0 120 -69 120 -133c0 -75 -56 -134 -135 -134c-80 0 -121 45 -134 104z" />
    <glyph glyph-name="six.numr" horiz-adv-x="360" 
d="M313 623l-69 -15c-11 39 -29 50 -54 50c-55 0 -74 -65 -77 -116c7 21 41 43 80 43c79 0 125 -63 125 -134c0 -81 -68 -128 -129 -128c-113 0 -146 106 -146 188c0 99 38 204 151 204c47 0 100 -27 119 -92zM185 380c33 0 65 25 65 76c0 47 -30 72 -65 72
c-40 0 -66 -34 -66 -73c0 -48 31 -75 66 -75z" />
    <glyph glyph-name="seven.numr" horiz-adv-x="360" 
d="M153 332h-77c35 94 158 307 168 317h-200v57h276v-56c-24 -32 -130 -228 -167 -318z" />
    <glyph glyph-name="eight.numr" horiz-adv-x="360" 
d="M115 532c-41 15 -62 42 -62 83c0 40 39 100 127 100s126 -60 126 -100c0 -41 -21 -68 -62 -83c48 -16 76 -44 76 -96c0 -56 -52 -113 -140 -113s-140 57 -140 113c0 52 28 80 75 96zM108 439c0 -31 25 -59 72 -59s72 28 72 59c0 25 -11 62 -72 62c-59 0 -72 -35 -72 -62z
M121 609c0 -24 16 -49 59 -49s58 25 58 49s-18 49 -58 49c-41 0 -59 -25 -59 -49z" />
    <glyph glyph-name="nine.numr" horiz-adv-x="360" 
d="M44 419l71 16c8 -40 30 -55 55 -55c27 0 45 16 58 40c11 25 17 64 20 85c-7 -20 -40 -43 -79 -43c-80 0 -126 61 -126 129c0 77 65 124 130 124c111 0 145 -110 145 -187c0 -51 -10 -101 -34 -140c-23 -39 -61 -65 -118 -65c-48 0 -106 32 -122 96zM175 519
c38 0 64 37 64 68c0 41 -29 71 -65 71c-32 0 -63 -28 -63 -71c0 -40 32 -68 64 -68z" />
    <glyph glyph-name="zero.dnom" horiz-adv-x="360" 
d="M180 48c56 0 83 72 83 139s-27 139 -83 139s-83 -72 -83 -139s27 -139 83 -139zM180 -9c-103 0 -156 101 -156 196c0 93 53 196 156 196s156 -103 156 -196c0 -95 -53 -196 -156 -196z" />
    <glyph glyph-name="one.dnom" horiz-adv-x="360" 
d="M162 0v266h-70v58h27c36 0 49 10 49 50h66v-374h-72z" />
    <glyph glyph-name="two.dnom" horiz-adv-x="360" 
d="M40 0v64c23 10 95 53 143 101c32 31 56 64 56 103c0 35 -23 58 -55 58c-37 0 -63 -20 -63 -85l-74 16c0 91 73 126 137 126c73 0 127 -46 127 -115c0 -62 -42 -108 -77 -143c-25 -25 -78 -56 -98 -68h182v-57h-278z" />
    <glyph glyph-name="three.dnom" horiz-adv-x="360" 
d="M38 118l72 16c3 -53 27 -86 68 -86c45 0 67 30 67 61c0 27 -16 59 -76 59h-43v55h41c44 0 69 26 69 51c0 31 -24 52 -57 52c-48 0 -62 -34 -63 -73l-72 17c3 48 44 113 135 113c69 0 130 -36 130 -110c0 -18 -16 -69 -72 -77c64 -8 80 -60 80 -94
c0 -56 -51 -111 -139 -111c-67 0 -132 35 -140 127z" />
    <glyph glyph-name="four.dnom" horiz-adv-x="360" 
d="M27 92v56l149 226h87v-225h69v-57h-69v-92h-68v92h-168zM101 149h94v151z" />
    <glyph glyph-name="five.dnom" horiz-adv-x="360" 
d="M46 95l67 15c7 -36 28 -62 67 -62c40 0 67 33 67 77c0 36 -23 76 -68 76c-35 0 -56 -26 -61 -49l-69 14l26 208h227v-57h-171l-11 -92c9 15 36 33 75 33c80 0 120 -69 120 -133c0 -75 -56 -134 -135 -134c-80 0 -121 45 -134 104z" />
    <glyph glyph-name="six.dnom" horiz-adv-x="360" 
d="M312 291l-69 -15c-11 39 -29 50 -54 50c-55 0 -74 -65 -77 -116c7 21 41 43 80 43c79 0 125 -63 125 -134c0 -81 -68 -128 -129 -128c-113 0 -146 106 -146 188c0 99 38 204 151 204c47 0 100 -27 119 -92zM184 48c33 0 65 25 65 76c0 47 -30 72 -65 72
c-40 0 -66 -34 -66 -73c0 -48 31 -75 66 -75z" />
    <glyph glyph-name="seven.dnom" horiz-adv-x="360" 
d="M153 0h-77c35 94 158 307 168 317h-200v57h276v-56c-24 -32 -130 -228 -167 -318z" />
    <glyph glyph-name="eight.dnom" horiz-adv-x="360" 
d="M115 200c-41 15 -62 42 -62 83c0 40 39 100 127 100s126 -60 126 -100c0 -41 -21 -68 -62 -83c48 -16 76 -44 76 -96c0 -56 -52 -113 -140 -113s-140 57 -140 113c0 52 28 80 75 96zM108 107c0 -31 25 -59 72 -59s72 28 72 59c0 25 -11 62 -72 62c-59 0 -72 -35 -72 -62z
M121 277c0 -24 16 -49 59 -49s58 25 58 49s-18 49 -58 49c-41 0 -59 -25 -59 -49z" />
    <glyph glyph-name="nine.dnom" horiz-adv-x="360" 
d="M44 87l71 16c8 -40 30 -55 55 -55c27 0 45 16 58 40c11 25 17 64 20 85c-7 -20 -40 -43 -79 -43c-80 0 -126 61 -126 129c0 77 65 124 130 124c111 0 145 -110 145 -187c0 -51 -10 -101 -34 -140c-23 -39 -61 -65 -118 -65c-48 0 -106 32 -122 96zM175 187
c38 0 64 37 64 68c0 41 -29 71 -65 71c-32 0 -63 -28 -63 -71c0 -40 32 -68 64 -68z" />
    <glyph glyph-name="space.frac" horiz-adv-x="42" 
 />
    <glyph glyph-name="zero.tf" 
d="M322 64c115 0 170 147 170 288s-55 290 -170 290c-117 0 -170 -149 -170 -290s53 -288 170 -288zM322 -17c-180 0 -267 190 -267 369s87 371 267 371s267 -192 267 -371s-87 -369 -267 -369z" />
    <glyph glyph-name="one.tf" 
d="M105 0v77h177v456h-127v77h31c73 0 108 17 108 96h80v-629h179v-77h-448z" />
    <glyph glyph-name="two.tf" 
d="M76 0v98c101 57 379 235 379 411c0 79 -48 133 -128 133c-76 0 -135 -43 -138 -171l-98 22c3 156 114 230 236 230c139 0 225 -90 225 -214c0 -179 -212 -347 -357 -432h372v-77h-491z" />
    <glyph glyph-name="three.tf" 
d="M71 217l100 19c7 -117 65 -172 146 -172c93 0 151 64 151 135s-52 130 -159 130h-86v81h84c88 0 143 62 143 121c0 71 -55 111 -131 111c-104 0 -132 -84 -135 -148l-99 22c3 74 65 207 234 207c130 0 228 -68 228 -192c0 -59 -44 -140 -143 -159
c111 -19 160 -96 160 -174c0 -108 -83 -215 -247 -215c-123 0 -235 77 -246 234z" />
    <glyph glyph-name="four.tf" 
d="M55 185v86l278 435h130v-444h127v-77h-127v-185h-94v185h-314zM152 262h217v353z" />
    <glyph glyph-name="five.tf" 
d="M83 171l96 21c17 -77 61 -128 138 -128c92 0 150 71 150 171c0 82 -49 160 -137 160c-85 0 -129 -64 -140 -101l-99 19l47 393h398v-81h-318l-29 -223c16 29 77 74 156 74c140 0 216 -114 216 -241c0 -148 -95 -252 -244 -252c-131 0 -208 80 -234 188z" />
    <glyph glyph-name="six.tf" 
d="M555 559l-98 -20c-21 76 -57 103 -112 103c-132 0 -165 -181 -168 -281c19 53 81 105 169 105c128 0 221 -100 221 -234c0 -160 -115 -249 -229 -249c-212 0 -257 199 -257 354c0 176 64 386 268 386c83 0 174 -49 206 -164zM335 64c72 0 139 59 139 167
c0 96 -66 155 -141 155c-104 0 -142 -101 -142 -157c0 -101 62 -165 144 -165z" />
    <glyph glyph-name="seven.tf" 
d="M253 0h-101c72 185 252 513 316 625h-391v81h490v-83c-89 -141 -246 -456 -314 -623z" />
    <glyph glyph-name="eight.tf" 
d="M223 377c-76 24 -124 88 -124 161c0 77 68 185 223 185s223 -108 223 -185c0 -73 -44 -137 -124 -161c88 -19 148 -82 148 -189c0 -102 -90 -205 -247 -205c-168 0 -247 117 -247 206c0 105 63 167 148 188zM168 191c0 -59 50 -127 154 -127s154 68 154 127
c0 69 -33 143 -154 143s-154 -80 -154 -143zM193 533c0 -47 34 -116 129 -116s129 69 129 116c0 50 -42 111 -129 111s-129 -61 -129 -111z" />
    <glyph glyph-name="nine.tf" 
d="M85 150l100 21c19 -79 58 -107 113 -107c141 0 163 192 168 297c-16 -52 -82 -104 -168 -104c-134 0 -221 103 -221 231c0 141 113 235 229 235c207 0 256 -195 256 -354c0 -173 -60 -386 -267 -386c-82 0 -178 52 -210 167zM309 337c92 0 141 85 141 148
c0 82 -54 157 -142 157c-77 0 -137 -70 -137 -157c0 -86 66 -148 138 -148z" />
    <glyph glyph-name="uni2007.tf" 
 />
    <glyph glyph-name="parenleft.case" horiz-adv-x="272" 
d="M248 -67h-69c-83 139 -142 284 -142 420c0 135 59 281 142 420h69c-63 -129 -118 -265 -118 -420c0 -156 55 -290 118 -420z" />
    <glyph glyph-name="parenright.case" horiz-adv-x="272" 
d="M93 -67h-69c63 130 118 264 118 420c0 155 -55 291 -118 420h69c83 -139 142 -285 142 -420c0 -136 -59 -281 -142 -420z" />
    <glyph glyph-name="hyphen.case" horiz-adv-x="415" 
d="M57 309v85h301v-85h-301z" />
    <glyph glyph-name="bracketleft.case" horiz-adv-x="299" 
d="M77 -67v840h201v-67h-118v-706h118v-67h-201z" />
    <glyph glyph-name="bracketright.case" horiz-adv-x="298" 
d="M20 -67v67h118v706h-117v67h200v-840h-201z" />
    <glyph glyph-name="braceleft.case" horiz-adv-x="293" 
d="M277 -27v-40c-71 3 -114 7 -148 46c-33 37 -34 85 -34 149v34c0 65 -1 86 -9 110c-13 37 -36 53 -63 62v38c27 9 50 25 63 62c8 24 9 45 9 110v34c0 64 1 112 34 149c35 40 76 40 148 46v-40c-48 -15 -75 -30 -88 -66c-11 -25 -11 -51 -11 -96v-18
c0 -97 -2 -119 -21 -151c-20 -33 -47 -42 -68 -49c21 -7 48 -16 68 -49c19 -32 21 -54 21 -151v-18c0 -45 0 -71 11 -96c13 -36 40 -51 88 -66z" />
    <glyph glyph-name="braceright.case" horiz-adv-x="293" 
d="M16 -67v40c48 15 75 30 88 66c11 25 11 51 11 96v18c0 97 2 119 21 151c20 33 47 42 68 49c-21 7 -48 16 -68 49c-19 32 -21 54 -21 151v18c0 45 0 71 -11 96c-13 36 -40 51 -88 66v40c70 -5 113 -5 148 -46c33 -37 34 -85 34 -149v-34c0 -65 1 -86 9 -110
c13 -37 36 -53 63 -62v-38c-27 -9 -50 -25 -63 -62c-8 -24 -9 -45 -9 -110v-34c0 -64 -1 -112 -34 -149c-34 -39 -79 -43 -148 -46z" />
    <glyph glyph-name="guillemotleft.case" horiz-adv-x="440" 
d="M41 316v75l168 127v-84l-111 -81l111 -81v-84zM210 316v75l168 127v-84l-111 -81l111 -81v-84z" />
    <glyph glyph-name="uni00AD.case" horiz-adv-x="415" 
d="M57 310v85h301v-85h-301z" />
    <glyph glyph-name="guillemotright.case" horiz-adv-x="440" 
d="M62 188v84l111 81l-111 81v84l168 -127v-75zM232 188v84l111 81l-111 81v84l167 -127v-75z" />
    <glyph glyph-name="gravecomb.case" horiz-adv-x="0" 
d="M-202 764l-89 171h93l69 -171h-73z" />
    <glyph glyph-name="acutecomb.case" horiz-adv-x="0" 
d="M-291 764l69 171h93l-89 -171h-73z" />
    <glyph glyph-name="uni0302.case" horiz-adv-x="0" 
d="M-377 764l130 171h75l130 -171h-80l-87 119l-88 -119h-80z" />
    <glyph glyph-name="tildecomb.case" horiz-adv-x="0" 
d="M-360 785v85c21 19 52 36 83 36c27 0 51 -10 76 -19c21 -7 41 -16 60 -16c33 0 61 22 82 50v-85c-21 -20 -53 -37 -84 -37c-25 0 -48 9 -71 17s-43 18 -66 18c-32 0 -59 -21 -80 -49z" />
    <glyph glyph-name="uni0304.case" horiz-adv-x="0" 
d="M-360 816v73h301v-73h-301z" />
    <glyph glyph-name="uni0306.case" horiz-adv-x="0" 
d="M-358 906v23h70v-23c0 -51 23 -90 78 -90s79 39 79 90v23h70v-23c0 -93 -65 -151 -149 -151s-148 58 -148 151z" />
    <glyph glyph-name="uni0307.case" horiz-adv-x="0" 
d="M-260 795v105h100v-105h-100z" />
    <glyph glyph-name="uni0308.case" horiz-adv-x="0" 
d="M-360 795v105h101v-105h-101zM-160 795v105h101v-105h-101z" />
    <glyph glyph-name="uni030A.case" horiz-adv-x="0" 
d="M-209 802c29 0 53 24 53 53c0 31 -24 54 -53 54c-31 0 -54 -23 -54 -54c0 -29 23 -53 54 -53zM-209 758c-54 0 -98 44 -98 97c0 55 43 97 98 97c53 0 97 -43 97 -97c0 -53 -44 -97 -97 -97z" />
    <glyph glyph-name="uni030B.case" horiz-adv-x="0" 
d="M-356 764l69 171h93l-89 -171h-73zM-226 764l69 171h93l-89 -171h-73z" />
    <glyph glyph-name="uni030C.case" horiz-adv-x="0" 
d="M-247 764l-130 171h80l88 -119l87 119h80l-130 -171h-75z" />
    <glyph glyph-name="uni0323.case" horiz-adv-x="0" 
d="M-149 -159v105h100v-105h-100z" />
    <glyph glyph-name="uni0326.case" horiz-adv-x="0" 
d="M-273 -227l37 172h89l-69 -172h-57z" />
    <glyph glyph-name="uni0327.case" horiz-adv-x="0" 
d="M-222 -231v49h32c29 0 51 15 51 44c0 27 -22 41 -51 41h-32v103h52v-55c51 -4 87 -36 87 -89c0 -60 -47 -93 -104 -93h-35z" />
    <glyph glyph-name="uni0328.case" horiz-adv-x="0" 
d="M-122 -231h-32c-77 0 -140 63 -140 140c0 39 15 72 39 97h101v-6c-47 0 -84 -40 -84 -91s37 -91 84 -91h32v-49z" />
    <glyph glyph-name="uni032E.case" horiz-adv-x="0" 
d="M-348 -78v23h70v-23c0 -51 23 -90 78 -90s79 39 79 90v23h70v-23c0 -93 -65 -151 -149 -151s-148 58 -148 151z" />
    <glyph glyph-name="uni0331.case" horiz-adv-x="0" 
d="M-360 -128v73h301v-73h-301z" />
    <glyph glyph-name="endash.case" horiz-adv-x="518" 
d="M57 309v85h404v-85h-404z" />
    <glyph glyph-name="emdash.case" horiz-adv-x="785" 
d="M57 309v85h671v-85h-671z" />
    <glyph glyph-name="guilsinglleft.case" horiz-adv-x="271" 
d="M41 316v75l168 127v-84l-111 -81l111 -81v-84z" />
    <glyph glyph-name="guilsinglright.case" horiz-adv-x="271" 
d="M62 188v84l111 81l-111 81v84l168 -127v-75z" />
    <glyph glyph-name="zero.zero" horiz-adv-x="620" 
d="M310 -17c-180 0 -267 190 -267 369s87 371 267 371s267 -192 267 -371s-87 -369 -267 -369zM140 352c0 -60 10 -120 31 -169l247 400c-27 36 -61 59 -108 59c-117 0 -170 -149 -170 -290zM310 64c115 0 170 147 170 288c0 59 -10 119 -30 168l-248 -399
c27 -35 63 -57 108 -57z" />
    <glyph glyph-name="cedilla.ss01" horiz-adv-x="316" 
d="M50 -209l17 35c16 -9 43 -18 70 -18c32 0 61 15 61 47c0 31 -27 42 -50 42c-17 0 -31 -5 -42 -9l-17 15l65 103h43l-49 -76l2 -2c11 4 18 5 37 5c30 0 79 -16 79 -75c0 -37 -26 -89 -118 -89c-37 0 -71 11 -98 22z" />
    <glyph glyph-name="Ccedilla.ss01" horiz-adv-x="702" 
d="M251 -209l17 35c16 -9 43 -18 70 -18c32 0 61 15 61 47c0 31 -27 42 -50 42c-17 0 -31 -5 -42 -9l-17 15l51 81c-42 3 -80 13 -113 28c-125 60 -191 190 -191 341c0 197 124 370 337 370c163 0 264 -103 302 -227l-96 -20c-29 88 -93 166 -206 166
c-152 0 -238 -136 -238 -289c0 -155 81 -289 238 -289c123 0 194 96 212 188l96 -19c-20 -97 -84 -187 -190 -229c-33 -13 -69 -20 -109 -21l-34 -53l2 -2c11 4 18 5 37 5c30 0 79 -16 79 -75c0 -37 -26 -89 -118 -89c-37 0 -71 11 -98 22z" />
    <glyph glyph-name="ccedilla.ss01" horiz-adv-x="503" 
d="M149 -209l17 35c16 -9 43 -18 70 -18c32 0 61 15 61 47c0 31 -27 42 -50 42c-17 0 -31 -5 -42 -9l-17 15l54 86c-31 2 -59 9 -83 20c-86 44 -126 134 -126 231c0 128 78 254 230 254c138 0 201 -96 214 -167l-89 -16c-5 35 -34 112 -125 112c-96 0 -140 -93 -140 -183
c0 -88 39 -181 140 -181c86 0 119 72 127 120l89 -18c-8 -51 -47 -120 -125 -156c-21 -9 -44 -14 -69 -16l-38 -59l2 -2c11 4 18 5 37 5c30 0 79 -16 79 -75c0 -37 -26 -89 -118 -89c-37 0 -71 11 -98 22z" />
    <glyph glyph-name="Scedilla.ss01" horiz-adv-x="626" 
d="M204 -209l17 35c16 -9 43 -18 70 -18c32 0 61 15 61 47c0 31 -27 42 -50 42c-17 0 -31 -5 -42 -9l-17 15l50 80c-29 2 -57 7 -84 15c-95 28 -167 101 -181 218l99 16c5 -115 92 -168 186 -168c115 0 184 56 184 128c0 80 -65 100 -140 116l-68 15
c-123 27 -242 57 -242 197c0 123 106 203 267 203c167 0 244 -93 265 -202l-99 -18c-19 99 -86 139 -166 139c-91 0 -169 -37 -169 -122c0 -71 79 -89 160 -108l76 -17c108 -24 215 -65 215 -198c0 -94 -64 -168 -169 -198c-28 -9 -58 -14 -91 -15l-34 -54l2 -2
c11 4 18 5 37 5c30 0 79 -16 79 -75c0 -37 -26 -89 -118 -89c-37 0 -71 11 -98 22z" />
    <glyph glyph-name="scedilla.ss01" horiz-adv-x="470" 
d="M124 -209l17 35c16 -9 43 -18 70 -18c32 0 61 15 61 47c0 31 -27 42 -50 42c-17 0 -31 -5 -42 -9l-17 15l54 86c-28 1 -52 6 -73 15c-76 32 -113 94 -119 147l92 20c4 -68 42 -114 117 -114c60 0 114 24 114 79s-57 63 -93 71l-57 11c-60 11 -156 32 -156 138
c0 68 63 138 193 138c92 0 173 -51 192 -151l-86 -17c-8 57 -33 99 -110 99c-73 0 -102 -39 -102 -68c0 -46 60 -61 100 -69l38 -7c77 -13 173 -36 173 -142c0 -71 -53 -121 -127 -141c-17 -5 -34 -8 -53 -9l-38 -59l2 -2c11 4 18 5 37 5c30 0 79 -16 79 -75
c0 -37 -26 -89 -118 -89c-37 0 -71 11 -98 22z" />
    <glyph glyph-name="uni0162.ss01" horiz-adv-x="566" 
d="M175 -209l17 35c16 -9 43 -18 70 -18c32 0 61 15 61 47c0 31 -27 42 -50 42c-17 0 -31 -5 -42 -9l-17 15l61 97h-41v625h-224v81h546v-81h-225v-625h-13l-45 -70l2 -2c11 4 18 5 37 5c30 0 79 -16 79 -75c0 -37 -26 -89 -118 -89c-37 0 -71 11 -98 22z" />
    <glyph glyph-name="uni0163.ss01" horiz-adv-x="311" 
d="M86 -209l17 35c16 -9 43 -18 70 -18c32 0 61 15 61 47c0 31 -27 42 -50 42c-17 0 -31 -5 -42 -9l-17 15l59 94c-20 4 -37 12 -51 23c-21 19 -32 48 -32 87v304h-93v71h93v159h89v-159h102v-71h-102v-283c0 -47 19 -61 54 -61c15 0 31 2 48 5v-71c-15 -3 -39 -8 -68 -8
l-40 -63l2 -2c11 4 18 5 37 5c30 0 79 -16 79 -75c0 -37 -26 -89 -118 -89c-37 0 -71 11 -98 22z" />
    <glyph glyph-name="uni0327.ss01" horiz-adv-x="0" 
d="M-318 -209l17 35c16 -9 43 -18 70 -18c32 0 61 15 61 47c0 31 -27 42 -50 42c-17 0 -31 -5 -42 -9l-17 15l65 103h43l-49 -76l2 -2c11 4 18 5 37 5c30 0 79 -16 79 -75c0 -37 -26 -89 -118 -89c-37 0 -71 11 -98 22z" />
    <glyph glyph-name="uni0327.case.ss01" horiz-adv-x="0" 
d="M-318 -209l17 35c16 -9 43 -18 70 -18c32 0 61 15 61 47c0 31 -27 42 -50 42c-17 0 -31 -5 -42 -9l-17 15l65 103h43l-49 -76l2 -2c11 4 18 5 37 5c30 0 79 -16 79 -75c0 -37 -26 -89 -118 -89c-37 0 -71 11 -98 22z" />
    <glyph glyph-name="Aogonek.ss02" horiz-adv-x="671" 
d="M665 -173l14 -36c-16 -11 -35 -22 -63 -22c-57 0 -105 32 -105 93c0 49 28 92 56 122c7 6 13 11 19 16h-21l-78 210h-304l-78 -210h-104l273 706h124l271 -706h-34c-4 -5 -8 -10 -13 -16c-21 -31 -43 -74 -43 -102c0 -49 30 -63 59 -63c9 0 18 3 27 8zM212 289h246
l-123 334z" />
    <glyph glyph-name="aogonek.ss02" horiz-adv-x="493" 
d="M452 -173l14 -36c-16 -11 -35 -22 -63 -22c-57 0 -105 32 -105 93c0 49 28 92 56 122c6 6 12 11 18 16h-19c-1 5 -7 37 -7 70c-28 -60 -86 -82 -150 -82c-104 0 -164 65 -164 140c0 115 90 139 196 158c13 3 48 7 63 10c55 10 58 29 58 56c0 26 -18 73 -101 73
c-64 0 -107 -31 -112 -102l-90 17c8 45 28 80 60 107c37 31 85 47 142 47c105 0 187 -39 187 -159v-220c0 -67 6 -110 7 -115h-20c-4 -5 -8 -10 -13 -16c-21 -31 -43 -74 -43 -102c0 -49 30 -63 59 -63c9 0 18 3 27 8zM123 132c0 -44 41 -75 86 -75s137 21 137 126v63
c-13 -7 -44 -11 -73 -18l-33 -6c-62 -14 -117 -24 -117 -90z" />
    <glyph glyph-name="Eogonek.ss02" horiz-adv-x="595" 
d="M540 -173l14 -36c-16 -11 -35 -22 -63 -22c-57 0 -105 32 -105 93c0 49 28 92 56 122c6 6 12 11 18 16h-384v706h469v-81h-373v-220h360v-81h-360v-243h382v-81h-44c-4 -5 -8 -10 -13 -16c-21 -31 -43 -74 -43 -102c0 -49 30 -63 59 -63c9 0 18 3 27 8z" />
    <glyph glyph-name="eogonek.ss02" horiz-adv-x="508" 
d="M324 -173l14 -36c-16 -11 -35 -22 -63 -22c-57 0 -105 32 -105 93c0 49 28 92 56 122l6 6c-27 3 -50 9 -71 19c-87 42 -127 131 -127 231c0 132 76 254 221 254c140 0 220 -110 220 -256v-11c0 -3 0 -6 -1 -8h-350c0 -80 42 -162 138 -162c77 0 110 57 121 103l85 -18
c-10 -51 -55 -110 -124 -139c-19 -7 -39 -12 -60 -14c-1 -2 -2 -4 -3 -5c-21 -31 -43 -74 -43 -102c0 -49 30 -63 59 -63c9 0 18 3 27 8zM125 288h257c0 64 -42 137 -127 137c-84 0 -130 -62 -130 -137z" />
    <glyph glyph-name="Iogonek.ss02" horiz-adv-x="248" 
d="M76 0v706h96v-706h-21c-25 -27 -56 -84 -56 -118c0 -49 30 -63 59 -63c9 0 18 3 27 8l14 -36c-16 -11 -35 -22 -63 -22c-57 0 -105 32 -105 93c0 58 40 112 74 138h-25z" />
    <glyph glyph-name="iogonek.ss02" horiz-adv-x="211" 
d="M61 0v482h89v-482h-17c-25 -27 -56 -84 -56 -118c0 -49 30 -63 59 -63c9 0 18 3 27 8l14 -36c-16 -11 -35 -22 -63 -22c-57 0 -105 32 -105 93c0 58 40 112 74 138h-22zM61 607v99h89v-99h-89z" />
    <glyph glyph-name="Uogonek.ss02" horiz-adv-x="700" 
d="M420 -173l14 -36c-16 -11 -35 -22 -63 -22c-57 0 -105 32 -105 93c0 49 28 92 56 122h1c-35 2 -67 8 -95 19c-103 40 -158 130 -158 244v459h96v-459c0 -112 69 -183 184 -183c116 0 183 66 183 183v459h97v-459c0 -132 -67 -215 -168 -247c-27 -9 -55 -14 -85 -16
c-21 -31 -43 -74 -43 -102c0 -49 30 -63 59 -63c9 0 18 3 27 8z" />
    <glyph glyph-name="uogonek.ss02" horiz-adv-x="519" 
d="M470 -173l14 -36c-16 -11 -35 -22 -63 -22c-57 0 -105 32 -105 93c0 49 28 92 56 122c6 6 12 11 18 16h-19v78c-10 -39 -64 -90 -147 -90c-47 0 -98 16 -133 63c-31 41 -35 80 -35 163v268h89v-268c0 -68 4 -96 20 -117c11 -17 37 -38 84 -38c41 0 66 16 89 44
c27 33 32 64 32 149v230h88v-482h-18c-4 -5 -8 -10 -13 -16c-21 -31 -43 -74 -43 -102c0 -49 30 -63 59 -63c9 0 18 3 27 8z" />
    <glyph glyph-name="uni01EA.ss02" horiz-adv-x="745" 
d="M443 -173l14 -36c-16 -11 -35 -22 -63 -22c-57 0 -105 32 -105 93c0 49 28 92 56 122c-47 3 -88 13 -123 30c-127 64 -185 195 -185 336c0 184 102 373 337 373c233 0 334 -189 334 -373c0 -140 -57 -272 -184 -336c-36 -17 -77 -27 -124 -30c-21 -31 -43 -74 -43 -102
c0 -49 30 -63 59 -63c9 0 18 3 27 8zM374 64c164 0 235 143 235 286c0 145 -71 292 -235 292c-165 0 -238 -147 -238 -292c0 -143 73 -286 238 -286z" />
    <glyph glyph-name="uni01EB.ss02" horiz-adv-x="531" 
d="M335 -173l14 -36c-16 -11 -35 -22 -63 -22c-57 0 -105 32 -105 93c0 49 28 92 56 122l6 5c-29 3 -55 10 -78 21c-86 44 -132 137 -132 230c0 123 81 254 233 254c150 0 232 -131 232 -254c0 -93 -46 -186 -133 -230c-21 -11 -44 -17 -69 -20l-4 -6
c-21 -31 -43 -74 -43 -102c0 -49 30 -63 59 -63c9 0 18 3 27 8zM266 59c96 0 141 94 141 181s-45 183 -141 183c-97 0 -143 -96 -143 -183s46 -181 143 -181z" />
    <glyph glyph-name="ogonek.ss02" horiz-adv-x="268" 
d="M204 -173l14 -36c-16 -11 -35 -22 -63 -22c-57 0 -105 32 -105 93c0 64 49 122 85 145h47c-26 -21 -64 -89 -64 -125c0 -49 30 -63 59 -63c9 0 18 3 27 8z" />
    <glyph glyph-name="uni0328.ss02" horiz-adv-x="0" 
d="M-140 -173l14 -36c-16 -11 -35 -22 -63 -22c-57 0 -105 32 -105 93c0 64 49 122 85 145h47c-26 -21 -64 -89 -64 -125c0 -49 30 -63 59 -63c9 0 18 3 27 8z" />
    <glyph glyph-name="uni0328.case.ss02" horiz-adv-x="0" 
d="M-140 -173l14 -36c-16 -11 -35 -22 -63 -22c-57 0 -105 32 -105 93c0 64 49 122 85 145h47c-26 -21 -64 -89 -64 -125c0 -49 30 -63 59 -63c9 0 18 3 27 8z" />
    <glyph glyph-name="Adieresis.ss03" horiz-adv-x="687" 
d="M81 601v105h101v-105h-101zM506 601v105h101v-105h-101zM9 0l273 706h124l271 -706h-104l-78 210h-304l-78 -210h-104zM220 289h246l-123 334z" />
    <glyph glyph-name="Odieresis.ss03" horiz-adv-x="829" 
d="M29 601v105h101v-105h-101zM699 601v105h101v-105h-101zM416 64c164 0 235 143 235 286c0 145 -71 292 -235 292c-165 0 -238 -147 -238 -292c0 -143 73 -286 238 -286zM416 -17c-235 0 -337 183 -337 367s102 373 337 373c233 0 334 -189 334 -373s-101 -367 -334 -367z
" />
    <glyph glyph-name="Udieresis.ss03" horiz-adv-x="700" 
d="M225 601v105h101v-105h-101zM375 601v105h101v-105h-101zM70 247v459h96v-459c0 -112 69 -183 184 -183c116 0 183 66 183 183v459h97v-459c0 -176 -118 -264 -280 -264c-184 0 -280 113 -280 264z" />
    <glyph glyph-name="one.ss04" horiz-adv-x="479" 
d="M22 0v77h177v456h-127v77h31c73 0 108 17 108 96h81v-629h178v-77h-448z" />
    <glyph glyph-name="orn001" 
d="M10 353c0 172 140 312 312 312s312 -140 312 -312s-140 -312 -312 -312s-312 140 -312 312z" />
    <glyph glyph-name="orn002" 
d="M10 353c0 172 140 312 312 312s312 -140 312 -312s-140 -312 -312 -312s-312 140 -312 312zM42 353c0 -155 125 -280 280 -280s280 125 280 280s-125 280 -280 280s-280 -125 -280 -280z" />
    <glyph glyph-name="orn003" 
d="M22 53v600h600v-600h-600z" />
    <glyph glyph-name="orn004" 
d="M22 53v600h600v-600h-600zM54 621v-536h536v536h-536z" />
    <glyph glyph-name="orn005" 
d="M171 -98v902l301 -451z" />
    <glyph glyph-name="orn006" horiz-adv-x="922" 
d="M912 0h-902l451 301z" />
    <glyph glyph-name="orn007" 
d="M171 -98v902h301v-902h-301z" />
    <glyph glyph-name="orn008" horiz-adv-x="922" 
d="M912 0h-902v301h902v-301z" />
    <glyph glyph-name="orn009" 
d="M284 -98v902h75v-902h-75z" />
    <glyph glyph-name="orn010" horiz-adv-x="922" 
d="M912 0h-902v75h902v-75z" />
    </font>
</defs>
</svg>
