<?xml version="1.0" encoding="utf-8"?>
<!-- Generator: Adobe Illustrator 23.0.1, SVG Export Plug-In . SVG Version: 6.00 Build 0)  -->
<svg version="1.1" id="Layer_1" xmlns="http://www.w3.org/2000/svg" xmlns:xlink="http://www.w3.org/1999/xlink" x="0px" y="0px"
	 viewBox="0 0 1200 296" style="enable-background:new 0 0 1200 296;" xml:space="preserve">
<style type="text/css">
	.st0{clip-path:url(#SVGID_2_);}
	.st1{clip-path:url(#SVGID_4_);}
	.st2{clip-path:url(#SVGID_6_);}
	.st3{clip-path:url(#SVGID_8_);}
	.st4{clip-path:url(#SVGID_10_);}
	.st5{clip-path:url(#SVGID_12_);}
</style>
<g>
	<defs>
		<rect id="SVGID_1_" x="546.3" width="430.1" height="195.2"/>
	</defs>
	<clipPath id="SVGID_2_">
		<use xlink:href="#SVGID_1_"  style="overflow:visible;"/>
	</clipPath>
	<g class="st0">
		<defs>
			<rect id="SVGID_3_" x="545.5" y="-0.7" width="431.7" height="196.5"/>
		</defs>
		<clipPath id="SVGID_4_">
			<use xlink:href="#SVGID_3_"  style="overflow:visible;"/>
		</clipPath>
		<g class="st1">
			<path d="M561.6,131.7c-0.2-0.4-0.1-0.9,0.2-1.6c0.4-0.8,0.5-1.7,0.8-2.6c0.8-2.2,1.7-4.4,2.5-6.5c0.1-0.2,0.3-0.4,0.5-0.6
				c0.2-0.3,0.6-0.6,0.5-0.9c-0.2-0.9,0.3-1.7,0.6-2.5c1-2.3,2.2-4.6,3.2-6.9c0,0,0-0.1,0-0.1c0.1-0.5,1.6,0,0.8-1.2
				c-0.2-0.3,0.5-1.2,0.8-1.7c0.2-0.3,0.6-0.5,0.9-0.8c0.3-0.3,0.7-0.7,0.7-1c0-1.1-0.1-1.1,0.8-1.6c-0.1-0.1-0.4-0.3-0.4-0.3
				c0.3-0.6,0.5-1.7,0.9-1.7c1.4-0.2,0.9-1.4,1.4-2c0.2-0.2,0.3-0.5,0.5-0.6c0.5-0.4,0.6-0.9,0.7-1.5c0.3-0.9,0.7-1.8,1.2-2.5
				c0.8-1.1,1.2-2.6,2.4-3.4c0-1.3,1.3-1.8,1.7-2.8c0.2-0.4,0.4-1,1.1-0.9c0.1,0,0.4-0.7,0.6-1.1c0.2-0.7,0.5-1,1.2-1.1
				c-0.3-1.4,0.8-2.2,1.5-3.1c1-1.5,2.3-2.7,3.4-4.1c0.8-0.9,1.4-1.9,2.2-2.8c0.2-0.2,0.5-0.3,0.9-0.5c-0.1-1.1,2-3.7,3.5-4.2
				c-0.4-1.2,0.8-1.8,1.3-2.6c1.2-1.7,2.5-3.4,3.8-5c0.7-0.9,1.5-1.6,2.2-2.5c0.5-0.6,0.8-1.3,1.2-1.9c1-1.3,2-2.5,3-3.7
				c0.3-0.4,0.5-0.8,0.8-1.1c1.3-1.4,2.7-2.7,4-4.1c0.4-0.4,0.8-0.8,1.2-1.3c0.9-1.1,1.8-2.3,2.8-3.4c0.6-0.6,1.3-1.1,1.9-1.7
				c2.6-2.5,5.2-5.1,7.9-7.6c1.6-1.5,3.3-2.7,5-4.1c1.2-1,2.4-2.1,3.6-3.1c2.7-2.3,5.6-4.2,8.8-5.8c1.5-0.8,3.3-0.6,4.9-0.2
				c1.2,0.3,1.7,1.4,1.8,2.6c0.2,1.4-0.3,2.5-1.6,3.1c-2,1-3.6,2.4-5.3,3.7c-2.3,1.9-4.7,3.8-7.1,5.7c-2.2,1.8-4.3,3.5-6.4,5.3
				c-1.8,1.6-3.6,3.3-5.3,5c-1.8,1.8-3.6,3.5-5.3,5.3c-2.4,2.7-4.9,5.3-7.1,8.2c-1.4,2-3.1,3.8-4.6,5.7c-2.8,3.4-5.6,6.9-8.3,10.3
				c-1.7,2.2-3.4,4.5-5.1,6.6c-2.6,3.2-4.8,6.7-7.3,10.1c-0.9,1.2-1.8,2.4-2.6,3.7c-0.8,1.3-1.5,2.7-2.3,4.1c-1.1,2-2.3,4-3.4,6.1
				c-0.7,1.3-1.3,2.6-1.9,3.9c-1.1,2.3-2.2,4.5-3.3,6.8c-0.8,1.7-1.6,3.4-2.2,5.1c-0.8,2-1.6,4-2.2,6c-0.7,2.2-1.1,4.4-1.6,6.6
				c-0.7,3.2-1.4,6.4-1.2,9.8c0.1,0.9,0.1,1.8,0.3,2.7c0.1,0.7,0.7,1,1.3,0.8c1.4-0.4,2.9-0.7,4.3-1.3c4.3-1.8,8.1-4.5,11.5-7.7
				c2.6-2.4,5.3-4.7,7.9-7.2c1.3-1.2,2.4-2.7,3.5-4.1c2.1-2.7,4.3-5.3,6.4-8c2-2.5,3.8-5.1,5.8-7.7c1.2-1.6,2.5-3.2,3.7-4.8
				c2.1-2.7,4.3-5.3,6.4-7.9c1.2-1.5,2.4-2.9,3.6-4.3c1.1-1.3,2.4-2.5,3.5-3.9c0.6-0.7,0.9-1.7,1.5-2.4c1.1-1.6,2.3-3,3.3-4.6
				c0.6-0.9,1.1-2,1.7-3c0.2-0.4,0.6-0.6,0.8-1c1.1-1.6,2.3-3.2,3.1-4.9c1.1-2.4,2.6-4.5,3.7-6.9c1.2-2.9,2.6-5.7,3.9-8.6
				c1.4-3,2.8-6,4.1-9c1.4-3.2,3-6.3,4.2-9.5c1.1-3,2-6,3-9.1c0.3-0.8,0.1-1.3-0.7-1.5c-0.9-0.2-0.8-1.1-1-1.7
				c0-0.2,0.6-0.6,0.9-0.9c0.9-1,2.1-1.4,3.5-1.2c0.3,0,0.6,0.1,0.8,0.3c1.2,1.3,2.7,2.3,3.2,4c0.4,1.5,0.4,3-0.2,4.6
				c-1,2.5-1.9,5-2.8,7.5c-0.4,1-0.9,2.1-1.4,3.1c-1,2.2-2.1,4.5-3.2,6.7c-1.4,3-2.7,6-4.1,9c-1.3,2.9-2.8,5.7-4.2,8.6
				c-1.1,2.4-2.2,4.8-3.4,7.1c-1.4,2.5-2.9,5-4.4,7.5c-1.6,2.6-3.2,5.2-5,7.7c-1.8,2.5-3.7,4.8-5.6,7.2c-1.3,1.7-2.6,3.4-4,5.1
				c-1,1.2-2,2.4-2.9,3.6c-1.5,1.9-2.9,3.8-4.4,5.7c-1.5,1.9-3.1,3.8-4.6,5.7c-1.9,2.4-3.7,4.7-5.6,7.1c-1.5,1.8-3,3.5-4.5,5.3
				c-1.4,1.6-2.7,3.3-4.2,4.9c-1,1.1-2.2,2.1-3.4,3.1c-1.3,1.2-2.7,2.4-4,3.6c-1.5,1.2-2.9,2.5-4.4,3.7c-2.5,1.8-5.1,3.4-8.1,4.3
				c-2.2,0.7-4.4,1.4-6.8,0.8c-1.3-0.3-2.7-0.2-4-0.3c-1.3-0.1-2.6-0.3-3.4-1.3c-0.8-0.9-1.3-1.9-1.9-3c-0.9-1.7-0.3-3.7-1-5.5
				c-0.1-0.3,0.1-0.7,0.3-1.1c0.3-0.7,0.7-1.3,0.1-2c-0.2-0.2-0.1-0.6-0.1-0.8c0.2-2.3,0.3-4.6,1.1-6.9c0.1-0.4,0.1-0.8,0.2-1.2
				C561.2,132.7,561.4,132.3,561.6,131.7z"/>
			<path d="M924.1,148.9c0.1-0.3,0.2-0.6,0.4-0.8c2-1.9,3.6-4,5.2-6.2c0.7-0.9,1.4-1.8,2.1-2.8c1.5-2.2,3.2-4.4,4.2-6.9
				c0.1-0.2,0.2-0.3,0.4-0.5c0.1,0.2,0.2,0.4,0.3,0.5c0.3-0.4,0.6-0.7,0.8-1.1c0.3-0.5,1-0.9,0.7-1.7c-0.1-0.1,0.2-0.6,0.3-0.6
				c0.9,0.2,0.8-0.6,1.1-1c1.1-1.8,2.1-3.6,3.1-5.4c0.7-1.3,1.3-2.8,2.2-4c2.1-3.2,3.3-6.9,5.2-10.2c0.5-0.9,1-1.9,1.5-2.9
				c0.6-1.3,1-2.6,1.6-3.8c0.4-1,0.9-1.9,1.3-2.9c0.6-1.3,1-2.6,1.7-3.8c1-1.7,1.4-3.5,2.2-5.2c1.2-2.6,2-5.4,3.1-8.1
				c0.6-1.6,1-3.2,1.3-4.8c0-0.2,0.2-0.3,0.3-0.5c0.3-0.5,0.5-0.8,0.5-1.5c-0.1-0.6,0.3-1.3,0.4-1.9c0.2-0.8,0.2-1.6,0.4-2.4
				c0.6-2.7,1.1-5.3,1.7-8c0.5-2.2-0.4-4.1-1.2-6c-0.2-0.6-1-0.9-1.6-1.3c-0.4-0.3-1.2-0.3-1.1-1.1c0-0.5,0-0.9,0.1-1.4
				c-0.4,0-0.7-0.1-1.1-0.1c0,0,0-0.1,0-0.1c0.4-0.1,0.8-0.2,1.1-0.4c0.3-0.1,0.5-0.3,0.7-0.5c0.2-0.2,0.4-0.6,0.6-0.5
				c0.5,0.1,1,0.6,1.5,0.5c0.5-0.1,0.8-0.6,1.3,0c0.4,0.4,1,0.5,1.6,0.8c0.8,0.3,1,1.1,1.4,1.8c1,1.8,2.2,3.4,2.6,5.4
				c0.4,1.8,0.7,3.7,0.3,5.6c-0.3,1.5-0.3,3.1-0.6,4.7c-0.3,2-0.7,4-1.2,6c-0.8,3.3-1.6,6.6-2.7,9.8c-0.9,2.6-2,5.2-3.1,7.8
				c-1.3,3-2.6,5.9-3.9,8.9c-1.2,2.6-2.4,5.2-3.6,7.8c-0.7,1.5-1.4,2.9-2.2,4.3c-0.3,0.6-0.7,1.1-1,1.6c-0.8,1.6-1.4,3.3-2.2,4.8
				c-1.2,2.3-2.4,4.5-3.6,6.7c-1.3,2.3-2.5,4.5-3.8,6.8c-0.7,1.1-1.5,2.2-2.2,3.3c-2.5,4.3-5.1,8.4-8.1,12.3
				c-0.7,0.9-1.5,1.6-2.3,2.4c-1.6,1.6-3.1,3.2-4.8,4.7c-1.8,1.6-3.9,3-5.7,4.6c-2.4,2-5.1,3.4-7.9,4.7c-2,0.9-4.1,1.6-6.3,1.9
				c-1.9,0.2-3.9-0.2-5.7-0.9c-0.8-0.3-1.8-0.3-2.5-0.7c-1.1-0.6-2-1.5-2.9-2.3c-1.4-1.4-2.2-3.3-2.4-5.2c-0.3-1.9-0.7-3.9-0.2-6
				c0.3-1.6,0.4-3.2,0.6-4.8c0.1-1,0.2-2.1,0.5-3.1c0.9-3.2,1.8-6.5,2.8-9.6c1-2.9,2.2-5.7,3.3-8.5c0.3-0.8,0.9-1.6,1.3-2.4
				c0.3-0.7,0.7-1.3,1-2c0.9-1.9,1.7-3.8,3-5.6c1.3-1.8,2.3-3.9,3.6-5.8c1.7-2.4,3.4-4.8,5.2-7.2c2.3-3.2,4.6-6.4,6.9-9.6
				c1.3-1.8,2.6-3.5,3.9-5.3c1.5-2,3-4,4.5-6.1c0.2-0.3,0.2-0.7,0.3-1.1c0-0.1,0.1-0.3,0.2-0.3c1.6-0.5,2-2.1,2.8-3.2
				c1.6-2.4,3.2-4.7,4.9-7c1.2-1.6,2.2-3.4,3.4-5c1-1.4,2-2.8,3-4.1c1.6-2,3.2-4,4.9-5.9c1.9-2,4-3.6,6.6-4.5c0.7-0.2,1.7,0,2.4,0.3
				c0.6,0.2,1,0.7,1.7,0.7c0.6,0,0.6,0.6,0.4,1.1c-0.1,0.2-0.4,0.4-0.3,0.5c0.7,2.3-1.4,3.1-2.4,4.4c-1.5,1.8-3.2,3.3-4.7,5
				c-1.5,1.8-2.9,3.7-4.3,5.5c-1.8,2.4-3.6,4.8-5.3,7.2c-1.7,2.3-3.5,4.6-5.3,6.9c-1.9,2.5-3.8,5-5.8,7.5c-2.2,2.8-4.3,5.7-6.5,8.5
				c-1.8,2.3-3.7,4.6-5.4,7c-1.7,2.3-3.2,4.6-4.7,7c-1.1,1.7-2.3,3.5-3.3,5.3c-1.2,2.2-2.3,4.4-3.4,6.6c-1,1.9-1.8,3.9-2.7,5.9
				c-0.3,0.6-0.4,1.2-0.6,1.7c-1,2.9-2.3,5.8-3.1,8.8c-0.9,3.3-1.7,6.6-2.1,10c-0.3,2.8-0.5,5.6,0.5,8.4c0.5,1.4,1.1,2.3,3.2,1.9
				c3-0.5,5.5-2.1,8.1-3.6c3.5-2,6.6-4.4,9.4-7.4c0.6-0.6,1.2-1.2,1.8-1.7C923.5,149,923.8,149,924.1,148.9z"/>
			<path d="M769,112.4c-0.5,0.7-0.9,1.2-1.3,1.8c0.1,0,0.1,0.1,0.2,0.1c1.3-0.9,2.6-1.8,3.9-2.8c-0.6-0.2-0.6-0.2-2,0.3
				c0.2-0.2,0.3-0.5,0.5-0.6c1.6-0.6,3.1-1.2,4.7-1.8c1.2-0.4,2.3-0.8,3.5-1.1c1.2-0.3,2.5-0.5,3.7-0.6c1.3-0.1,2.7,0,4.2,0
				c-0.3-0.2-0.5-0.4-0.7-0.6c0.8-0.7,1.7-0.5,2.5-0.4c2.5,0.3,4.9,0.8,7.4,1.2c0.2,0,0.5,0.1,0.7,0.2c1.8,1.2,3.8,2.2,5.4,3.7
				c2.5,2.3,4.2,5.1,5.1,8.4c0.7,2.5,1,5,1.3,7.4c0.3,2.5,0.3,5-0.3,7.5c-0.3,1.4-0.7,2.9-1.1,4.3c-0.6,1.9-1.9,3.3-3.1,4.8
				c-2,2.4-4.6,4.1-7.1,5.8c-3.4,2.2-7,4.2-10.8,5.6c-2.4,0.9-4.9,1.6-7.4,2.2c-0.9,0.2-1.9,0.3-2.9,0.2c-1.7-0.1-3.4-0.1-5.1-0.4
				c-1.1-0.2-2.2-0.5-3.2-1c-1.8-0.8-3.6-1.7-5.3-2.8c-2.3-1.6-4.1-3.6-5.2-6.2c-0.3-0.8-0.4-1.7-0.6-2.5c-0.1-0.6-0.2-1.1-0.2-1.7
				c-0.1-1.8-0.3-3.6-0.4-5.5c0-1.8,0-3.5,0.1-5.3c0.1-3.1,0.3-6.3,1.2-9.3c0.4-1.5,0.5-3,0.9-4.5c0.3-1.4,0.8-2.8,1.3-4.1
				c0.8-2,1.6-4.1,2.5-6.1c1.4-3,2.8-6.1,4.3-9.1c1.3-2.6,2.8-5.1,4.2-7.6c0.8-1.3,1.7-2.5,2.5-3.8c0.5-0.7,0.8-1.4,1.3-2.1
				c1.8-2.8,3.5-5.5,5.4-8.2c1.8-2.7,3.7-5.3,5.5-8c2.4-3.6,4.7-7.2,7.2-10.8c1.1-1.5,2.3-2.9,3.5-4.4c0.3-0.3,0.5-0.7,0.8-1
				c1.3-1.7,2.9-3.2,4.8-4.3c0.7-0.4,1.4-0.9,2.2-1.2c1.7-0.5,3.4-1.1,5.2-0.2c1.5,0.7,2.5,2.4,2.2,3.9c-0.1,0.4-0.4,0.8-0.8,1
				c-3.1,1.3-5.4,3.6-7.6,6c-1.7,1.9-3.2,4-4.8,6.1c-1,1.3-1.9,2.5-2.8,3.8c-1.7,2.5-3.4,5-5.1,7.5c-2.6,3.7-5.2,7.4-7.7,11.2
				c-2.2,3.4-4.3,6.9-6.4,10.4c-1.1,1.9-2.3,3.8-3.3,5.9c-1.2,2.4-2.2,4.9-3.2,7.4C768.9,111.8,769,112.2,769,112.4z M767.4,115
				c-0.5,1.8-1.1,3.5-1.6,5.2c-0.5,2.1-0.8,4.3-1.3,6.5c-0.7,3.2-0.9,6.5-0.9,9.8c0,2.4,0.1,4.8,0.3,7.2c0.1,1.7,0.8,3.2,1.7,4.6
				c1.1,1.7,2.7,2.6,4.4,3.4c1.4,0.7,2.9,0.9,4.3,0.9c2,0,3.8-0.6,5.6-1.4c2.7-1.2,5.3-2.6,7.9-3.9c2.7-1.2,5-2.9,7.3-4.7
				c3-2.5,4.5-5.8,5.5-9.5c0.2-0.6,0.2-1.3,0.2-2c0-2.7,0.1-5.3-0.7-8c-0.1-0.3,0.2-0.7,0.2-0.9c-0.2-0.5-0.4-0.8-0.6-1.2
				c-0.4-1.1-0.7-2.2-1.3-3.2c-2.1-3.9-4.7-4.4-8.5-4.3c-1.9,0.1-3.7,0.4-5.6,0.7c-2,0.3-3.9,0.6-5.9,0.9c-2.4,0.5-4.9,1.1-7.3,1.6
				c-1.3,0.3-2.4-0.5-2.5-1.7C768.4,115.1,768,115.1,767.4,115z"/>
			<path d="M901,49.9c-0.6,0.2-1.1,0.4-1.7,0.6c-3.4,1-6.5,2.4-9.6,4.1c-2.4,1.4-4.7,2.9-7,4.4c-0.6,0.4-1,1-1.7,1.3
				c-1.8,0.7-3.5,0.6-5.2-0.4c-0.3-0.2-0.7-0.4-1.1-0.6c-1.6-0.8-2-2-0.7-3.3c1.5-1.5,3.1-2.9,4.8-4.2c2.1-1.5,4.3-2.8,6.6-4
				c1.9-1,3.8-1.8,5.8-2.6c1-0.4,2-1.1,3.1-1.3c2.1-0.4,4-1.5,6.2-1.3c1.3,0.2,2.7,0.5,4,0.8c0.2,0,0.3,0.1,0.4,0.2
				c1.7,1.4,3.2,3,3.8,5c0.6,1.9,1,4,0.5,6c-0.3,1.5-0.5,3.1-0.6,4.7c-0.1,2.4-0.8,4.7-1.4,7.1c-1,4.1-2.2,8.1-3.8,12
				c-1.1,2.6-2.1,5.2-2.9,7.8c-1.5,4.8-3.6,9.4-5.7,13.9c-1.7,3.8-3.7,7.5-5.6,11.3c-1.7,3.3-3.5,6.6-5.3,9.8
				c-1.5,2.6-3.1,5-4.6,7.5c-1.5,2.5-3,5.1-4.6,7.6c-1.4,2.2-3,4.4-4.4,6.7c-2,3.4-4,6.8-5.9,10.2c-0.2,0.3-0.2,0.6-0.3,1
				c0.3,0,0.5,0,0.7-0.1c2.9-1.2,5.7-2.5,8.6-3.6c3.3-1.3,6.7-2.2,10.2-2.5c1.1-0.1,2.2-0.1,3.2,0c0.8,0.1,1.5,1.1,1.5,1.9
				c0.1,0.6,0.3,1.1-0.3,1.8c-0.5,0.6-1,0.9-1.6,1.2c-2.5,1.3-5.1,2-7.8,2.8c-1.1,0.3-2.1,0.9-3.1,1.3c-3,1.3-6.1,2.6-9.2,4
				c-0.8,0.4-1.5,0.9-2.3,1.2c-1.7,0.8-3.4,1.5-5.1,2.2c-0.2,0.1-0.3,0-0.5,0.1c-2.7,1.6-5.2,0.5-7.7-0.6c-1.2-0.5-1.3-1.7-0.5-2.7
				c1-1.3,2.1-2.5,3-3.9c1.1-1.7,2.1-3.5,3-5.3c0.7-1.3,1.4-2.7,2.1-4c1.9-3.1,3.7-6.2,5.7-9.3c1.8-2.9,3.8-5.7,5.6-8.5
				c1-1.5,1.8-3,2.7-4.5c1.3-2.1,2.6-4.1,3.9-6.2c1.6-2.7,3.2-5.3,4.8-8c1-1.7,2.1-3.5,3-5.3c0.8-1.5,1.4-3.2,2.1-4.7
				c0.7-1.6,1.5-3.1,2.2-4.7c0.5-1.1,0.9-2.3,1.3-3.5c0.1-0.2,0.1-0.5,0.2-0.7c1.3-2.3,1.9-4.9,2.8-7.3c2.2-6,4.2-12.1,5.6-18.3
				c0.7-2.9,1.2-5.9,1.7-8.9c0.4-2.6,0.6-5.2,0.9-7.8C901.2,50.1,901.1,50,901,49.9z"/>
			<path d="M682.5,34.4c3.2,0.2,4.8,2.1,5.1,4.6c0.1,1-0.2,2.1-0.6,3c-0.9,2.5-1.9,4.9-2.9,7.4c-1.2,3-2.3,6-3.4,9
				c-1.2,3.2-2.5,6.4-3.7,9.7c-0.5,1.3-0.9,2.7-1.4,4c-1,2.9-2.1,5.7-3.2,8.6c-0.7,1.9-1.5,3.7-2.3,5.6c-0.7,1.8-1.3,3.6-2.1,5.3
				c-0.9,1.9-1.9,3.8-2.8,5.7c-0.6,1.1-1.1,2.3-1.7,3.4c-0.8,1.6-1.7,3.2-2.5,4.8c-0.4,0.8-0.7,1.7-1.2,2.5c-1.1,2-2.2,4.1-3.3,6.1
				c-1.4,2.6-2.7,5.3-4.1,7.9c-1.2,2.4-2.5,4.8-3.7,7.2c-1.5,3-2.9,6-4,9.2c-1.1,3.3-2.2,6.6-3.5,9.8c-0.6,1.5-1.6,2.8-2.6,4.1
				c-0.5,0.7-1.2,0.9-2.2,0.6c-1.6-0.5-3.3-0.7-5-1.1c-0.8-0.2-0.8-0.9-1.1-1.4c-0.5-0.6-0.2-1,0.3-1.4c2.4-2.3,3.6-5.2,4.5-8.3
				c0.4-1.5,1.2-3,1.8-4.5c0.9-2.1,1.8-4.3,2.7-6.4c0.6-1.2,1.2-2.5,1.8-3.7c0.9-1.7,1.8-3.4,2.8-5.1c2-3.6,4-7.2,6-10.9
				c1.5-2.8,2.9-5.6,4.3-8.3c0.9-1.8,1.8-3.6,2.7-5.4c0.5-1,0.8-2.1,1.3-3.2c0.5-1.1,1.1-2.2,1.6-3.3c0.2-0.4,0.3-0.8,0.5-1.2
				c0.7-1.9,1.5-3.7,2.2-5.6c1-2.7,2-5.4,3-8.1c0.9-2.6,1.7-5.2,2.6-7.8c1.1-3.1,2.2-6.2,3.3-9.2c0.7-1.9,1.3-3.9,2-5.8
				c0.6-1.5,1.3-3,1.9-4.4c0.7-1.6,1.4-3.3,2-5c0.5-1.4,0.7-2.9,1.2-4.3c0.5-1.5,1.2-2.9,2.6-3.8C682,34.5,682.4,34.5,682.5,34.4z"
				/>
			<path d="M713.5,149.7c0.4-1.6,0.7-3.4,1.2-5.2c0.7-2.5,1.6-5,2.4-7.6c1-3.2,2-6.5,3.1-9.7c0.7-2,1.4-4,2.1-6.1
				c0.8-2.2,1.5-4.5,2.2-6.7c0.8-2.6,1.7-5.3,2.5-7.9c0.3-1,0.7-2,1-2.9c0-0.1,0.2-0.2,0.2-0.3c-0.5-1.7,0.8-2.8,1.1-4.3
				c0.2-1.3,0.6-2.5,1-3.7c0.4-1.2,0.9-2.4,1.3-3.6c0.7-2.3,1.7-4.6,2-7c0.1-0.6,0.3-1.1,0.5-1.7c0.9-2.9,1.9-5.7,2.8-8.6
				c0.7-2.2,1.2-4.4,1.8-6.5c0.4-1.5,1-2.9,1.5-4.4c1-3.1,1.9-6.3,2.9-9.4c1.3-4,2.6-8,3.9-12.1c0.4-1.3,0.8-2.6,1.1-4
				c0.8-3.2,2.5-3.1,4.9-2.6c2.5,0.5,3.7,2.9,3.2,5.4c-0.6,3-1.2,6-2.2,8.9c-0.9,2.5-1.7,5.1-2.6,7.6c-1.3,3.9-2.7,7.7-4,11.6
				c-1.4,4.2-2.5,8.5-3.8,12.7c-0.4,1.3-1,2.5-1.5,3.8c-0.6,1.6-1,3.3-1.5,5c-0.4,1.2-0.9,2.4-1.3,3.6c-0.4,1.1-0.6,2.3-1,3.4
				c-1.1,3.7-2.2,7.4-3.3,11.1c-0.7,2.5-1.5,4.9-2.3,7.3c-0.9,2.7-1.9,5.4-2.8,8c-0.9,2.5-1.7,5-2.5,7.5c-0.9,2.8-1.8,5.7-2.7,8.5
				c-0.6,2.1-1.3,4.2-1.8,6.3c-0.4,1.5-0.7,3.1-0.9,4.6c-0.2,1.4-0.8,1.8-2.2,1.8c-0.7,0-1.5,0-2.2,0.3c-0.6,0.2-1-0.1-1.4-0.4
				c-0.4-0.3-0.8-0.7-1.4-0.3c-0.1,0.1-0.7-0.3-0.7-0.6C713.7,151.2,713.7,150.6,713.5,149.7z"/>
			<path d="M834.7,142.7c-2.2-0.1-3.9-1.1-5.3-2.7c-0.7-0.8-0.6-1.6,0.2-2.3c0.8-0.7,1.5-1.5,2.4-2.1c1-0.7,2.4-0.7,3.4-0.2
				c1.6,0.8,3,1.8,3.5,3.8c0.2,1.1-0.3,1.8-0.6,2.6c-0.1,0.3-0.6,0.5-0.9,0.5C836.5,142.5,835.6,142.6,834.7,142.7z"/>
			<path d="M672,130c2.4-0.1,5.2,2.5,4.8,5.3c-0.1,0.6-1,1.6-1.7,1.9c-1.7,0.7-3.3,0.2-5.1-0.2c-0.9-0.2-1.4-0.8-2.1-1.3
				c-0.6-0.4-0.7-2.3-0.2-2.9c0.6-0.8,1.3-1.6,2.3-1.9C670.7,130.6,671.4,130.3,672,130z"/>
		</g>
	</g>
</g>
<g>
	<defs>
		<rect id="SVGID_5_" x="957.5" width="242.5" height="195.2"/>
	</defs>
	<clipPath id="SVGID_6_">
		<use xlink:href="#SVGID_5_"  style="overflow:visible;"/>
	</clipPath>
	<g class="st2">
		<defs>
			<rect id="SVGID_7_" x="956.8" y="-0.8" width="243.8" height="196.5"/>
		</defs>
		<clipPath id="SVGID_8_">
			<use xlink:href="#SVGID_7_"  style="overflow:visible;"/>
		</clipPath>
		<g class="st3">
			<path d="M978.2,104.7c1.1-1.2,2.6-1.5,4.2-1.5c3,0,5.9,0.1,8.9,0c2.5,0,5-0.2,7.5-0.2c3.2,0,6.5,0.2,9.7,0.2
				c3.3,0,6.6-0.2,9.9-0.2c5.7-0.1,11.3-0.1,17-0.3c4.8-0.1,9.5-0.4,14.3-0.5c2.6-0.1,5.2,0.1,7.8,0c2.8-0.1,5.6-0.5,8.4-0.7
				c0.6-0.1,1.3,0,1.9,0c2.2-0.1,4.3-0.2,6.5-0.3c3-0.1,6-0.2,9-0.3c2.7-0.1,5.4-0.1,8-0.3c2-0.1,4.1-0.4,6.1-0.5
				c2.2-0.1,4.5,0,6.7,0c2.1,0,4.3-0.2,6.4-0.3c0.6,0,1.1,0,1.7,0c4.1,0,8.1,0,12.2,0c2.6,0,5.3,0,7.9,0c3.9,0.1,7.8,0.2,11.6,0.4
				c3.4,0.1,6.9,0.2,10.3,0.4c3.3,0.1,6.6,0.3,9.9,0.5c3.5,0.2,7,0.5,10.5,0.8c4.2,0.4,8.3,0.9,12.5,1.2c1.3,0.1,2.7-0.2,4-0.2
				c1.1,0,3.5,1.6,3.6,2.4c0.2,1.2,0.2,2.4,0.6,3.5c0.3,1,0.1,1.8-0.5,2.4c-0.4,0.4-1.1,0.4-1.7,0.6c-0.1,0-0.2,0-0.4,0
				c-2.7-0.2-5.3-0.3-8-0.5c-2.8-0.3-5.5-0.7-8.3-1c-2.1-0.2-4.1-0.4-6.2-0.5c-3.8-0.3-7.7-0.7-11.5-1c-1.5-0.1-3-0.2-4.5-0.3
				c-3.4-0.1-6.8-0.1-10.2-0.3c-5.3-0.2-10.5-0.5-15.8-0.6c-2-0.1-4,0.1-6,0.1c-1.4,0-2.8-0.2-4.2-0.2c-1.4,0-2.9,0-4.3,0
				c-3.7,0.1-7.4,0.1-11.1,0.3c-4.1,0.1-8.1,0.3-12.2,0.5c-5.2,0.2-10.4,0.3-15.6,0.5c-3.2,0.1-6.3,0.4-9.5,0.5
				c-4.9,0.2-9.8,0.3-14.7,0.5c-3.4,0.1-6.7,0.4-10.1,0.5c-5,0.1-10,0.1-15,0.3c-4,0.1-8,0.4-12,0.5c-5.3,0.1-10.5,0-15.8,0
				c-3.5,0-6.9,0.3-10.4,0.4c-2.2,0.1-4.5-0.2-6.4-1.4c-1.2-0.8-1.8-2.5-2.6-3.8C978.2,105.9,978.3,105.2,978.2,104.7z"/>
		</g>
	</g>
</g>
<g>
	<defs>
		<rect id="SVGID_9_" y="123.8" width="529.9" height="179.7"/>
	</defs>
	<clipPath id="SVGID_10_">
		<use xlink:href="#SVGID_9_"  style="overflow:visible;"/>
	</clipPath>
	<g class="st4">
		<defs>
			<rect id="SVGID_11_" x="-0.7" y="123.1" width="531.2" height="181.1"/>
		</defs>
		<clipPath id="SVGID_12_">
			<use xlink:href="#SVGID_11_"  style="overflow:visible;"/>
		</clipPath>
		<g class="st5">
			<path d="M100.3,188.3c0.8,0.1,1.2-0.4,1.3-1.5c0-0.3,0.2-0.6,0.3-0.9c0.2-0.4,0.5-0.9,0.6-1.3c0.3-1.1,0.5-2.3,0.9-3.5
				c0.4-1.2,1-2.3,1.4-3.5c0.2-0.6,0.5-1.2,0.6-1.8c0.6-2,1.2-4,1.7-6c0.7-2.9,1.4-5.8,1.9-8.7c0.6-4.3,1.2-8.7,0.6-13.1
				c-0.3-2-0.6-4.1-0.8-6.1c-0.2-1.9-3.1-4.4-5-4.4c-1,0-2,0.2-3.1,0.2c-0.8,0-1.6,0-2.4,0c-1.9,0.1-3.7,0.2-5.6,0.2
				c-0.4,0-0.7-0.2-1.4-0.4c2.1-0.6,3.8-1.2,5.5-1.7c0-0.1,0-0.2,0-0.2c-0.8,0-1.5,0.1-2.3,0.1c0-0.1-0.1-0.1-0.1-0.2
				c0.4-0.2,0.8-0.4,1.3-0.6c-0.3-0.1-0.5-0.2-0.9-0.3c0.9-0.2,1.7-0.4,2.4-0.6c0.1,0.1,0.2,0.2,0.3,0.3c-0.3,0.1-0.6,0.3-1,0.4
				c0,0.1,0.1,0.1,0.1,0.2c0.3,0,0.6,0.1,0.9,0.1c0,0.2-0.1,0.4-0.1,0.8c1.3-0.8,2.4-1.5,3.4-2.1c0.3,0,0.6,0,0.8-0.1
				c1.4-1.2,1.9-1.2,3.6-0.4c0.6,0.3,1.2,0.4,1.9,0.5c3.1,0.4,4.6,2.8,6,5.2c0.8,1.3,1.4,2.6,1.9,4c0.4,1,0.6,2.2,0.7,3.3
				c0.2,2.4,0.5,4.9,0.4,7.3c-0.2,4.2-0.2,8.5-1.3,12.6c-1,3.8-1.7,7.7-2.8,11.5c-0.8,2.8-1.9,5.6-2.9,8.3c-1.1,3-2.2,6-3.3,9
				c-0.9,2.4-1.6,4.9-2.6,7.4c-0.8,2-1.7,3.9-2.6,5.8c-1.9,4.1-3.8,8.2-5.9,12.2c-1.3,2.4-2.9,4.7-4.4,6.9c-1.7,2.4-3.4,4.8-5.2,7.2
				c-1.2,1.6-2.6,3.3-4,4.8c-2.3,2.5-4.7,5-7.2,7.4c-4,3.7-7.9,7.4-12.2,10.8c-3.3,2.6-7,4.4-10.9,5.4c-1.8,0.5-3.9,0.1-5.8-0.1
				c-3.5-0.5-6.6-1.7-9.5-3.7c-1.8-1.2-3.1-2.9-4.2-4.8c-1-1.8-2.3-3.4-3.1-5.2c-1-2.2-2.1-4.4-2.2-6.8c-0.1-2.4-0.5-4.7-0.4-7.1
				c0.1-2.6,0.5-5.1,1.2-7.6c1-4,2.2-8.1,3.5-12c1.1-3.2,2.5-6.3,3.9-9.4c1.1-2.5,2.2-5,3.4-7.4c2-4,4-7.9,6-11.9
				c1.7-3.3,3.4-6.5,5.3-9.7c2.5-4.1,5.1-8.2,7.8-12.1c2.8-4,5.7-7.8,8.7-11.6c2.2-2.7,4.4-5.4,6.8-8c2-2.2,4.1-4.4,6.4-6.3
				c1.8-1.6,4-2.4,6.4-2.3c0.9,0.1,2.4,0,2.8,1.5c0,0,0.1,0.1,0.1,0.1c0.5,0.6,1.6,1.1,1.1,2c-0.5,1-1.2,2-2.1,2.6
				c-2.6,1.5-4.7,3.7-6.8,5.8c-1.9,2-3.9,4.1-5.7,6.2c-2.2,2.6-4.4,5.3-6.5,8c-1.6,2.1-3.2,4.1-4.7,6.3c-2.3,3.4-4.5,6.8-6.6,10.3
				c-2.4,4-4.6,8.1-6.8,12.2c-1.6,2.9-3.2,5.9-4.6,9c-1.3,2.8-2.5,5.7-3.7,8.6c-1.3,3-2.7,5.9-3.8,8.9c-1,2.6-1.7,5.3-2.4,8
				c-0.6,2.2-1.1,4.4-1.4,6.6c-0.6,3.4-0.5,6.9,0.4,10.3c1.1,4.1,3.3,7.6,5.8,10.9c1.3,1.7,3.5,2.5,5.6,3c2,0.5,4,0.1,6-0.3
				c0.4-0.1,0.6-0.4,1-0.6c3.2-1.7,5.8-4.1,8.4-6.5c1.1-1,2.1-1.9,3.2-2.9c3.4-3.4,6.9-6.7,10.1-10.2c2.4-2.6,4.6-5.4,6.8-8.2
				c1.2-1.5,2-3.2,3.1-4.8c0.7-1,1.5-1.8,2.1-2.8c0.8-1.4,1.4-2.9,2.2-4.3c1-1.8,2.1-3.5,3.1-5.3c1.1-2,2-4,2.9-6.1
				c1-2.2,2.1-4.4,3-6.7c0.4-1,0.7-2.2,1-3.3c0.1-0.3,0.1-0.6,0.1-0.9c0.3-1.1,0.5-2.3,1.1-3.2C100.4,190,99.7,189,100.3,188.3z"/>
			<path d="M497,151.3c1-1.3,3-1,3.8-2.9c0.9,0.1,2.2,0.3,3.5,0.3c0.2,0,0.4-0.3,0.7-0.5c-0.7-0.3-1.1-0.5-1.6-0.7
				c0-0.1,0.1-0.2,0.1-0.3c0.6,0.2,1.1,0.3,1.7,0.5c0-0.1,0.1-0.2,0.1-0.3c-0.3-0.2-0.6-0.5-0.8-0.7c0-0.1,0-0.2,0.1-0.3
				c0.6,0.1,1.3,0.1,1.9,0.3c0.7,0.2,1.4,0.4,2,0.8c0.8,0.6,1.9,0.3,2.7,1.1c1.1,1.2,2.7,2,3.7,3.3c1.4,1.8,2.6,3.9,3.6,5.9
				c0.9,1.9,1.5,4,2.1,6c1.1,4,1.5,8.2,1.2,12.3c-0.3,3.1-1,6.1-1.7,9.2c-0.5,2.2-1.2,4.3-2,6.5c-0.9,2.4-2,4.8-2.9,7.3
				c-1.4,3.4-2.6,6.8-4.2,10.1c-2,4.1-4.2,8.2-6.4,12.2c-1.4,2.4-2.9,4.8-4.5,7.1c-1.5,2.3-3.2,4.5-4.8,6.7
				c-1.7,2.4-3.3,4.9-4.9,7.3c-1.3,1.9-2.7,3.8-4,5.7c-1.5,2.2-2.9,4.4-4.4,6.5c-1.2,1.6-2.4,3.1-3.7,4.5c-1.9,2-3.7,4-5.8,5.6
				c-3.2,2.3-6.6,4.5-10.1,6.3c-2.3,1.2-4.9,1.4-7.6,0.9c-2.4-0.4-4.6-1-6.5-2.5c-1.9-1.4-3.3-3.2-3.9-5.6c-0.6-2.7-1.6-5.3-2.2-7.9
				c-0.5-1.9-0.8-3.8-1-5.7c-0.2-3.1-0.4-6.3-0.2-9.4c0.3-4.1,0.9-8.2,1.5-12.3c0.3-2,0.6-4,1.1-6c0.4-1.9,1.1-3.8,1.6-5.7
				c0.6-2.2,1.1-4.5,1.7-6.7c0.6-2.1,1.3-4.1,2-6.1c0.8-2.2,1.7-4.3,2.7-6.4c1-2.2,2-4.5,3.4-6.5c1.9-2.6,3.5-5.4,5.2-8.1
				c0.4-0.7,1-1.3,1.5-2c1.9-2.6,3.8-5.2,5.6-8c1.6-2.6,3-5.3,4.6-7.9c1.1-1.9,2.4-3.7,3.6-5.5c1.1-1.7,2-3.5,3.2-5.1
				c1.4-1.8,2.5-3.8,4.8-4.7c1.5-0.7,3.1-0.8,4.4-0.1c1.3,0.6,2.1,2,2.3,3.6c0.1,1.4-0.6,2.1-1.4,3c-1.5,1.5-3,3.2-4.2,4.9
				c-3.3,4.7-6.6,9.5-9.8,14.2c-1.6,2.4-3.2,4.8-4.8,7.2c-2.5,3.7-5.2,7.3-7.6,11.1c-1.6,2.6-3,5.5-4.2,8.3
				c-1.4,3.4-2.7,6.8-3.8,10.3c-1.6,5.3-3,10.6-4.2,16c-0.6,2.9-0.8,5.9-1,8.8c-0.2,2.9-0.4,5.8-0.5,8.7c-0.1,3.7,0.5,7.3,1.7,10.8
				c0.8,2.5,1.5,5.1,2.3,7.6c0.7,2.1,3.8,2.4,5.3,1.6c3.3-1.8,6.6-3.5,9.6-5.7c3-2.2,5.4-5,7.5-8.1c1-1.5,2.2-2.9,3.2-4.4
				c1.4-1.9,2.8-3.7,4.1-5.6c1.4-1.9,2.9-3.9,4.4-5.8c1-1.3,2-2.5,2.9-3.9c0.6-0.8,0.8-1.9,1.3-2.7c1.1-1.6,2.3-3,3.4-4.6
				c1.3-2,2.5-4,3.7-6c1.5-2.5,3.1-5.1,4.5-7.7c0.6-1.1,1-2.3,1.5-3.4c1.1-2.5,2.1-5,3.2-7.6c0.7-1.5,1.3-3,2-4.6
				c0.4-0.9,0.8-1.8,1.2-2.7c0.5-1.2,0.9-2.4,1.4-3.6c0.2-0.5,0.5-1,0.7-1.6c0.8-2.7,1.7-5.3,2.4-8c0.4-1.4,0.6-2.8,0.7-4.2
				c0.2-2.3,0.2-4.5,0.2-6.8c0-0.8-0.7-1.6-0.5-2.3c0.3-1-0.8-1.1-0.7-1.9c0.1-0.7,0.2-1.6,0-2.2c-0.7-1.9-1.6-3.7-2.4-5.5
				c-0.1-0.1-0.2-0.2-0.3-0.4c-1.2-2.9-3.5-4.2-6.5-4.6c-2.5-0.3-5-0.6-7.5-0.9C497.6,151.3,497.4,151.3,497,151.3z"/>
			<path d="M384.8,258.3c2.2-0.3,4.1-0.5,6-0.8c2.7-0.4,5.4-0.8,8.2-1.2c2-0.3,4.1-0.4,6.1-0.5c1.7-0.2,3.3-0.4,5-0.5
				c2.4-0.2,4.7-0.3,7.1-0.4c0.9,0,1.9,1.4,1.6,2.3c-0.2,0.7-0.5,1.4-1,2c-0.3,0.3-1,0.3-1.5,0.4c-4,0.8-8,1.6-12,2.3
				c-1.9,0.3-3.9,0.5-5.9,0.8c-1.7,0.3-3.4,0.7-5.1,1c-1.7,0.3-3.5,0.6-5.2,0.9c-2,0.4-4.1,0.9-6.1,1.1c-1.2,0.1-2.4-0.5-3.6-0.8
				c-0.1,0-0.2-0.2-0.3-0.2c-2.8-1.3-3.5-2.7-2.1-5.5c1.1-2.3,2.5-4.5,3.8-6.7c1.3-2.2,2.7-4.4,4.1-6.5c0.8-1.3,1.8-2.5,2.6-3.8
				c1.2-1.9,2.4-3.8,3.6-5.7c1.6-2.5,3.2-5,4.8-7.5c1-1.6,1.9-3.3,2.9-4.8c1.2-1.9,2.6-3.7,3.9-5.6c1.4-2.1,2.6-4.3,4-6.4
				c1.6-2.6,3.3-5.1,4.9-7.6c1.1-1.8,2.1-3.6,3.1-5.4c1.7-2.9,3.4-5.6,4.9-8.6c1.9-3.8,3.7-7.7,5.4-11.7c1.2-2.8,2.2-5.6,3.2-8.4
				c1-2.8,1.9-5.6,2.8-8.4c1.1-3.5,2.3-7,3.3-10.5c0.4-1.4,0.5-3,0.5-4.5c0.1-2-1.8-3.8-3.7-4.3c-3.7-1-6.6,0.8-9.7,2.1
				c-1.8,0.7-3.5,1.7-5.2,2.7c-0.7,0.4-1.4,0.9-2,1.4c-1.5,1-3.2,0.8-4.7,0.7c-0.8,0-1.6-0.8-2.4-1.4c-0.5-0.3-1-0.7-1.3-1.2
				c-0.5-0.9-0.1-2,1.3-3c2.1-1.5,4.3-3,6.5-4.2c2.5-1.3,5.1-2.4,7.7-3.3c4.2-1.5,8.3-1.2,12.4,0.8c2.3,1.1,4.4,2.4,6,4.3
				c2.5,2.9,3.7,6.4,3.1,10.2c-0.4,2.2-1.3,4.2-2,6.3c-1.2,3.3-2.4,6.5-3.6,9.8c-1,2.6-2,5.2-3,7.8c-0.7,1.8-1.3,3.6-2,5.4
				c-0.6,1.4-1.3,2.8-1.9,4.1c-0.8,1.7-1.7,3.4-2.5,5.1c-0.5,1-0.9,2.1-1.4,3.1c-0.5,0.9-1,1.8-1.5,2.6c-1.7,2.9-3.4,5.9-5.2,8.7
				c-2.4,3.8-4.9,7.6-7.3,11.4c-0.8,1.2-1.4,2.4-2.1,3.6c-1.1,2-3,3.5-3.6,5.8c-0.1,0.4-0.7,0.6-0.9,1c-1.5,2.2-2.9,4.5-4.3,6.7
				c-0.7,1.2-1.5,2.3-2.2,3.5c-0.6,1.1-1.1,2.3-1.7,3.4c-0.4,0.7-0.9,1.3-1.4,1.9c-1.4,2.2-2.8,4.5-4.3,6.8
				c-0.8,1.2-1.7,2.4-2.5,3.6c-0.7,1-1.2,2.2-1.9,3.3c-0.3,0.5-0.8,1-1.1,1.6C385.1,257.5,385,257.8,384.8,258.3z"/>
			<path d="M283.6,256.7c1.3-0.3,2.5-0.5,3.7-0.8c1.3-0.3,2.6-0.6,3.9-0.8c1.4-0.2,2.8-0.4,4.2-0.5c2.2-0.1,4.3-0.1,6.5-0.2
				c0.9,0,1.9-0.1,2.8,0c2.6,0.2,5.3,0.5,7.9,0.7c1.7,0.1,3.3,0,5,0.1c0.9,0,1.9,0.2,2.8,0.3c0.4,0,0.8-0.1,1.2-0.1
				c1.2,0.1,2.4,0.2,3.6,0.2c0.1,0,0.2,0,0.3,0.1c0.9,0.5,1.8,3.8,1.1,4.5c-0.4,0.4-1.1,0.4-1.7,0.5c-1.1,0.2-2.2,0.4-3.3,0.4
				c-2.4,0-4.8-0.1-7.2-0.2c-2-0.1-4.1-0.3-6.1-0.5c-0.3,0-0.7-0.2-1-0.2c-2.6,0-5.2-0.1-7.8,0c-3,0.1-6,0.5-9,1.3
				c-3.1,0.8-5.9,2.2-8.9,3.2c-2.5,0.9-5.1,1.3-7.8,0.8c-0.9-0.2-1.8-0.6-2.4-1.2c-0.4-0.4-0.6-1.4-0.4-2c0.2-0.7,0.8-1.4,1.2-2
				c2.2-3.5,4.5-6.9,6.6-10.4c2.2-3.6,4.3-7.3,6.5-11c1.4-2.3,2.9-4.6,4.3-6.9c1.1-1.8,2.2-3.6,3.2-5.5c1-1.8,1.8-3.8,2.8-5.6
				c1-1.7,2.2-3.2,3.2-4.9c1.1-1.8,2.1-3.6,3.1-5.5c1.5-2.7,3-5.4,4.4-8.1c1.1-2,2.2-4,3.2-6.1c2-4.5,3.9-9,5.7-13.6
				c1.1-2.7,2.1-5.5,2.9-8.3c1.7-5.5,3.2-11.1,4.7-16.7c1-3.7,1.3-7.5,0.4-11.2c-0.5-2.2-1.4-4.3-3.3-5.7c-0.3-0.2-0.8-0.3-1.2-0.2
				c-2.6,0.9-4.9,2.3-7,4.1c-1.4,1.2-2.9,2.4-4.8,1.8c-1.3-0.4-2.7-1-3.7-2c-0.9-0.9,0.2-1.9,0.7-2.6c1.6-2,3.6-3.5,5.8-4.9
				c1.8-1.1,3.7-2,5.7-2.6c2-0.5,3.9-0.2,5.7,0.7c4.9,2.3,8,6.3,9.6,11.4c1.1,3.3,1,6.6,0.5,10c-0.7,4.8-2.3,9.4-3.9,13.9
				c-1.1,3.3-2.4,6.6-3.6,9.9c-0.8,2.2-1.7,4.3-2.5,6.5c-0.5,1.2-0.9,2.5-1.4,3.7c-0.8,2-1.7,4-2.6,5.9c-1.2,2.5-2.4,4.9-3.6,7.4
				c-0.9,1.8-2,3.6-3,5.3c-1.1,2-2.3,4-3.5,6c-1.7,2.9-3.4,5.7-5,8.6c-1.5,2.7-3,5.4-4.5,8c-1.7,3.1-3.5,6.1-5.3,9.1
				c-1.7,2.9-3.4,5.8-5.2,8.7c-1.2,2-2.5,4-3.7,6.1C283.6,256,283.6,256.2,283.6,256.7z"/>
			<path d="M224.5,246.8c2.2-0.7,4.4-1.2,6.5-1.9c1.3-0.4,2.5-1.1,3.8-1.4c2.2-0.5,4.4-0.8,6.6-1.2c1.4-0.2,2.7-0.7,4.1-0.8
				c3.6-0.3,7.2-0.5,10.8-0.6c1.4,0,2.9,0.5,4.3,0.8c0.6,0.1,1.3-0.1,1.8,0.2c0.5,0.3,1,0.9,1.2,1.5c0.1,0.5-0.2,1.2-0.8,1.5
				c-1.5,0.7-2.9,1.1-4.6,1c-1.7-0.1-3.4,0.3-5.1,0.4c-4.6,0.3-9.2,1.2-13.7,2.4c-2.7,0.7-5.4,1.7-8.1,2.6c-4,1.2-8,2.5-12,3.6
				c-1.6,0.4-3.3,0.6-5,0.7c-0.7,0-1.4-0.4-2-0.6c-0.2-0.1-0.4-0.2-0.6-0.3c-0.5-0.2-1.3-0.5-1.3-0.7c0-0.9,0.1-1.8,0.4-2.7
				c0.2-0.5,0.7-0.9,1.2-1.2c1.5-0.9,2.5-2.3,3.5-3.7c1.9-2.6,4-5.2,5.9-7.9c2-2.8,3.9-5.7,5.8-8.6c0.9-1.3,2-2.5,3-3.8
				c1.5-2,2.9-3.9,4.3-6c1.2-1.8,2.4-3.7,3.5-5.6c2-3.2,4-6.4,5.8-9.6c1.5-2.7,2.9-5.4,4.2-8.1c1.6-3.2,3.1-6.4,4.5-9.7
				c1.1-2.7,2-5.5,2.8-8.3c1-3.3,2-6.6,2.8-10c0.4-1.7,0.4-3.5,0.5-5.2c0.1-2.6,0.3-5.1,0.2-7.7c-0.1-3.8-0.7-7.5-2.8-10.7
				c-1.1-1.8-2.3-3.5-4.1-4.7c-1.7-1.1-3.4-1.2-5.1-0.5c-1.7,0.7-3.2,1.8-4.7,2.8c-1.9,1.2-3.8,2.6-5.8,3.6c-2.2,1.1-5,0.4-6.6-1.5
				c-0.6-0.7-0.5-2,0.2-2.8c0.4-0.5,1-0.9,1.5-1.3c3-1.9,5.9-4,9-5.7c3.4-1.8,7.1-2.6,10.9-1.5c2.2,0.6,4.1,1.8,5.7,3.3
				c2.5,2.4,4.9,4.9,6.6,7.8c1.4,2.3,2.2,4.9,2.5,7.6c0.3,2.3,0.5,4.6,0.5,7c-0.1,2.6-0.5,5.2-0.9,7.8c-0.2,1.6-0.4,3.1-0.7,4.7
				c-1.2,6-3.3,11.7-5.7,17.3c-1.5,3.6-3.3,7.2-5.1,10.7c-1.8,3.5-3.6,6.9-5.5,10.4c-1.1,2-2.5,3.9-3.7,5.9
				c-1.7,2.6-3.3,5.3-5.1,7.9c-1.5,2.2-3.1,4.2-4.7,6.3c-1.6,2.2-3.2,4.4-4.7,6.7c-1.9,2.7-3.7,5.4-5.6,8.1
				C224.7,245.7,224,246.2,224.5,246.8z"/>
			<path d="M99.5,258.4c0.2-0.4,0.3-0.8,0.5-1.2c-0.3,0-0.6,0-1.1,0c0.5-1.4,1.6-2,2.6-2.6c1.9-1.2,3.9-2.1,5.9-3.2
				c2-1.1,4-2.3,6-3.3c2.7-1.4,5.5-2.5,8.2-3.9c1.9-1,3.7-2.4,5.5-3.6c1.2-0.8,2.5-1.5,3.5-2.4c3.5-3,6.7-6.3,9.6-9.9
				c2-2.5,3.7-5.2,5.3-7.9c1.2-2.1,2.2-4.4,3.2-6.6c1.1-2.6,2.3-5.2,3.1-7.9c0.8-2.6,1.2-5.2,1.5-7.9c0.2-2.2,0.2-4.4,0-6.6
				c-0.2-2.1-0.9-4.1-2.1-5.9c-0.9-1.3-1.7-2.6-2.8-3.7c-1.6-1.6-3.8-1.9-5.9-2.2c-1.8-0.3-3.8-0.5-5.4-1.2
				c-1.5-0.7-2.8-1.9-3.9-3.1c-0.3-0.3-0.5-1.7,0.4-2.3c1.1-0.9,2.2-1.7,3.3-2.6c2-1.6,4.1-3.2,6.1-5c2.1-1.9,4.1-3.8,6.1-5.9
				c2.6-2.6,4.9-5.5,6.4-8.9c0.8-1.9,1.6-3.8,0.3-5.8c-0.4-0.5-0.9-1.1-1.6-1.3c-3-1.1-6-0.9-9-0.1c-3.2,0.8-6.1,2.5-9.1,3.9
				c-1.7,0.8-4.1,0.3-5.4-1c-0.4-0.4-1.1-0.7-1.7-1c1.1-4.3,4.8-5.4,8-6.8c3.9-1.7,8.1-2.4,12.4-2.2c3.9,0.2,7.8,1.1,10.8,3.8
				c1.1,1,1.8,2.4,2.7,3.6c0.8,1,1.1,2,1.5,3.2c0.7,2.1,0.1,3.9-0.7,5.7c-1.1,2.5-2.7,4.6-4.4,6.8c-1.9,2.4-4.1,4.4-6.3,6.6
				c-2.4,2.4-5,4.6-7.5,6.9c-0.2,0.2-0.4,0.5-0.6,0.8c1.2,0.4,2.2,0.7,3.3,1c2.2,0.7,4,2,5.7,3.5c1.4,1.3,2.5,2.7,3.6,4.3
				c1.4,2,2.1,4.2,3,6.4c0.5,1.4,0.8,2.9,0.8,4.4c0.1,2.8,0.2,5.6-0.3,8.3c-0.7,4.1-1.8,8.2-3.6,11.9c-1.7,3.4-3.2,7-5.2,10.2
				c-1.9,3.3-4.2,6.3-6.5,9.3c-1.6,2.1-3.3,4.1-5.2,6c-3.5,3.5-7.5,6.5-11.8,8.9c-2.1,1.2-4.3,2.2-6.5,3.3c-2.7,1.4-5.4,2.6-8,4.1
				c-2.6,1.4-5,3.1-7.5,4.6c-1.9,1.1-3.8,0.9-5.5-0.3C100.4,259.2,99.9,258.8,99.5,258.4z"/>
			<path d="M176.7,248.9c-1.6,1-3-0.4-4.7-1.1c-1.3-0.6-1.8-1.3-1.7-2.8c0.3-3.2,2.9-4.7,5.6-3.7c1.2,0.5,2.8,0.8,3.6,2.4
				c0.7,1.4,0.6,2.7,0.1,3.9C179.2,248.6,178.1,248.8,176.7,248.9z"/>
			<path d="M350.9,244.8c0.1-1.2,0.3-2.4,1.7-3c0.6-0.3,1.1-1,1.7-1.1c0.9-0.1,1.9,0,2.7,0.3c2.1,0.7,3.3,2.3,3.8,4.3
				c0.3,1.3-0.6,2.6-2,2.8c-1,0.1-1.9,0.2-2.9,0.2c-0.8,0-1.7,0.3-2.3-0.6c-0.2-0.3-0.8-0.5-1.3-0.6
				C351,246.8,350.7,246,350.9,244.8z"/>
		</g>
	</g>
</g>
</svg>
